<svg xmlns="http://www.w3.org/2000/svg" xmlns:xlink="http://www.w3.org/1999/xlink" viewBox="0 0 161.35 130.97"><defs><style>.cls-1{mask:url(#mask);}.cls-10,.cls-2,.cls-22,.cls-39,.cls-4,.cls-40,.cls-41,.cls-42,.cls-6,.cls-60,.cls-61,.cls-8{mix-blend-mode:multiply;}.cls-2{fill:url(#linear-gradient);}.cls-3{mask:url(#mask-2);}.cls-4{fill:url(#linear-gradient-2);}.cls-5{mask:url(#mask-3);}.cls-6{fill:url(#linear-gradient-3);}.cls-7{mask:url(#mask-4);}.cls-8{fill:url(#linear-gradient-4);}.cls-9{mask:url(#mask-5);}.cls-10{fill:url(#linear-gradient-5);}.cls-11{fill:none;}.cls-12{fill:#eae9ce;}.cls-13{isolation:isolate;}.cls-14{fill:url(#linear-gradient-6);}.cls-15,.cls-17{fill:#fff;}.cls-16{fill:#c66300;}.cls-17{fill-rule:evenodd;}.cls-18{mask:url(#mask-6);}.cls-19,.cls-26{opacity:0.32;}.cls-19{fill:url(#linear-gradient-7);}.cls-20{fill:#c1272d;}.cls-21{clip-path:url(#clip-path);}.cls-22{fill:url(#radial-gradient);}.cls-23{fill:url(#linear-gradient-8);}.cls-24{fill:#00578c;}.cls-25{mask:url(#mask-7);}.cls-26{fill:url(#linear-gradient-9);}.cls-27{fill:#fccc00;}.cls-28{clip-path:url(#clip-path-2);}.cls-29{clip-path:url(#clip-path-3);}.cls-30{clip-path:url(#clip-path-4);}.cls-31{clip-path:url(#clip-path-5);}.cls-32{clip-path:url(#clip-path-6);}.cls-33,.cls-34,.cls-37,.cls-38,.cls-52,.cls-53,.cls-54,.cls-55{mix-blend-mode:screen;}.cls-33{fill:url(#radial-gradient-2);}.cls-34{opacity:0.57;fill:url(#radial-gradient-3);}.cls-35{mask:url(#mask-8);}.cls-36{opacity:0.6;fill:url(#linear-gradient-10);}.cls-37{opacity:0.89;fill:url(#radial-gradient-4);}.cls-38{opacity:0.62;fill:url(#radial-gradient-5);}.cls-39{fill:url(#radial-gradient-6);}.cls-40{fill:url(#radial-gradient-7);}.cls-41{fill:url(#radial-gradient-8);}.cls-42{fill:url(#radial-gradient-9);}.cls-43{opacity:0.47;}.cls-44{fill:url(#linear-gradient-11);}.cls-45{fill:url(#linear-gradient-12);}.cls-46{fill:#086dff;}.cls-47{clip-path:url(#clip-path-7);}.cls-48{clip-path:url(#clip-path-8);}.cls-49{clip-path:url(#clip-path-9);}.cls-50{clip-path:url(#clip-path-10);}.cls-51{clip-path:url(#clip-path-11);}.cls-52{fill:url(#radial-gradient-10);}.cls-53{fill:url(#radial-gradient-11);}.cls-54{fill:url(#radial-gradient-12);}.cls-55{opacity:0.7;fill:url(#radial-gradient-13);}.cls-56{mask:url(#mask-9);}.cls-57{opacity:0.54;fill:url(#linear-gradient-13);}.cls-58{mask:url(#mask-10);}.cls-59{opacity:0.34;fill:url(#linear-gradient-14);}.cls-60{fill:url(#radial-gradient-14);}.cls-61{fill:url(#radial-gradient-15);}.cls-62{font-size:15.17px;font-family:Roboto-Bold, Roboto;font-weight:700;}.cls-63{filter:url(#luminosity-noclip-10);}.cls-64{filter:url(#luminosity-noclip-9);}.cls-65{filter:url(#luminosity-noclip-8);}.cls-66{filter:url(#luminosity-noclip-7);}.cls-67{filter:url(#luminosity-noclip-6);}.cls-68{filter:url(#luminosity-noclip-5);}.cls-69{filter:url(#luminosity-noclip-4);}.cls-70{filter:url(#luminosity-noclip-3);}.cls-71{filter:url(#luminosity-noclip-2);}.cls-72{filter:url(#luminosity-noclip);}</style><filter id="luminosity-noclip" x="267.58" y="-8417" width="56.42" height="32766" filterUnits="userSpaceOnUse" color-interpolation-filters="sRGB"><feFlood flood-color="#fff" result="bg"/><feBlend in="SourceGraphic" in2="bg"/></filter><mask id="mask" x="267.58" y="-8417" width="56.42" height="32766" maskUnits="userSpaceOnUse"><g class="cls-72"/></mask><linearGradient id="linear-gradient" x1="260.88" y1="353.76" x2="221.58" y2="304.17" gradientTransform="translate(-49.21 98.51) rotate(-17.37)" gradientUnits="userSpaceOnUse"><stop offset="0" stop-color="#fff"/><stop offset="0.05" stop-color="#f7f7f7"/><stop offset="0.14" stop-color="#e2e2e2"/><stop offset="0.24" stop-color="#bfbfbf"/><stop offset="0.36" stop-color="#8e8e8e"/><stop offset="0.49" stop-color="#505050"/><stop offset="0.62" stop-color="#080808"/></linearGradient><filter id="luminosity-noclip-2" x="306.77" y="-8417" width="63.49" height="32766" filterUnits="userSpaceOnUse" color-interpolation-filters="sRGB"><feFlood flood-color="#fff" result="bg"/><feBlend in="SourceGraphic" in2="bg"/></filter><mask id="mask-2" x="306.77" y="-8417" width="63.49" height="32766" maskUnits="userSpaceOnUse"><g class="cls-71"/></mask><linearGradient id="linear-gradient-2" x1="339.27" y1="359.83" x2="296.87" y2="306.33" gradientTransform="matrix(1, 0, 0, 1, 0, 0)" xlink:href="#linear-gradient"/><filter id="luminosity-noclip-3" x="317.12" y="-8417" width="22.78" height="32766" filterUnits="userSpaceOnUse" color-interpolation-filters="sRGB"><feFlood flood-color="#fff" result="bg"/><feBlend in="SourceGraphic" in2="bg"/></filter><mask id="mask-3" x="317.12" y="-8417" width="22.78" height="32766" maskUnits="userSpaceOnUse"><g class="cls-70"/></mask><linearGradient id="linear-gradient-3" x1="327.89" y1="377.3" x2="328.69" y2="413.03" gradientUnits="userSpaceOnUse"><stop offset="0.16" stop-color="#1a1a1a"/><stop offset="0.22" stop-color="#4a4a4a"/><stop offset="0.3" stop-color="#8a8a8a"/><stop offset="0.37" stop-color="#bcbcbc"/><stop offset="0.43" stop-color="#e1e1e1"/><stop offset="0.48" stop-color="#f7f7f7"/><stop offset="0.51" stop-color="#fff"/><stop offset="0.57" stop-color="#ebebeb"/><stop offset="0.69" stop-color="#b6b6b6"/><stop offset="0.86" stop-color="#626262"/><stop offset="1" stop-color="#1a1a1a"/></linearGradient><filter id="luminosity-noclip-4" x="258.38" y="-8417" width="27.16" height="32766" filterUnits="userSpaceOnUse" color-interpolation-filters="sRGB"><feFlood flood-color="#fff" result="bg"/><feBlend in="SourceGraphic" in2="bg"/></filter><mask id="mask-4" x="258.38" y="-8417" width="27.16" height="32766" maskUnits="userSpaceOnUse"><g class="cls-69"/></mask><linearGradient id="linear-gradient-4" x1="-109.85" y1="-191.51" x2="-109.14" y2="-159.94" gradientTransform="matrix(-0.99, -0.12, -0.12, 0.99, 141.81, 554.53)" gradientUnits="userSpaceOnUse"><stop offset="0" stop-color="#1a1a1a"/><stop offset="0.55" stop-color="#fff"/><stop offset="1" stop-color="#1a1a1a"/></linearGradient><filter id="luminosity-noclip-5" x="279.01" y="-8417" width="27.16" height="32766" filterUnits="userSpaceOnUse" color-interpolation-filters="sRGB"><feFlood flood-color="#fff" result="bg"/><feBlend in="SourceGraphic" in2="bg"/></filter><mask id="mask-5" x="279.01" y="-8417" width="27.16" height="32766" maskUnits="userSpaceOnUse"><g class="cls-68"/></mask><linearGradient id="linear-gradient-5" x1="401.97" y1="-190.81" x2="402.68" y2="-159.24" gradientTransform="translate(-126.31 522.4) rotate(6.68)" xlink:href="#linear-gradient-4"/><linearGradient id="linear-gradient-6" x1="269.13" y1="335.95" x2="346.22" y2="398.26" gradientUnits="userSpaceOnUse"><stop offset="0.09" stop-color="#ff2b03"/><stop offset="0.25" stop-color="#f72c04"/><stop offset="0.5" stop-color="#e22d06"/><stop offset="0.8" stop-color="#bf3009"/><stop offset="1" stop-color="#a5320b"/></linearGradient><filter id="luminosity-noclip-6" x="267.58" y="318.69" width="56.42" height="76.51" filterUnits="userSpaceOnUse" color-interpolation-filters="sRGB"><feFlood flood-color="#fff" result="bg"/><feBlend in="SourceGraphic" in2="bg"/></filter><mask id="mask-6" x="40.53" y="0.04" width="56.42" height="76.51" maskUnits="userSpaceOnUse"><g class="cls-67"><g transform="translate(-227.06 -318.65)"><g class="cls-1"><path class="cls-2" d="M324,321.46l-.08-.28a3.55,3.55,0,0,0-4.45-2.32l-49.4,15.45a3.54,3.54,0,0,0-2.32,4.44l17.66,56.45Z"/></g></g></g></mask><linearGradient id="linear-gradient-7" x1="260.88" y1="353.76" x2="221.58" y2="304.17" gradientTransform="translate(-49.21 98.51) rotate(-17.37)" gradientUnits="userSpaceOnUse"><stop offset="0" stop-color="#fff"/><stop offset="0.62" stop-color="#fff"/></linearGradient><clipPath id="clip-path" transform="translate(-227.06 -318.65)"><path class="cls-11" d="M341.6,400.27l-43.37,13.56a6.7,6.7,0,0,1-8.4-4.39l-21.17-67.66a6.7,6.7,0,0,1,4.4-8.4l43.37-13.57a6.71,6.71,0,0,1,8.4,4.4L346,391.86A6.72,6.72,0,0,1,341.6,400.27Z"/></clipPath><radialGradient id="radial-gradient" cx="-1232.96" cy="725.78" r="44.48" gradientTransform="matrix(0.29, 0, 0, 1.12, 676.11, -441.67)" gradientUnits="userSpaceOnUse"><stop offset="0" stop-color="#041b3b"/><stop offset="0.09" stop-color="#0c2241"/><stop offset="0.22" stop-color="#233753"/><stop offset="0.39" stop-color="#485970"/><stop offset="0.59" stop-color="#7b8798"/><stop offset="0.8" stop-color="#bcc2ca"/><stop offset="1" stop-color="#fff"/></radialGradient><linearGradient id="linear-gradient-8" x1="80.03" y1="3.83" x2="143.43" y2="98.36" gradientUnits="userSpaceOnUse"><stop offset="0" stop-color="#0086ff"/><stop offset="0.21" stop-color="#0084f9"/><stop offset="0.51" stop-color="#0080e7"/><stop offset="0.86" stop-color="#0079ca"/><stop offset="1" stop-color="#0075bb"/></linearGradient><filter id="luminosity-noclip-7" x="306.77" y="323.81" width="63.49" height="67.63" filterUnits="userSpaceOnUse" color-interpolation-filters="sRGB"><feFlood flood-color="#fff" result="bg"/><feBlend in="SourceGraphic" in2="bg"/></filter><mask id="mask-7" x="79.71" y="5.16" width="63.49" height="67.63" maskUnits="userSpaceOnUse"><g class="cls-66"><g transform="translate(-227.06 -318.65)"><g class="cls-3"><path class="cls-4" d="M370.25,328v-.32a3.83,3.83,0,0,0-3.82-3.83H310.59a3.83,3.83,0,0,0-3.82,3.83v63.8Z"/></g></g></g></mask><linearGradient id="linear-gradient-9" x1="339.27" y1="359.83" x2="296.87" y2="306.33" gradientTransform="matrix(1, 0, 0, 1, 0, 0)" xlink:href="#linear-gradient-7"/><clipPath id="clip-path-2" transform="translate(-227.06 -318.65)"><path class="cls-12" d="M341.4,392.59a13.52,13.52,0,0,0-6.18,17.46,23.4,23.4,0,0,0,6.18-17.46Z"/></clipPath><clipPath id="clip-path-3" transform="translate(-227.06 -318.65)"><path class="cls-12" d="M294.76,395.72a13.55,13.55,0,0,0,6.18-17.46,23.4,23.4,0,0,0-6.18,17.46Z"/></clipPath><clipPath id="clip-path-4" transform="translate(-227.06 -318.65)"><path class="cls-12" d="M316.51,370.83A13.51,13.51,0,0,0,334,377a23.4,23.4,0,0,0-17.45-6.18Z"/></clipPath><clipPath id="clip-path-5" transform="translate(-227.06 -318.65)"><path class="cls-12" d="M319.65,417.47a13.52,13.52,0,0,0-17.46-6.18,23.4,23.4,0,0,0,17.46,6.18Z"/></clipPath><clipPath id="clip-path-6" transform="translate(-227.06 -318.65)"><path class="cls-11" d="M341.45,394.15a23.38,23.38,0,1,1-23.37-23.37A23.37,23.37,0,0,1,341.45,394.15Z"/></clipPath><radialGradient id="radial-gradient-2" cx="211.94" cy="129.25" r="25.64" gradientTransform="matrix(1.55, -0.84, 0.67, 1.24, -99.43, 389.22)" gradientUnits="userSpaceOnUse"><stop offset="0" stop-color="#fcffda"/><stop offset="0.67" stop-color="#230000"/><stop offset="1" stop-color="#100"/></radialGradient><radialGradient id="radial-gradient-3" cx="97.85" cy="-100.07" r="15.97" gradientTransform="matrix(-1.58, -2.66, 0.97, -0.58, 588.95, 583.05)" gradientUnits="userSpaceOnUse"><stop offset="0" stop-color="#fcffff"/><stop offset="0.25" stop-color="#897878"/><stop offset="0.48" stop-color="#230000"/><stop offset="1" stop-color="#100"/></radialGradient><filter id="luminosity-noclip-8" x="317.12" y="372.32" width="22.78" height="43.47" filterUnits="userSpaceOnUse" color-interpolation-filters="sRGB"><feFlood flood-color="#fff" result="bg"/><feBlend in="SourceGraphic" in2="bg"/></filter><mask id="mask-8" x="90.06" y="53.66" width="22.78" height="43.47" maskUnits="userSpaceOnUse"><g class="cls-65"><g transform="translate(-227.06 -318.65)"><g class="cls-5"><path class="cls-6" d="M338.15,385.44a21.41,21.41,0,0,0-19.66-13.12c-.46,0-.92,0-1.37,0a21.43,21.43,0,0,1,18.26,13.08,22.06,22.06,0,0,1,0,17.22,21.43,21.43,0,0,1-18.26,13.08c.45,0,.91.05,1.37.05a21.42,21.42,0,0,0,19.66-13.13,22.06,22.06,0,0,0,0-17.22Z"/></g></g></g></mask><linearGradient id="linear-gradient-10" x1="327.89" y1="377.3" x2="328.69" y2="413.03" gradientUnits="userSpaceOnUse"><stop offset="0.16" stop-color="#fff"/><stop offset="0.51" stop-color="#fff"/><stop offset="1" stop-color="#fff"/></linearGradient><radialGradient id="radial-gradient-4" cx="246.48" cy="378.09" r="20.74" gradientTransform="matrix(0.82, -0.45, 0.33, 0.62, -14.36, 255.57)" gradientUnits="userSpaceOnUse"><stop offset="0" stop-color="#f4ffff"/><stop offset="0.62" stop-color="#171d1c"/></radialGradient><radialGradient id="radial-gradient-5" cx="253.71" cy="513.8" r="9.99" gradientTransform="matrix(0.85, -0.35, 0.23, 0.56, -18.43, 179.18)" gradientUnits="userSpaceOnUse"><stop offset="0" stop-color="#f4ffff"/><stop offset="0.62" stop-color="#242a2e"/></radialGradient><radialGradient id="radial-gradient-6" cx="89.8" cy="532.63" r="36.85" gradientTransform="matrix(0.15, 0.47, -1.49, 0.46, 1112.54, 128.77)" gradientUnits="userSpaceOnUse"><stop offset="0" stop-color="#310000"/><stop offset="0.09" stop-color="#360606"/><stop offset="0.22" stop-color="#451818"/><stop offset="0.3" stop-color="#502626"/><stop offset="0.43" stop-color="#7e5e5e"/><stop offset="0.58" stop-color="#ab9797"/><stop offset="0.71" stop-color="#cfc4c4"/><stop offset="0.83" stop-color="#e9e4e4"/><stop offset="0.93" stop-color="#f9f8f8"/><stop offset="1" stop-color="#fff"/></radialGradient><radialGradient id="radial-gradient-7" cx="-257.72" cy="390.78" r="36.85" gradientTransform="matrix(-0.2, 0.43, -0.96, -0.44, 629.07, 700.05)" xlink:href="#radial-gradient-6"/><radialGradient id="radial-gradient-8" cx="777.55" cy="275.42" r="36.85" gradientTransform="matrix(-0.45, 0.16, -0.35, -1, 741.24, 545.46)" xlink:href="#radial-gradient-6"/><radialGradient id="radial-gradient-9" cx="-668.84" cy="353.39" r="36.08" gradientTransform="matrix(-0.43, 0.19, -0.46, -1.05, 143.65, 900.91)" gradientUnits="userSpaceOnUse"><stop offset="0" stop-color="#b94600"/><stop offset="0.07" stop-color="#bb4706"/><stop offset="0.16" stop-color="#c24a18"/><stop offset="0.26" stop-color="#ce4f35"/><stop offset="0.36" stop-color="#da5555"/><stop offset="0.46" stop-color="#de6969"/><stop offset="0.66" stop-color="#ea9d9d"/><stop offset="0.95" stop-color="#fcf0f0"/><stop offset="1" stop-color="#fff"/></radialGradient><linearGradient id="linear-gradient-11" x1="350.43" y1="381.61" x2="358.18" y2="374.14" gradientTransform="translate(17.7 -27.62) rotate(8.89)" gradientUnits="userSpaceOnUse"><stop offset="0.16" stop-color="#319d92"/><stop offset="0.34" stop-color="#69b7af"/><stop offset="0.57" stop-color="#a9d6d1"/><stop offset="0.77" stop-color="#d7ecea"/><stop offset="0.91" stop-color="#f4faf9"/><stop offset="1" stop-color="#fff"/></linearGradient><linearGradient id="linear-gradient-12" x1="350.25" y1="381.43" x2="358.01" y2="373.96" xlink:href="#linear-gradient-11"/><clipPath id="clip-path-7" transform="translate(-227.06 -318.65)"><path class="cls-12" d="M302.06,379.13a14.54,14.54,0,0,0,5.06,19.25,25.09,25.09,0,0,0-5.06-19.25Z"/></clipPath><clipPath id="clip-path-8" transform="translate(-227.06 -318.65)"><path class="cls-12" d="M262.5,410.09a14.52,14.52,0,0,0-5.05-19.25,25.14,25.14,0,0,0,5.05,19.25Z"/></clipPath><clipPath id="clip-path-9" transform="translate(-227.06 -318.65)"><path class="cls-12" d="M266.8,374.83a14.55,14.55,0,0,0,19.26-5.06,25.13,25.13,0,0,0-19.26,5.06Z"/></clipPath><clipPath id="clip-path-10" transform="translate(-227.06 -318.65)"><path class="cls-12" d="M297.77,414.39a14.52,14.52,0,0,0-19.25,5.05,25.14,25.14,0,0,0,19.25-5.05Z"/></clipPath><clipPath id="clip-path-11" transform="translate(-227.06 -318.65)"><path class="cls-11" d="M307.23,397.53a25.12,25.12,0,1,1-22-27.87A25.12,25.12,0,0,1,307.23,397.53Z"/></clipPath><radialGradient id="radial-gradient-10" cx="431.57" cy="-111.46" r="28.19" gradientTransform="matrix(1.13, -1.05, 0.78, 0.84, -134.38, 928.81)" gradientUnits="userSpaceOnUse"><stop offset="0" stop-color="#fcf6dd"/><stop offset="0.67" stop-color="#230000"/><stop offset="1" stop-color="#100"/></radialGradient><radialGradient id="radial-gradient-11" cx="585.63" cy="-244.13" r="22.09" gradientTransform="matrix(0.88, -0.49, 0.3, 0.55, -162.69, 800.38)" gradientUnits="userSpaceOnUse"><stop offset="0" stop-color="#d8f9ff"/><stop offset="0.62" stop-color="#121938"/></radialGradient><radialGradient id="radial-gradient-12" cx="586.67" cy="-125.29" r="10.69" gradientTransform="matrix(0.78, -0.63, 0.39, 0.47, -135.29, 814.6)" xlink:href="#radial-gradient-11"/><radialGradient id="radial-gradient-13" cx="227.88" cy="135.65" r="11.43" gradientTransform="matrix(-1.27, -2.59, 1.6, -0.79, 373.37, 1076.13)" gradientUnits="userSpaceOnUse"><stop offset="0" stop-color="#fcffff"/><stop offset="0.46" stop-color="#54524a"/><stop offset="1"/></radialGradient><filter id="luminosity-noclip-9" x="258.38" y="371.17" width="27.16" height="46.63" filterUnits="userSpaceOnUse" color-interpolation-filters="sRGB"><feFlood flood-color="#fff" result="bg"/><feBlend in="SourceGraphic" in2="bg"/></filter><mask id="mask-9" x="31.33" y="52.52" width="27.16" height="46.63" maskUnits="userSpaceOnUse"><g class="cls-64"><g transform="translate(-227.06 -318.65)"><g class="cls-7"><path class="cls-8" d="M261.49,382.86a23,23,0,0,1,22.6-11.53c.49.05,1,.13,1.45.22a23,23,0,0,0-21.1,11.66,23.65,23.65,0,0,0-2.16,18.37,23,23,0,0,0,17.84,16.22c-.49,0-1-.06-1.46-.12a23,23,0,0,1-19.32-16.45,23.72,23.72,0,0,1,2.15-18.37Z"/></g></g></g></mask><linearGradient id="linear-gradient-13" x1="-109.85" y1="-191.51" x2="-109.14" y2="-159.94" gradientTransform="matrix(-0.99, -0.12, -0.12, 0.99, 141.81, 554.53)" gradientUnits="userSpaceOnUse"><stop offset="0" stop-color="#fff"/><stop offset="0.55" stop-color="#fff"/><stop offset="1" stop-color="#fff"/></linearGradient><filter id="luminosity-noclip-10" x="279.01" y="371.42" width="27.16" height="46.63" filterUnits="userSpaceOnUse" color-interpolation-filters="sRGB"><feFlood flood-color="#fff" result="bg"/><feBlend in="SourceGraphic" in2="bg"/></filter><mask id="mask-10" x="51.95" y="52.76" width="27.16" height="46.63" maskUnits="userSpaceOnUse"><g class="cls-63"><g transform="translate(-227.06 -318.65)"><g class="cls-9"><path class="cls-10" d="M305.22,388a23,23,0,0,0-19.32-16.45c-.49-.06-1-.09-1.47-.12a23,23,0,0,1,17.84,16.22A23.72,23.72,0,0,1,300.12,406,23,23,0,0,1,279,417.67c.48.08,1,.16,1.45.22a23,23,0,0,0,22.6-11.53A23.66,23.66,0,0,0,305.22,388Z"/></g></g></g></mask><linearGradient id="linear-gradient-14" x1="401.97" y1="-190.81" x2="402.68" y2="-159.24" gradientTransform="translate(-126.31 522.4) rotate(6.68)" xlink:href="#linear-gradient-13"/><radialGradient id="radial-gradient-14" cx="-913.28" cy="263.39" r="39.54" gradientTransform="matrix(0.14, 0.48, -1.03, 0.3, 696.47, 781.85)" gradientUnits="userSpaceOnUse"><stop offset="0" stop-color="#325115"/><stop offset="0.09" stop-color="#38551b"/><stop offset="0.21" stop-color="#49602d"/><stop offset="0.35" stop-color="#65724a"/><stop offset="0.43" stop-color="#797f60"/><stop offset="0.49" stop-color="#8a8f74"/><stop offset="0.66" stop-color="#bcbfaf"/><stop offset="0.81" stop-color="#e0e2db"/><stop offset="0.93" stop-color="#f7f7f5"/><stop offset="1" stop-color="#fff"/></radialGradient><radialGradient id="radial-gradient-15" cx="-1403.33" cy="540.22" r="39.54" gradientTransform="matrix(-0.25, 0.41, -0.91, -0.56, 417.23, 1297.07)" xlink:href="#radial-gradient-14"/></defs><g class="cls-13"><g id="Layer_1" data-name="Layer 1"><path class="cls-14" d="M344.8,399.26,295,414.84a3.34,3.34,0,0,1-4.19-2.2l-23.17-74.06a3.35,3.35,0,0,1,2.19-4.2l49.78-15.57a3.36,3.36,0,0,1,4.2,2.19L347,395.07A3.34,3.34,0,0,1,344.8,399.26Z" transform="translate(-227.06 -318.65)"/><path class="cls-15" d="M290.19,402l2.55,8.13a2.78,2.78,0,0,0,3.49,1.83l45.92-14.37a2.78,2.78,0,0,0,1.83-3.49l-2.55-8.13Z" transform="translate(-227.06 -318.65)"/><path class="cls-15" d="M340.42,382.69l-10.51-33.58a2.78,2.78,0,0,0-3.49-1.83L280.5,361.65a2.78,2.78,0,0,0-1.83,3.49l10.51,33.58Z" transform="translate(-227.06 -318.65)"/><path class="cls-16" d="M341.18,386l2.55,8.13a2.53,2.53,0,0,1-1.66,3.16l-45.92,14.37A2.53,2.53,0,0,1,293,410l-2.54-8.13-.51.16,2.55,8.13a3,3,0,0,0,3.82,2l45.92-14.37a3.05,3.05,0,0,0,2-3.82l-2.54-8.13Z" transform="translate(-227.06 -318.65)"/><path class="cls-16" d="M326.34,347l-45.92,14.36a3.07,3.07,0,0,0-2,3.83l10.51,33.58.5-.16-10.5-33.58a2.51,2.51,0,0,1,1.65-3.16l45.92-14.37a2.53,2.53,0,0,1,3.16,1.66l10.51,33.58.5-.16L330.17,349A3.06,3.06,0,0,0,326.34,347Z" transform="translate(-227.06 -318.65)"/><path d="M286.53,367.81a.19.19,0,0,1,.13,0,.22.22,0,0,1,.07.09l.08.26-2.26.7,0-.14a.31.31,0,0,1,0-.1.19.19,0,0,1,0-.1l.74-1.43.17-.34a2.22,2.22,0,0,0,.1-.31,1,1,0,0,0,0-.3,1,1,0,0,0,0-.29.84.84,0,0,0-.13-.25.52.52,0,0,0-.19-.14.54.54,0,0,0-.22-.05.73.73,0,0,0-.25,0,.61.61,0,0,0-.23.11.81.81,0,0,0-.16.16.78.78,0,0,0-.09.21.82.82,0,0,0,0,.23.17.17,0,0,1,0,.13.2.2,0,0,1-.13.06l-.23,0a1.14,1.14,0,0,1,0-.45,1.16,1.16,0,0,1,.15-.38,1,1,0,0,1,.27-.28,1.18,1.18,0,0,1,.39-.19,1,1,0,0,1,.42-.06,1,1,0,0,1,.38.08,1,1,0,0,1,.31.23,1.18,1.18,0,0,1,.2.37,1.22,1.22,0,0,1,0,.37,1.13,1.13,0,0,1-.06.36,3,3,0,0,1-.13.35l-.18.36-.61,1.19.18-.1.18-.07Z" transform="translate(-227.06 -318.65)"/><path d="M286.6,365.53a1.69,1.69,0,0,1,0-.45,1.16,1.16,0,0,1,.15-.38,1,1,0,0,1,.27-.28,1.18,1.18,0,0,1,.39-.19,1,1,0,0,1,.41-.06.87.87,0,0,1,.37.07.86.86,0,0,1,.29.21.85.85,0,0,1,.18.34.77.77,0,0,1,0,.29.55.55,0,0,1,0,.26.71.71,0,0,1-.13.22,1.29,1.29,0,0,1-.21.19.93.93,0,0,1,.59.13.89.89,0,0,1,.33.46,1.18,1.18,0,0,1,0,.45,1.07,1.07,0,0,1-.14.39,1.3,1.3,0,0,1-.3.32,1.63,1.63,0,0,1-.42.2,1.42,1.42,0,0,1-.48.08,1.17,1.17,0,0,1-.38-.08,1.29,1.29,0,0,1-.3-.22,1.81,1.81,0,0,1-.25-.3l.15-.13a.2.2,0,0,1,.14-.06.15.15,0,0,1,.12,0l.12.14a.53.53,0,0,0,.19.13.61.61,0,0,0,.25.08.66.66,0,0,0,.33,0,.81.81,0,0,0,.29-.16.73.73,0,0,0,.18-.22.71.71,0,0,0,.06-.24.62.62,0,0,0,0-.24,1.33,1.33,0,0,0-.11-.24.53.53,0,0,0-.2-.16.68.68,0,0,0-.3,0,1.65,1.65,0,0,0-.45.08l-.1-.3a1.54,1.54,0,0,0,.36-.16.81.81,0,0,0,.21-.2.63.63,0,0,0,.08-.23,1.22,1.22,0,0,0,0-.26.92.92,0,0,0-.13-.24.49.49,0,0,0-.18-.14.54.54,0,0,0-.22,0,.73.73,0,0,0-.25,0,.71.71,0,0,0-.39.27.78.78,0,0,0-.09.21.82.82,0,0,0,0,.22.18.18,0,0,1,0,.14s-.07,0-.13.06Z" transform="translate(-227.06 -318.65)"/><path d="M294.14,365.52l.11.32-1.82.57-.1-.32.73-.23-.72-2.3-.06-.22-.44.71,0,.05-.06,0h-.05l-.05,0-.19-.14.74-1.18.34-.11,1,3.07Z" transform="translate(-227.06 -318.65)"/><path d="M295,363.27a1.21,1.21,0,0,0-.05.14.69.69,0,0,0-.05.13,1.1,1.1,0,0,1,.22-.21,1,1,0,0,1,.3-.14,1.2,1.2,0,0,1,.41-.06,1,1,0,0,1,.38.1.93.93,0,0,1,.31.25,1,1,0,0,1,.22.4,1.23,1.23,0,0,1,.05.46,1.15,1.15,0,0,1-.42.77,1.28,1.28,0,0,1-.45.23,1.19,1.19,0,0,1-.48.07,1,1,0,0,1-.43-.12,1.07,1.07,0,0,1-.34-.3,1.35,1.35,0,0,1-.22-.45,1.17,1.17,0,0,1-.05-.5,2.48,2.48,0,0,1,.14-.64l.5-1.42a.2.2,0,0,1,.07-.1.35.35,0,0,1,.12-.07l.37-.12Zm.81,1.73a1.13,1.13,0,0,0,.29-.15.83.83,0,0,0,.19-.23.6.6,0,0,0,.07-.27.8.8,0,0,0-.18-.59.55.55,0,0,0-.22-.18.6.6,0,0,0-.27-.07.78.78,0,0,0-.3,0,.8.8,0,0,0-.29.15,1,1,0,0,0-.19.23.9.9,0,0,0-.07.27.72.72,0,0,0,0,.29,1,1,0,0,0,.14.28.76.76,0,0,0,.21.19.77.77,0,0,0,.27.08A.94.94,0,0,0,295.85,365Z" transform="translate(-227.06 -318.65)"/><path d="M302,361.47a1,1,0,0,1,.58.15.85.85,0,0,1,.33.48,1.08,1.08,0,0,1,.05.43,1,1,0,0,1-.14.38,1.42,1.42,0,0,1-.3.3,1.63,1.63,0,0,1-.44.21,1.73,1.73,0,0,1-.49.08,1.16,1.16,0,0,1-.42-.08.86.86,0,0,1-.33-.23,1,1,0,0,1-.2-.37.85.85,0,0,1,0-.59,1,1,0,0,1,.39-.46.84.84,0,0,1-.5-.17.85.85,0,0,1-.28-.42.82.82,0,0,1,0-.38.73.73,0,0,1,.12-.34.89.89,0,0,1,.26-.29,1.2,1.2,0,0,1,.39-.2,1.17,1.17,0,0,1,.44-.06,1,1,0,0,1,.39.08,1.06,1.06,0,0,1,.29.22.76.76,0,0,1,.18.33.78.78,0,0,1-.29.93Zm-.9-1.18a1,1,0,0,0-.25.13.86.86,0,0,0-.16.18.79.79,0,0,0-.06.22.85.85,0,0,0,0,.23.91.91,0,0,0,.11.22.48.48,0,0,0,.4.23.63.63,0,0,0,.29,0,.85.85,0,0,0,.27-.13.55.55,0,0,0,.15-.2.54.54,0,0,0,0-.22,1,1,0,0,0,0-.24.84.84,0,0,0-.11-.21.49.49,0,0,0-.18-.14.52.52,0,0,0-.22-.07A1,1,0,0,0,301.13,360.29Zm.87,2.8a.92.92,0,0,0,.28-.14.57.57,0,0,0,.18-.2.53.53,0,0,0,.08-.24.69.69,0,0,0,0-.28.92.92,0,0,0-.15-.28.62.62,0,0,0-.22-.15.57.57,0,0,0-.26,0,.86.86,0,0,0-.28,0,1.23,1.23,0,0,0-.26.12.86.86,0,0,0-.19.19.62.62,0,0,0-.09.25.7.7,0,0,0,0,.31.66.66,0,0,0,.13.25.5.5,0,0,0,.2.15.55.55,0,0,0,.26.06A.85.85,0,0,0,302,363.09Z" transform="translate(-227.06 -318.65)"/><path d="M306.41,359.33a1.14,1.14,0,0,1,0-.45.92.92,0,0,1,.14-.37,1.1,1.1,0,0,1,.28-.29,1.5,1.5,0,0,1,.38-.19,1.58,1.58,0,0,1,.42-.06,1,1,0,0,1,.37.08.69.69,0,0,1,.28.2.88.88,0,0,1,.19.34,1.17,1.17,0,0,1,0,.3.75.75,0,0,1,0,.26.7.7,0,0,1-.14.21.3.3,0,1,0,.38.32.86.86,0,0,1,.33.47,1,1,0,0,1,0,.44,1.06,1.06,0,0,1-.14.4,1,1,0,0,1-.3.31,1.44,1.44,0,0,1-.41.21,1.47,1.47,0,0,1-.48.07.92.92,0,0,1-.38-.08,1,1,0,0,1-.31-.21,2,2,0,0,1-.25-.31l.16-.13a.18.18,0,0,1,.13-.06.13.13,0,0,1,.12,0l.13.13a.86.86,0,0,0,.18.14.82.82,0,0,0,.25.08.8.8,0,0,0,.33,0,.73.73,0,0,0,.29-.16.6.6,0,0,0,.18-.21.78.78,0,0,0,.07-.25.61.61,0,0,0,0-.24.88.88,0,0,0-.11-.24.4.4,0,0,0-.19-.15.72.72,0,0,0-.31,0,1.48,1.48,0,0,0-.45.09l-.09-.31a1.27,1.27,0,0,0,.35-.16.81.81,0,0,0,.21-.2.4.4,0,0,0,.08-.23.55.55,0,0,0,0-.25.67.67,0,0,0-.12-.24.49.49,0,0,0-.19-.14.54.54,0,0,0-.22-.05.77.77,0,0,0-.25,0,.76.76,0,0,0-.22.11.64.64,0,0,0-.16.17.4.4,0,0,0-.09.2.58.58,0,0,0,0,.23.22.22,0,0,1,0,.13.23.23,0,0,1-.13.06Z" transform="translate(-227.06 -318.65)"/><path d="M311.91,360l.1.32-1.81.57-.1-.32.72-.23-.72-2.3-.06-.21-.44.7-.05.05-.06,0h-.05l-.05,0-.18-.14.73-1.19.34-.1,1,3.06Z" transform="translate(-227.06 -318.65)"/><path d="M318.05,358l.1.32-1.81.57-.1-.32.73-.23-.72-2.3a.79.79,0,0,1-.06-.22l-.44.71-.05.05-.06,0h-.06l0,0-.19-.14.74-1.18.34-.11,1,3.07Z" transform="translate(-227.06 -318.65)"/><path d="M324.1,356.06a.16.16,0,0,1,.12,0,.13.13,0,0,1,.07.09l.08.26-2.25.7-.05-.14a.34.34,0,0,1,0-.1l0-.11.75-1.42L323,355a2,2,0,0,0,.11-.32,1.45,1.45,0,0,0,0-.29,1,1,0,0,0,0-.29.59.59,0,0,0-.13-.25.52.52,0,0,0-.18-.15.59.59,0,0,0-.23,0l-.25,0a.78.78,0,0,0-.22.12.49.49,0,0,0-.16.16.4.4,0,0,0-.09.2.6.6,0,0,0,0,.23.2.2,0,0,1,0,.13.23.23,0,0,1-.13.06l-.23,0a1.14,1.14,0,0,1,0-.45,1,1,0,0,1,.14-.37,1.07,1.07,0,0,1,.28-.28,1,1,0,0,1,.38-.19,1.23,1.23,0,0,1,.42-.07,1.12,1.12,0,0,1,.38.09.87.87,0,0,1,.31.23.88.88,0,0,1,.2.37,1,1,0,0,1,.05.37,1.34,1.34,0,0,1-.05.35,2.67,2.67,0,0,1-.14.36,3,3,0,0,1-.18.36l-.6,1.19.18-.1a.67.67,0,0,1,.18-.07Z" transform="translate(-227.06 -318.65)"/><path d="M325.93,354a1.06,1.06,0,0,1,.58.15.9.9,0,0,1,.34.48.93.93,0,0,1,0,.43.88.88,0,0,1-.14.38,1.07,1.07,0,0,1-.3.3,1.38,1.38,0,0,1-.44.21,1.42,1.42,0,0,1-.48.08,1.08,1.08,0,0,1-.42-.08.86.86,0,0,1-.33-.23,1,1,0,0,1-.21-.37.85.85,0,0,1,0-.59,1,1,0,0,1,.39-.46.81.81,0,0,1-.49-.17.79.79,0,0,1-.28-.42,1,1,0,0,1,0-.37,1,1,0,0,1,.12-.35.89.89,0,0,1,.26-.29,1.25,1.25,0,0,1,.4-.2,1.14,1.14,0,0,1,.44-.06.92.92,0,0,1,.38.08,1.11,1.11,0,0,1,.3.22,1,1,0,0,1,.18.33.81.81,0,0,1,0,.51A.83.83,0,0,1,325.93,354Zm-.9-1.18a1.17,1.17,0,0,0-.25.13.6.6,0,0,0-.15.18.43.43,0,0,0-.06.22,1,1,0,0,0,0,.24,1,1,0,0,0,.1.21.52.52,0,0,0,.17.16.56.56,0,0,0,.23.07.81.81,0,0,0,.3,0,.86.86,0,0,0,.27-.14.66.66,0,0,0,.14-.2.54.54,0,0,0,.05-.22.67.67,0,0,0,0-.24.71.71,0,0,0-.11-.21.39.39,0,0,0-.17-.14.44.44,0,0,0-.23-.06A.71.71,0,0,0,325,352.81Zm.88,2.8a1,1,0,0,0,.28-.14.57.57,0,0,0,.18-.2.68.68,0,0,0,.08-.24,1,1,0,0,0,0-.28.63.63,0,0,0-.15-.28.54.54,0,0,0-.22-.15.55.55,0,0,0-.26,0,1,1,0,0,0-.28,0,1.15,1.15,0,0,0-.25.12.69.69,0,0,0-.19.19.5.5,0,0,0-.09.25.68.68,0,0,0,0,.31.84.84,0,0,0,.13.25.55.55,0,0,0,.2.15.77.77,0,0,0,.27.07A1.24,1.24,0,0,0,325.91,355.61Z" transform="translate(-227.06 -318.65)"/><path d="M289.17,376l.1.32-1.81.56-.1-.32.72-.22-.72-2.31-.06-.21-.44.7a.1.1,0,0,1-.05.06h-.11l0,0-.19-.14.74-1.18.34-.11,1,3.06Z" transform="translate(-227.06 -318.65)"/><path d="M291.91,375.13l.1.32-1.81.57-.1-.32.72-.23-.72-2.3L290,373l-.44.71-.05,0-.06,0h-.1l-.18-.14.73-1.19.34-.11,1,3.07Z" transform="translate(-227.06 -318.65)"/><path d="M296.64,373.56a.16.16,0,0,1,.12,0,.13.13,0,0,1,.07.09l.09.26-2.26.7,0-.14a.16.16,0,0,1,0-.1.23.23,0,0,1,0-.11l.74-1.42c.06-.12.12-.24.16-.34a1.45,1.45,0,0,0,.11-.31,1.08,1.08,0,0,0,0-.3,1,1,0,0,0,0-.29.73.73,0,0,0-.13-.25.62.62,0,0,0-.19-.14.42.42,0,0,0-.22-.05,1,1,0,0,0-.25,0,.71.71,0,0,0-.23.12.49.49,0,0,0-.16.16.72.72,0,0,0-.09.2.6.6,0,0,0,0,.23.2.2,0,0,1,0,.14.32.32,0,0,1-.13.05l-.23,0a1.08,1.08,0,0,1,0-.44,1,1,0,0,1,.15-.38,1,1,0,0,1,.27-.28,1.23,1.23,0,0,1,.38-.19,1.07,1.07,0,0,1,.42-.06,1,1,0,0,1,.39.08.93.93,0,0,1,.3.23.88.88,0,0,1,.2.37,1.24,1.24,0,0,1,.06.37,2,2,0,0,1-.06.35,2.6,2.6,0,0,1-.13.36l-.18.36-.61,1.19.18-.1.18-.07Z" transform="translate(-227.06 -318.65)"/><path d="M299.39,371.8l.08.24a.08.08,0,0,1,0,.07.1.1,0,0,1-.06.05l-.42.13.27.89-.36.12-.28-.89-1.5.47a.14.14,0,0,1-.09,0,.12.12,0,0,1-.07-.05l-.11-.2,1-2.7.4-.12.67,2.16Zm-.88.28-.43-1.4s0-.08,0-.13l0-.16-.71,2.07Z" transform="translate(-227.06 -318.65)"/><path d="M304.31,371.25l.1.32-1.81.57-.1-.32.72-.23-.72-2.3-.06-.22-.44.71a.12.12,0,0,1-.05.05l-.06,0h-.09l-.19-.15.73-1.18.34-.11,1,3.07Z" transform="translate(-227.06 -318.65)"/><path d="M307,370.34a.17.17,0,0,1,.12,0,.11.11,0,0,1,.07.09l.08.25-2.26.71,0-.15a.28.28,0,0,1,0-.09.2.2,0,0,1,0-.11l.74-1.43a3.59,3.59,0,0,0,.17-.34c0-.1.08-.21.11-.31s0-.2,0-.29a1,1,0,0,0-.05-.3.55.55,0,0,0-.13-.24.43.43,0,0,0-.18-.15.59.59,0,0,0-.23-.05.73.73,0,0,0-.25,0,.82.82,0,0,0-.23.11,1.29,1.29,0,0,0-.16.17.72.72,0,0,0-.09.2.87.87,0,0,0,0,.23.22.22,0,0,1-.05.13.2.2,0,0,1-.13.06l-.23,0a1.69,1.69,0,0,1,0-.45,1.11,1.11,0,0,1,.15-.37,1.06,1.06,0,0,1,.27-.29,1.42,1.42,0,0,1,.39-.19,1.52,1.52,0,0,1,.42-.06,1,1,0,0,1,.38.09.84.84,0,0,1,.31.22,1.24,1.24,0,0,1,.2.38.92.92,0,0,1,.05.36,1.13,1.13,0,0,1-.06.36,1.74,1.74,0,0,1-.13.36l-.18.36-.61,1.19.18-.1.18-.08Z" transform="translate(-227.06 -318.65)"/><path d="M310.48,367a1.14,1.14,0,0,1,0-.45,1,1,0,0,1,.14-.38,1.24,1.24,0,0,1,.28-.28,1.18,1.18,0,0,1,.39-.19,1,1,0,0,1,.41-.06.9.9,0,0,1,.37.07,1,1,0,0,1,.29.21.88.88,0,0,1,.18.33,1.17,1.17,0,0,1,0,.3.71.71,0,0,1,0,.26,1,1,0,0,1-.13.22.91.91,0,0,1-.21.18,1,1,0,0,1,.58.14.79.79,0,0,1,.33.46,1,1,0,0,1,0,.45.92.92,0,0,1-.14.39,1.1,1.1,0,0,1-.29.32,1.36,1.36,0,0,1-.42.2,1.5,1.5,0,0,1-.48.08,1.12,1.12,0,0,1-.38-.08,1.29,1.29,0,0,1-.3-.22,1.87,1.87,0,0,1-.26-.3l.16-.13a.18.18,0,0,1,.13-.06.13.13,0,0,1,.12,0l.13.14a.86.86,0,0,0,.18.14.92.92,0,0,0,.25.08.79.79,0,0,0,.33,0,.86.86,0,0,0,.3-.16.71.71,0,0,0,.24-.46.62.62,0,0,0,0-.24.9.9,0,0,0-.12-.24.43.43,0,0,0-.19-.16.71.71,0,0,0-.31,0,1.37,1.37,0,0,0-.44.09l-.1-.31a1.65,1.65,0,0,0,.35-.16.58.58,0,0,0,.21-.2.4.4,0,0,0,.08-.23.6.6,0,0,0,0-.26.9.9,0,0,0-.12-.24.62.62,0,0,0-.19-.14.51.51,0,0,0-.22,0,.77.77,0,0,0-.25,0,.57.57,0,0,0-.22.11.61.61,0,0,0-.16.16.78.78,0,0,0-.09.21.55.55,0,0,0,0,.22.23.23,0,0,1,0,.14.22.22,0,0,1-.13.05Z" transform="translate(-227.06 -318.65)"/><path d="M316.68,365a1.13,1.13,0,0,1,0-.45,1,1,0,0,1,.15-.38,1,1,0,0,1,.27-.28,1.18,1.18,0,0,1,.39-.19,1,1,0,0,1,.41-.06.9.9,0,0,1,.37.07,1,1,0,0,1,.29.21,1,1,0,0,1,.18.33,1.17,1.17,0,0,1,.05.3.71.71,0,0,1-.05.26,1,1,0,0,1-.13.22,1.29,1.29,0,0,1-.21.19.9.9,0,0,1,.58.13.79.79,0,0,1,.33.46.89.89,0,0,1,0,.45.92.92,0,0,1-.14.39,1.1,1.1,0,0,1-.29.32,1.36,1.36,0,0,1-.42.2,1.5,1.5,0,0,1-.48.08,1.12,1.12,0,0,1-.38-.08,1.29,1.29,0,0,1-.3-.22,2.55,2.55,0,0,1-.26-.3l.16-.13a.19.19,0,0,1,.13-.06.16.16,0,0,1,.13,0l.12.14a.59.59,0,0,0,.18.13.92.92,0,0,0,.25.09.79.79,0,0,0,.33,0,.86.86,0,0,0,.3-.16.7.7,0,0,0,.24-.47.58.58,0,0,0,0-.23.9.9,0,0,0-.12-.24.43.43,0,0,0-.19-.16.71.71,0,0,0-.31,0,1.37,1.37,0,0,0-.44.09l-.1-.31a1.27,1.27,0,0,0,.35-.16.58.58,0,0,0,.21-.2.4.4,0,0,0,.08-.23.6.6,0,0,0,0-.26.9.9,0,0,0-.12-.24.62.62,0,0,0-.19-.14.51.51,0,0,0-.22,0,.77.77,0,0,0-.25,0,.57.57,0,0,0-.22.11.61.61,0,0,0-.16.16.78.78,0,0,0-.09.21.55.55,0,0,0,0,.22.23.23,0,0,1,0,.14.23.23,0,0,1-.13.06Z" transform="translate(-227.06 -318.65)"/><path d="M321.94,364.23a2.54,2.54,0,0,1,.15.8,2,2,0,0,1-.09.62,1.21,1.21,0,0,1-.29.43,1.13,1.13,0,0,1-.45.26,1.34,1.34,0,0,1-.52.05,1.21,1.21,0,0,1-.49-.2,1.83,1.83,0,0,1-.42-.45,3,3,0,0,1-.34-.74,2.81,2.81,0,0,1-.14-.8,1.5,1.5,0,0,1,.09-.62,1,1,0,0,1,.29-.44,1.1,1.1,0,0,1,.45-.25,1.11,1.11,0,0,1,.51-.05,1.14,1.14,0,0,1,.49.19,1.75,1.75,0,0,1,.43.46A3,3,0,0,1,321.94,364.23Zm-.43.14a2.7,2.7,0,0,0-.27-.63,1.32,1.32,0,0,0-.31-.37.63.63,0,0,0-.32-.15.69.69,0,0,0-.32,0,.73.73,0,0,0-.28.17.64.64,0,0,0-.18.3,1.41,1.41,0,0,0,0,.48,2.87,2.87,0,0,0,.14.67,3.25,3.25,0,0,0,.26.63,1.48,1.48,0,0,0,.31.37.77.77,0,0,0,.32.15.58.58,0,0,0,.32,0,.61.61,0,0,0,.28-.16.67.67,0,0,0,.18-.31,1.36,1.36,0,0,0,0-.47A2.87,2.87,0,0,0,321.51,364.37Z" transform="translate(-227.06 -318.65)"/><path d="M326.28,362.42a3,3,0,0,1,.46-.21,1.51,1.51,0,0,1,.5-.07,1,1,0,0,1,.4.11,1.1,1.1,0,0,1,.31.26,1.23,1.23,0,0,1,.19.38,1.2,1.2,0,0,1,.06.52,1,1,0,0,1-.14.45,1.19,1.19,0,0,1-.31.36,1.37,1.37,0,0,1-.45.23,1.59,1.59,0,0,1-.3.06h-.28l-.25,0a.93.93,0,0,1-.22-.08l.07-.22a.13.13,0,0,1,.09-.1.17.17,0,0,1,.12,0l.17,0a.75.75,0,0,0,.22,0,.8.8,0,0,0,.29-.05,1.05,1.05,0,0,0,.3-.15.88.88,0,0,0,.19-.24,1,1,0,0,0,.08-.3,1.55,1.55,0,0,0,0-.35,1.15,1.15,0,0,0-.14-.27.51.51,0,0,0-.21-.17.6.6,0,0,0-.27-.06.85.85,0,0,0-.34,0,1.58,1.58,0,0,0-.52.26H326l-.22-1.66,1.6-.5.06.18a.25.25,0,0,1,0,.17.31.31,0,0,1-.18.11l-1.06.34Z" transform="translate(-227.06 -318.65)"/><path d="M291.71,384.1l.1.32L290,385l-.1-.32.72-.23-.72-2.3-.06-.21-.44.7a.08.08,0,0,1,0,.05l-.05,0h-.06l0,0-.19-.14.73-1.19.35-.1,1,3.06Z" transform="translate(-227.06 -318.65)"/><path d="M292.6,381.86s0,.09-.05.13,0,.09-.05.13a1.15,1.15,0,0,1,.23-.21,1,1,0,0,1,.3-.14,1.15,1.15,0,0,1,.41,0,.78.78,0,0,1,.37.09,1,1,0,0,1,.32.25,1.17,1.17,0,0,1,.21.4,1.05,1.05,0,0,1,.05.46,1,1,0,0,1-.12.43,1.22,1.22,0,0,1-.3.35,1.38,1.38,0,0,1-.93.29,1,1,0,0,1-.42-.12,1.17,1.17,0,0,1-.34-.29,1.53,1.53,0,0,1-.23-.46,1.54,1.54,0,0,1-.05-.5,2,2,0,0,1,.15-.63l.49-1.43.07-.1a.4.4,0,0,1,.13-.07l.37-.11Zm.81,1.72a.73.73,0,0,0,.29-.15.66.66,0,0,0,.19-.22.69.69,0,0,0,.08-.28.78.78,0,0,0,0-.3.87.87,0,0,0-.14-.29,1.24,1.24,0,0,0-.22-.18.77.77,0,0,0-.27-.07,1.15,1.15,0,0,0-.31,0,.9.9,0,0,0-.29.16.63.63,0,0,0-.18.22.69.69,0,0,0,0,.56.82.82,0,0,0,.14.28.63.63,0,0,0,.21.19.61.61,0,0,0,.27.08A.68.68,0,0,0,293.41,383.58Z" transform="translate(-227.06 -318.65)"/><path d="M299.65,380a.92.92,0,0,1,.58.15.82.82,0,0,1,.33.48,1.08,1.08,0,0,1,.05.43,1,1,0,0,1-.14.37,1.26,1.26,0,0,1-.3.31,1.63,1.63,0,0,1-.44.21,1.73,1.73,0,0,1-.49.08,1.16,1.16,0,0,1-.42-.08,1.23,1.23,0,0,1-.33-.23.92.92,0,0,1-.2-.38.85.85,0,0,1,0-.59,1,1,0,0,1,.39-.45.91.91,0,0,1-.5-.17.88.88,0,0,1-.28-.43.77.77,0,0,1,0-.37A.89.89,0,0,1,298,379a1.45,1.45,0,0,1,.27-.29,1.14,1.14,0,0,1,.4-.19,1.11,1.11,0,0,1,.43-.07,1.24,1.24,0,0,1,.39.09.77.77,0,0,1,.29.22.78.78,0,0,1,.18.32.93.93,0,0,1,0,.52A.89.89,0,0,1,299.65,380Zm-.9-1.18a.59.59,0,0,0-.25.13.55.55,0,0,0-.16.18.79.79,0,0,0-.06.22,1,1,0,0,0,0,.23.91.91,0,0,0,.11.22.57.57,0,0,0,.16.15.49.49,0,0,0,.24.08.63.63,0,0,0,.29,0,.69.69,0,0,0,.27-.14.53.53,0,0,0,.15-.19.59.59,0,0,0,0-.23.91.91,0,0,0,0-.23.7.7,0,0,0-.11-.21.8.8,0,0,0-.17-.15.86.86,0,0,0-.23-.06A1,1,0,0,0,298.75,378.86Zm.87,2.79a.91.91,0,0,0,.28-.13.67.67,0,0,0,.18-.2.57.57,0,0,0,.08-.25.63.63,0,0,0,0-.27.82.82,0,0,0-.15-.28.62.62,0,0,0-.22-.15.58.58,0,0,0-.26-.05.87.87,0,0,0-.28.05,1.23,1.23,0,0,0-.26.12.81.81,0,0,0-.19.18,1.06,1.06,0,0,0-.09.25.74.74,0,0,0,0,.32.62.62,0,0,0,.13.24.53.53,0,0,0,.2.16.55.55,0,0,0,.26.06A.87.87,0,0,0,299.62,381.65Z" transform="translate(-227.06 -318.65)"/><path d="M308.21,378.94l.1.32-1.81.57-.1-.32.73-.23-.72-2.3a1.41,1.41,0,0,1-.06-.22l-.44.71-.05,0-.06,0h-.05l-.05,0-.19-.14.74-1.18.34-.11,1,3.07Z" transform="translate(-227.06 -318.65)"/><path d="M311.65,375.51a1.14,1.14,0,0,1,0-.45.93.93,0,0,1,.15-.37,1.06,1.06,0,0,1,.27-.29,1.42,1.42,0,0,1,.39-.19,1.51,1.51,0,0,1,.41-.06.87.87,0,0,1,.37.08.86.86,0,0,1,.29.21.88.88,0,0,1,.18.33.86.86,0,0,1,.05.3.75.75,0,0,1-.05.26.57.57,0,0,1-.13.21,1.29,1.29,0,0,1-.21.19.93.93,0,0,1,.59.14.79.79,0,0,1,.32.46,1,1,0,0,1,.05.45.93.93,0,0,1-.15.39,1.06,1.06,0,0,1-.29.31,1.38,1.38,0,0,1-.42.21,1.47,1.47,0,0,1-.48.07.92.92,0,0,1-.38-.08,1,1,0,0,1-.3-.21,2,2,0,0,1-.26-.31l.16-.13a.38.38,0,0,1,.13-.06.17.17,0,0,1,.13,0l.12.13a.62.62,0,0,0,.18.14.73.73,0,0,0,.25.08.85.85,0,0,0,.34,0,1.13,1.13,0,0,0,.29-.15.69.69,0,0,0,.17-.22.59.59,0,0,0,.07-.25.63.63,0,0,0,0-.24.9.9,0,0,0-.12-.24.41.41,0,0,0-.19-.15.69.69,0,0,0-.31-.05,2.29,2.29,0,0,0-.44.09l-.1-.3a1.73,1.73,0,0,0,.36-.17.81.81,0,0,0,.21-.2.63.63,0,0,0,.08-.23.77.77,0,0,0,0-.25.67.67,0,0,0-.12-.24.59.59,0,0,0-.18-.14.59.59,0,0,0-.23,0,.67.67,0,0,0-.24,0,.82.82,0,0,0-.23.11.64.64,0,0,0-.16.17.72.72,0,0,0-.09.2.86.86,0,0,0,0,.23c0,.06,0,.11,0,.13a.2.2,0,0,1-.13.06Z" transform="translate(-227.06 -318.65)"/><path d="M316.92,374.71a2.87,2.87,0,0,1,.14.8,1.89,1.89,0,0,1-.09.62,1.09,1.09,0,0,1-.74.69,1.17,1.17,0,0,1-.52.05,1.1,1.1,0,0,1-.48-.19,1.6,1.6,0,0,1-.43-.46,3.2,3.2,0,0,1-.34-.74,2.75,2.75,0,0,1-.14-.79,1.55,1.55,0,0,1,.09-.63,1.09,1.09,0,0,1,.29-.44,1.22,1.22,0,0,1,.45-.25,1.27,1.27,0,0,1,.51-.05,1.16,1.16,0,0,1,.49.2,1.6,1.6,0,0,1,.43.46A3.11,3.11,0,0,1,316.92,374.71Zm-.44.14a2.7,2.7,0,0,0-.27-.63,1.71,1.71,0,0,0-.3-.37.81.81,0,0,0-.33-.15.69.69,0,0,0-.32,0,.61.61,0,0,0-.28.16.73.73,0,0,0-.18.31,1.41,1.41,0,0,0,0,.48,2.87,2.87,0,0,0,.14.67,2.8,2.8,0,0,0,.27.62,1.17,1.17,0,0,0,.3.37.59.59,0,0,0,.32.15.73.73,0,0,0,.33,0,.74.74,0,0,0,.27-.16.65.65,0,0,0,.19-.31,1.41,1.41,0,0,0,0-.48A2.87,2.87,0,0,0,316.48,374.85Z" transform="translate(-227.06 -318.65)"/><path d="M322,374.63l.1.32-1.81.57-.1-.32.73-.23-.72-2.3a.83.83,0,0,1-.06-.21l-.44.7-.05,0-.06,0h-.05l0,0-.19-.14.74-1.19.34-.11,1,3.07Z" transform="translate(-227.06 -318.65)"/><path d="M324.72,373.78l.1.32-1.81.56-.1-.32.72-.22-.72-2.31-.06-.21-.44.7s0,0-.05.06h-.11l0,0-.19-.14.73-1.18.34-.11,1,3.06Z" transform="translate(-227.06 -318.65)"/><path d="M330.11,368.73l.06.19a.24.24,0,0,1,0,.14v.1l-.52,3.26a.69.69,0,0,1-.05.13.25.25,0,0,1-.13.09l-.3.09.54-3.23,0-.13s0-.08,0-.12l-1.76.56a.11.11,0,0,1-.08,0,.12.12,0,0,1,0-.07l-.09-.28Z" transform="translate(-227.06 -318.65)"/><path d="M294.32,391.07l.06-.16c0-.05,0-.1,0-.15a.82.82,0,0,1-.24.25,1.26,1.26,0,0,1-.33.16,1,1,0,0,1-.38.05,1.06,1.06,0,0,1-.36-.09,1.13,1.13,0,0,1-.3-.24,1.22,1.22,0,0,1-.21-.39,1.35,1.35,0,0,1-.05-.44,1.16,1.16,0,0,1,.13-.41,1.13,1.13,0,0,1,.28-.34,1.17,1.17,0,0,1,.43-.22,1.27,1.27,0,0,1,.46-.06.93.93,0,0,1,.41.12,1,1,0,0,1,.33.27,1.39,1.39,0,0,1,.28.71,2.62,2.62,0,0,1,0,.28,2.93,2.93,0,0,1-.05.29c0,.1-.05.2-.08.3l-.45,1.45a.36.36,0,0,1-.07.1.35.35,0,0,1-.12.07l-.39.12Zm-1.31-.73a1,1,0,0,0,.14.27.65.65,0,0,0,.2.17.66.66,0,0,0,.25.07,1,1,0,0,0,.29,0,.92.92,0,0,0,.28-.15.73.73,0,0,0,.18-.22.77.77,0,0,0,.07-.26,1.15,1.15,0,0,0,0-.26.86.86,0,0,0-.14-.27.68.68,0,0,0-.21-.17.61.61,0,0,0-.26-.08,1,1,0,0,0-.29,0,.72.72,0,0,0-.26.14.6.6,0,0,0-.18.21.56.56,0,0,0-.07.26A.74.74,0,0,0,293,390.34Z" transform="translate(-227.06 -318.65)"/><path d="M301.49,389.87a.13.13,0,0,1,.12,0,.11.11,0,0,1,.07.09l.08.25-2.25.71-.05-.15a.31.31,0,0,1,0-.1.19.19,0,0,1,0-.1l.74-1.43a3.59,3.59,0,0,0,.17-.34c0-.1.08-.21.11-.31a1.55,1.55,0,0,0,0-.29,1,1,0,0,0-.05-.3.55.55,0,0,0-.13-.24.43.43,0,0,0-.18-.15.59.59,0,0,0-.23,0,.77.77,0,0,0-.25,0,.82.82,0,0,0-.23.11.87.87,0,0,0-.16.17.72.72,0,0,0-.09.2.87.87,0,0,0,0,.23.17.17,0,0,1,0,.13.2.2,0,0,1-.13.06l-.23,0a1.69,1.69,0,0,1,0-.45,1.11,1.11,0,0,1,.15-.37,1.06,1.06,0,0,1,.27-.29,1.57,1.57,0,0,1,.39-.19,1.52,1.52,0,0,1,.42-.06.82.82,0,0,1,.38.09.84.84,0,0,1,.31.22,1.1,1.1,0,0,1,.2.37,1,1,0,0,1,.05.37,1.13,1.13,0,0,1-.06.36,1.48,1.48,0,0,1-.13.35c0,.12-.11.24-.18.37L300,390.4l.18-.1.18-.08Z" transform="translate(-227.06 -318.65)"/><path d="M304.08,387.64a2.54,2.54,0,0,1,.15.8,2,2,0,0,1-.09.62,1.21,1.21,0,0,1-.29.43,1.26,1.26,0,0,1-.45.26,1.16,1.16,0,0,1-.52,0,1.07,1.07,0,0,1-.49-.19,1.72,1.72,0,0,1-.42-.46,2.76,2.76,0,0,1-.34-.73,2.87,2.87,0,0,1-.14-.8,1.5,1.5,0,0,1,.09-.62,1,1,0,0,1,.29-.44,1.11,1.11,0,0,1,.45-.26,1.26,1.26,0,0,1,.51,0,1.14,1.14,0,0,1,.49.19,1.75,1.75,0,0,1,.43.46A2.83,2.83,0,0,1,304.08,387.64Zm-.43.14a2.7,2.7,0,0,0-.27-.63,1.19,1.19,0,0,0-.31-.37.56.56,0,0,0-.32-.15.69.69,0,0,0-.32,0,.71.71,0,0,0-.28.16.73.73,0,0,0-.18.31,1.41,1.41,0,0,0,0,.48,2.87,2.87,0,0,0,.14.67,3.25,3.25,0,0,0,.26.63,1.48,1.48,0,0,0,.31.37.77.77,0,0,0,.32.15.74.74,0,0,0,.33,0,.63.63,0,0,0,.27-.16.64.64,0,0,0,.18-.31,1.39,1.39,0,0,0,.05-.48A2.8,2.8,0,0,0,303.65,387.78Z" transform="translate(-227.06 -318.65)"/><path d="M309.14,387.56l.1.32-1.81.57-.1-.32.72-.23-.72-2.3a1.42,1.42,0,0,1-.05-.22l-.45.71a.12.12,0,0,1-.05.05l0,0h-.06l0,0-.19-.14.74-1.18.34-.11,1,3.07Z" transform="translate(-227.06 -318.65)"/><path d="M311.07,383.6l.06.19a.83.83,0,0,1,0,.13.28.28,0,0,1,0,.1l-.51,3.26a.26.26,0,0,1-.06.13s-.07.07-.13.09l-.3.1.55-3.23,0-.13s0-.08,0-.12l-1.76.55a.08.08,0,0,1-.08,0,.09.09,0,0,1-.06-.06l-.09-.28Z" transform="translate(-227.06 -318.65)"/><path d="M318,383.81l.07.24a.08.08,0,0,1,0,.07s0,0-.06.05l-.42.13.28.88-.37.12-.28-.89-1.5.47h-.09a.13.13,0,0,1-.07-.06l-.1-.2,1-2.69.39-.13.67,2.17Zm-.88.27-.44-1.39a1,1,0,0,0,0-.14l0-.15-.71,2.06Z" transform="translate(-227.06 -318.65)"/><path d="M322.86,380.91a1.14,1.14,0,0,1,0-.45.85.85,0,0,1,.15-.37,1.23,1.23,0,0,1,.27-.29,1.17,1.17,0,0,1,.39-.18,1.22,1.22,0,0,1,.41-.07,1.11,1.11,0,0,1,.37.08.86.86,0,0,1,.29.21.88.88,0,0,1,.18.33.86.86,0,0,1,.05.3.75.75,0,0,1-.05.26,1,1,0,0,1-.13.22,1.24,1.24,0,0,1-.21.18,1,1,0,0,1,.59.14.82.82,0,0,1,.32.46,1,1,0,0,1,.05.45.93.93,0,0,1-.15.39,1.06,1.06,0,0,1-.29.31,1.38,1.38,0,0,1-.42.21,1.5,1.5,0,0,1-.48.08,1.12,1.12,0,0,1-.38-.09,1,1,0,0,1-.3-.21,2.55,2.55,0,0,1-.26-.3l.16-.14a.24.24,0,0,1,.13-.05.13.13,0,0,1,.13,0l.12.14a.83.83,0,0,0,.18.13.67.67,0,0,0,.25.08.7.7,0,0,0,.34,0,.89.89,0,0,0,.29-.15.87.87,0,0,0,.17-.22.72.72,0,0,0,.07-.25.58.58,0,0,0,0-.23.67.67,0,0,0-.12-.24.43.43,0,0,0-.19-.16.87.87,0,0,0-.31-.05,2.29,2.29,0,0,0-.44.09l-.1-.3a1.75,1.75,0,0,0,.36-.16.75.75,0,0,0,.2-.2.55.55,0,0,0,.09-.23.78.78,0,0,0,0-.26.67.67,0,0,0-.12-.24.73.73,0,0,0-.18-.14.59.59,0,0,0-.23,0,.74.74,0,0,0-.25,0,.78.78,0,0,0-.22.12.49.49,0,0,0-.16.16.72.72,0,0,0-.09.2.6.6,0,0,0,0,.23.26.26,0,0,1,0,.14.32.32,0,0,1-.13.05Z" transform="translate(-227.06 -318.65)"/><path d="M329.05,379a1.36,1.36,0,0,1,0-.45,1,1,0,0,1,.15-.38,1,1,0,0,1,.27-.28,1.18,1.18,0,0,1,.39-.19,1,1,0,0,1,.41-.06.87.87,0,0,1,.37.07.86.86,0,0,1,.29.21.85.85,0,0,1,.18.34.79.79,0,0,1,.05.3.7.7,0,0,1-.05.25.71.71,0,0,1-.13.22,1.29,1.29,0,0,1-.21.19.93.93,0,0,1,.59.13.82.82,0,0,1,.32.46,1,1,0,0,1,.05.45.88.88,0,0,1-.15.39,1.1,1.1,0,0,1-.29.32,1.36,1.36,0,0,1-.42.2,1.5,1.5,0,0,1-.48.08,1.12,1.12,0,0,1-.38-.08,1.29,1.29,0,0,1-.3-.22,2.55,2.55,0,0,1-.26-.3l.16-.13a.2.2,0,0,1,.14-.06.15.15,0,0,1,.12,0l.12.14a.86.86,0,0,0,.18.14,1,1,0,0,0,.25.08.85.85,0,0,0,.34,0,.81.81,0,0,0,.29-.16.6.6,0,0,0,.17-.22.55.55,0,0,0,.07-.24.62.62,0,0,0,0-.24.9.9,0,0,0-.12-.24.43.43,0,0,0-.19-.16.71.71,0,0,0-.31,0,1.65,1.65,0,0,0-.44.08l-.1-.3a1.54,1.54,0,0,0,.36-.16.81.81,0,0,0,.21-.2.63.63,0,0,0,.08-.23.82.82,0,0,0,0-.26.9.9,0,0,0-.12-.24.38.38,0,0,0-.18-.13.46.46,0,0,0-.23-.05.67.67,0,0,0-.24,0,.61.61,0,0,0-.23.11.81.81,0,0,0-.16.16.78.78,0,0,0-.09.21.82.82,0,0,0,0,.22.18.18,0,0,1,0,.14s-.07,0-.13.06Z" transform="translate(-227.06 -318.65)"/><path d="M332.71,378.22a.69.69,0,0,0,0,.13,1.12,1.12,0,0,0-.05.13,1.1,1.1,0,0,1,.22-.21,2.09,2.09,0,0,1,.3-.14,1.18,1.18,0,0,1,.41-.05,1,1,0,0,1,.38.09.93.93,0,0,1,.31.25,1.08,1.08,0,0,1,.22.41,1.19,1.19,0,0,1,.05.46,1.15,1.15,0,0,1-.42.77,1.28,1.28,0,0,1-.45.23,1.38,1.38,0,0,1-.48.06,1,1,0,0,1-.43-.12,1.17,1.17,0,0,1-.34-.29,1.57,1.57,0,0,1-.22-.45,1.2,1.2,0,0,1-.05-.51,2.33,2.33,0,0,1,.14-.63l.5-1.42a.23.23,0,0,1,.07-.1.25.25,0,0,1,.12-.08l.37-.11Zm.81,1.72a.73.73,0,0,0,.29-.15.79.79,0,0,0,.19-.22.9.9,0,0,0,.08-.28,1,1,0,0,0,0-.3.75.75,0,0,0-.15-.28.55.55,0,0,0-.22-.18.61.61,0,0,0-.27-.08.79.79,0,0,0-.3.05.67.67,0,0,0-.29.15.83.83,0,0,0-.19.23.77.77,0,0,0-.07.27.65.65,0,0,0,0,.28,1,1,0,0,0,.14.28.63.63,0,0,0,.21.19.5.5,0,0,0,.27.08A.74.74,0,0,0,333.52,379.94Z" transform="translate(-227.06 -318.65)"/><path class="cls-15" d="M281.22,346l.36,1.13-5.65,1.77-3.12-10,1.34-.42,2.76,8.83Z" transform="translate(-227.06 -318.65)"/><path class="cls-15" d="M291.36,338.6a6.14,6.14,0,0,1,.29,2.16,5,5,0,0,1-.5,1.93,4.73,4.73,0,0,1-1.23,1.53,5.81,5.81,0,0,1-4,1.25,4.62,4.62,0,0,1-1.88-.56,5,5,0,0,1-1.51-1.29,6,6,0,0,1-1-1.95,5.86,5.86,0,0,1-.29-2.16,5,5,0,0,1,.5-1.93A4.73,4.73,0,0,1,283,336a5.54,5.54,0,0,1,1.88-1,5.43,5.43,0,0,1,2.12-.25,4.68,4.68,0,0,1,1.89.57,4.86,4.86,0,0,1,1.5,1.3A6.14,6.14,0,0,1,291.36,338.6ZM290,339a5.61,5.61,0,0,0-.77-1.57,3.7,3.7,0,0,0-1.09-1,3.39,3.39,0,0,0-1.36-.43,4,4,0,0,0-1.54.19,3.9,3.9,0,0,0-1.37.73,3.29,3.29,0,0,0-.88,1.12,3.6,3.6,0,0,0-.32,1.46,5.14,5.14,0,0,0,.26,1.72,5.23,5.23,0,0,0,.77,1.57,3.62,3.62,0,0,0,1.1,1,3.29,3.29,0,0,0,1.35.42,4.31,4.31,0,0,0,2.91-.91,3.39,3.39,0,0,0,.88-1.12,3.77,3.77,0,0,0,.32-1.46A5.45,5.45,0,0,0,290,339Z" transform="translate(-227.06 -318.65)"/><path class="cls-15" d="M299.48,331.83l-3.22,1,2.76,8.83-1.34.42-2.76-8.83-3.24,1-.35-1.13,7.8-2.44Z" transform="translate(-227.06 -318.65)"/><path class="cls-15" d="M308.8,328.91l-3.22,1,2.76,8.83-1.34.42-2.76-8.83-3.24,1-.35-1.13,7.8-2.44Z" transform="translate(-227.06 -318.65)"/><path class="cls-15" d="M321.35,329.22a5.86,5.86,0,0,1,.29,2.16,4.87,4.87,0,0,1-.5,1.92,4.62,4.62,0,0,1-1.22,1.53,5.34,5.34,0,0,1-1.89,1,5.45,5.45,0,0,1-2.12.26,4.78,4.78,0,0,1-1.88-.56,5,5,0,0,1-1.5-1.3,6,6,0,0,1-1-1.94,6.17,6.17,0,0,1-.29-2.17,4.92,4.92,0,0,1,.5-1.92,4.76,4.76,0,0,1,1.22-1.54,5.37,5.37,0,0,1,1.88-1,5.3,5.3,0,0,1,2.13-.25,4.78,4.78,0,0,1,1.88.56,5.15,5.15,0,0,1,1.51,1.3A6,6,0,0,1,321.35,329.22Zm-1.38.43a5.23,5.23,0,0,0-.77-1.57,3.58,3.58,0,0,0-1.09-1,3.15,3.15,0,0,0-1.36-.43,4,4,0,0,0-1.54.19,3.81,3.81,0,0,0-1.37.72,3.18,3.18,0,0,0-.87,1.13,3.72,3.72,0,0,0-.33,1.45,5.5,5.5,0,0,0,.27,1.73,5.16,5.16,0,0,0,.76,1.56,3.61,3.61,0,0,0,1.1,1,3.14,3.14,0,0,0,1.36.42,4.22,4.22,0,0,0,2.91-.91,3.15,3.15,0,0,0,.87-1.12,3.55,3.55,0,0,0,.32-1.45A5.14,5.14,0,0,0,320,329.65Z" transform="translate(-227.06 -318.65)"/><polygon class="cls-17" points="68.89 79.67 68.97 79.92 71.01 79.28 70.93 79.03 68.89 79.67"/><polygon class="cls-17" points="65.23 80.81 65.31 81.06 67.35 80.43 67.27 80.17 65.23 80.81"/><polygon class="cls-17" points="61.59 81.95 61.66 82.2 63.7 81.57 63.63 81.31 61.59 81.95"/><polygon class="cls-17" points="79.88 76.23 79.95 76.48 81.99 75.84 81.92 75.59 79.88 76.23"/><polygon class="cls-17" points="76.22 77.37 76.3 77.63 78.34 76.99 78.26 76.74 76.22 77.37"/><polygon class="cls-17" points="72.57 78.52 72.65 78.77 74.69 78.13 74.61 77.88 72.57 78.52"/><polygon class="cls-17" points="90.86 72.79 90.94 73.04 92.98 72.41 92.9 72.15 90.86 72.79"/><polygon class="cls-17" points="87.2 73.94 87.28 74.19 89.32 73.55 89.25 73.3 87.2 73.94"/><polygon class="cls-17" points="83.56 75.08 83.64 75.33 85.68 74.69 85.6 74.44 83.56 75.08"/><rect class="cls-15" x="328.9" y="387.68" width="2.14" height="0.26" transform="translate(-328.09 -201.99) rotate(-17.43)"/><polygon class="cls-17" points="98.19 70.5 98.27 70.75 100.31 70.11 100.23 69.86 98.19 70.5"/><polygon class="cls-17" points="94.55 71.64 94.63 71.89 96.67 71.25 96.59 71 94.55 71.64"/><rect class="cls-15" x="339.89" y="384.25" width="2.14" height="0.26" transform="translate(-325.59 -200.44) rotate(-17.23)"/><rect class="cls-15" x="336.23" y="385.39" width="2.14" height="0.26" transform="translate(-326.73 -200.44) rotate(-17.36)"/><rect class="cls-15" x="332.58" y="386.53" width="2.14" height="0.26" transform="translate(-327.24 -201.47) rotate(-17.36)"/><rect x="297.27" y="402.06" width="0.53" height="6.92" transform="translate(-334.58 -211.3) rotate(-17.37)"/><polygon points="71.04 90.32 70.78 90.4 68.72 83.79 68.97 83.72 71.04 90.32"/><rect x="298.25" y="401.8" width="0.27" height="6.92" transform="translate(-334.49 -211.03) rotate(-17.38)"/><rect x="298.77" y="401.64" width="0.27" height="6.92" transform="translate(-334.41 -210.88) rotate(-17.38)"/><rect x="299.55" y="401.35" width="0.53" height="6.92" transform="translate(-334.26 -210.65) rotate(-17.37)"/><rect x="300.68" y="400.99" width="0.56" height="6.92" transform="translate(-334.16 -210.26) rotate(-17.38)"/><rect x="301.66" y="400.73" width="0.3" height="6.92" transform="translate(-334.26 -209.71) rotate(-17.43)"/><rect x="302.18" y="400.56" width="0.3" height="6.92" transform="translate(-334.19 -209.56) rotate(-17.43)"/><rect x="302.89" y="400.28" width="0.68" height="6.92" transform="translate(-333.62 -209.91) rotate(-17.34)"/><rect x="304.21" y="399.93" width="0.33" height="6.92" transform="matrix(0.95, -0.3, 0.3, 0.95, -333.83, -209.08)"/><rect x="305.11" y="399.57" width="0.79" height="6.92" transform="translate(-333.73 -208.67) rotate(-17.43)"/><polygon points="80.4 87.39 80.16 87.46 78.1 80.86 78.33 80.79 80.4 87.39"/><rect x="306.62" y="399.18" width="0.25" height="6.92" transform="translate(-333.24 -208.76) rotate(-17.36)"/><rect x="307.06" y="399.04" width="0.25" height="6.92" transform="translate(-333.5 -208.19) rotate(-17.43)"/><rect x="323.13" y="393.95" width="0.69" height="6.92" transform="translate(-330.76 -204.25) rotate(-17.33)"/><rect x="324.27" y="393.62" width="0.53" height="6.92" transform="translate(-330.68 -203.84) rotate(-17.35)"/><rect x="325.24" y="393.35" width="0.27" height="6.92" transform="translate(-330.76 -203.31) rotate(-17.39)"/><rect x="325.76" y="393.19" width="0.27" height="6.92" transform="translate(-330.69 -203.16) rotate(-17.39)"/><rect x="326.71" y="392.85" width="0.53" height="6.92" transform="translate(-330.5 -202.91) rotate(-17.38)"/><rect x="327.54" y="392.61" width="0.43" height="6.92" transform="translate(-330.49 -202.54) rotate(-17.4)"/><rect x="328.65" y="392.28" width="0.3" height="6.92" transform="translate(-330.21 -202.45) rotate(-17.37)"/><rect x="329.18" y="392.12" width="0.3" height="6.92" transform="translate(-330.13 -202.3) rotate(-17.37)"/><rect x="329.94" y="391.84" width="0.58" height="6.92" transform="translate(-330.07 -201.95) rotate(-17.38)"/><polygon points="105.09 79.66 104.78 79.76 102.72 73.16 103.03 73.06 105.09 79.66"/><rect x="331.55" y="391.32" width="0.62" height="6.92" transform="translate(-329.95 -201.32) rotate(-17.4)"/><rect x="332.53" y="391.07" width="0.25" height="6.92" transform="translate(-329.94 -200.93) rotate(-17.43)"/><rect x="332.98" y="390.94" width="0.25" height="6.92" transform="matrix(0.95, -0.3, 0.3, 0.95, -329.58, -201.28)"/><polygon points="107.63 78.87 107.4 78.94 105.33 72.34 105.57 72.27 107.63 78.87"/><rect x="307.67" y="398.81" width="0.53" height="6.92" transform="translate(-333.13 -208.35) rotate(-17.37)"/><rect x="321.23" y="394.54" width="0.69" height="6.92" transform="translate(520.06 363.48) rotate(162.67)"/><rect x="320.25" y="394.87" width="0.53" height="6.92" transform="translate(-331.38 -204.77) rotate(-17.37)"/><rect x="319.54" y="395.14" width="0.27" height="6.92" transform="translate(-331.52 -204.97) rotate(-17.38)"/><rect x="319.02" y="395.3" width="0.27" height="6.92" transform="translate(-331.6 -205.12) rotate(-17.38)"/><rect x="317.97" y="395.59" width="0.53" height="6.92" transform="translate(-331.65 -205.49) rotate(-17.36)"/><rect x="316.67" y="395.94" width="0.87" height="6.92" transform="translate(-331.76 -205.88) rotate(-17.36)"/><rect x="316.1" y="396.21" width="0.3" height="6.92" transform="translate(-331.95 -206.01) rotate(-17.37)"/><rect x="315.58" y="396.37" width="0.3" height="6.92" transform="translate(-332.03 -206.17) rotate(-17.37)"/><rect x="314.4" y="396.65" width="0.85" height="6.92" transform="translate(-332.17 -206.39) rotate(-17.37)"/><polygon points="85.31 78.6 85.63 78.5 87.69 85.11 87.38 85.2 85.31 78.6"/><rect x="312.35" y="397.34" width="0.56" height="6.92" transform="translate(-332.41 -207.12) rotate(-17.36)"/><rect x="311.62" y="397.62" width="0.25" height="6.92" transform="matrix(0.95, -0.3, 0.3, 0.95, -332.54, -207.34)"/><rect x="311.18" y="397.75" width="0.25" height="6.92" transform="translate(-332.92 -207.01) rotate(-17.43)"/><rect x="310.74" y="397.89" width="0.25" height="6.92" transform="translate(-332.67 -207.59) rotate(-17.36)"/><rect x="309.85" y="398.13" width="0.53" height="6.92" transform="translate(-332.83 -207.72) rotate(-17.37)"/><rect x="308.63" y="398.5" width="0.58" height="6.92" transform="translate(-332.97 -208.09) rotate(-17.37)"/><rect x="334.03" y="390.55" width="0.61" height="6.92" transform="translate(-329.14 -201.35) rotate(-17.31)"/><rect x="335.01" y="390.3" width="0.25" height="6.92" transform="translate(-329.3 -200.69) rotate(-17.36)"/><rect x="335.45" y="390.16" width="0.25" height="6.92" transform="translate(-329.24 -200.57) rotate(-17.36)"/><rect x="335.9" y="390.02" width="0.25" height="6.92" transform="translate(-329.18 -200.44) rotate(-17.36)"/><rect x="336.5" y="389.79" width="0.53" height="6.92" transform="translate(-329.12 -200.15) rotate(-17.37)"/><rect x="337.33" y="389.48" width="0.85" height="6.92" transform="translate(-329.08 -199.72) rotate(-17.39)"/><polygon points="96.4 82.38 96.18 82.45 94.11 75.85 94.34 75.78 96.4 82.38"/><polygon points="96.86 82.24 96.64 82.31 94.57 75.71 94.79 75.64 96.86 82.24"/><g class="cls-18"><path class="cls-19" d="M324,321.46l-.08-.28a3.55,3.55,0,0,0-4.45-2.32l-49.4,15.45a3.54,3.54,0,0,0-2.32,4.44l17.66,56.45Z" transform="translate(-227.06 -318.65)"/></g><path class="cls-20" d="M308.21,361.94h0a.44.44,0,0,1-.19-.6l2.19-4.83a.45.45,0,0,1,.61-.19h0a.44.44,0,0,1,.19.6l-2.2,4.83A.44.44,0,0,1,308.21,361.94Z" transform="translate(-227.06 -318.65)"/><path class="cls-20" d="M312.85,360.86a12.94,12.94,0,0,1-6.45-3.38.44.44,0,0,1,0-.64h0a.44.44,0,0,1,.62,0,12.17,12.17,0,0,0,6,3.11.45.45,0,0,1,.35.5h0A.46.46,0,0,1,312.85,360.86Z" transform="translate(-227.06 -318.65)"/><path class="cls-20" d="M307.43,371.27A12.92,12.92,0,0,1,301,367.9a.46.46,0,0,1,0-.65h0a.46.46,0,0,1,.63,0,12.15,12.15,0,0,0,6,3.11.44.44,0,0,1,.35.49h0A.44.44,0,0,1,307.43,371.27Z" transform="translate(-227.06 -318.65)"/><path class="cls-20" d="M302.78,372.36h0a.45.45,0,0,1-.19-.61l2.2-4.83a.44.44,0,0,1,.6-.19h0a.45.45,0,0,1,.19.61l-2.19,4.83A.46.46,0,0,1,302.78,372.36Z" transform="translate(-227.06 -318.65)"/><path class="cls-20" d="M310,379.82a12.94,12.94,0,0,1-6.45-3.38.45.45,0,0,1,0-.64h0a.44.44,0,0,1,.62,0,12.17,12.17,0,0,0,6,3.11.45.45,0,0,1,.35.5h0A.46.46,0,0,1,310,379.82Z" transform="translate(-227.06 -318.65)"/><path class="cls-20" d="M305.31,380.9h0a.44.44,0,0,1-.19-.6l2.19-4.83a.45.45,0,0,1,.61-.19h0a.44.44,0,0,1,.19.6l-2.2,4.83A.44.44,0,0,1,305.31,380.9Z" transform="translate(-227.06 -318.65)"/><path class="cls-20" d="M304.77,390.24a12.87,12.87,0,0,1-6.45-3.37.46.46,0,0,1,0-.65h0a.46.46,0,0,1,.63,0,12.15,12.15,0,0,0,6,3.11.44.44,0,0,1,.35.49h0A.44.44,0,0,1,304.77,390.24Z" transform="translate(-227.06 -318.65)"/><path class="cls-20" d="M300.12,391.33h0a.46.46,0,0,1-.19-.61l2.2-4.83a.44.44,0,0,1,.6-.19h0a.45.45,0,0,1,.19.61l-2.19,4.83A.45.45,0,0,1,300.12,391.33Z" transform="translate(-227.06 -318.65)"/><path class="cls-20" d="M292.84,376.28a12.9,12.9,0,0,1-6.45-3.37.46.46,0,0,1,0-.65h0a.45.45,0,0,1,.62,0,12.17,12.17,0,0,0,6,3.11.45.45,0,0,1,.35.5h0A.45.45,0,0,1,292.84,376.28Z" transform="translate(-227.06 -318.65)"/><path class="cls-20" d="M288.2,377.37h0a.45.45,0,0,1-.19-.61l2.19-4.83a.46.46,0,0,1,.61-.19h0a.45.45,0,0,1,.19.61l-2.2,4.83A.44.44,0,0,1,288.2,377.37Z" transform="translate(-227.06 -318.65)"/><g class="cls-21"><path class="cls-22" d="M325.26,369.53c0,27.45-5.91,49.7-13.15,49.71S299,397,299.05,369.56s5.91-49.7,13.15-49.71S325.28,342.09,325.26,369.53Z" transform="translate(-227.06 -318.65)"/></g><rect class="cls-23" x="79.67" y="5.16" width="63.49" height="90.94" rx="3.61"/><path class="cls-15" d="M309.52,399.94v9.19a3,3,0,0,0,3,3h51.91a3,3,0,0,0,3-3v-9.19Z" transform="translate(-227.06 -318.65)"/><path class="cls-15" d="M367.43,396.28v-38a3,3,0,0,0-3-3H312.52a3,3,0,0,0-3,3v38Z" transform="translate(-227.06 -318.65)"/><path class="cls-24" d="M367.15,399.94v9.19a2.72,2.72,0,0,1-2.72,2.72h-51.9a2.72,2.72,0,0,1-2.73-2.72v-9.19h-.57v9.19a3.3,3.3,0,0,0,3.3,3.29h51.9a3.3,3.3,0,0,0,3.29-3.29v-9.19Z" transform="translate(-227.06 -318.65)"/><path class="cls-24" d="M364.43,355h-51.9a3.29,3.29,0,0,0-3.3,3.29v38h.57v-38a2.72,2.72,0,0,1,2.73-2.72h51.9a2.72,2.72,0,0,1,2.72,2.72v38h.57v-38A3.29,3.29,0,0,0,364.43,355Z" transform="translate(-227.06 -318.65)"/><path d="M316.87,363.73v.36h-2.05v-.36h.82v-2.61a1.93,1.93,0,0,1,0-.24l-.68.59-.07,0h-.07l-.05,0,0,0-.15-.2,1.14-1h.39v3.47Z" transform="translate(-227.06 -318.65)"/><path d="M318.21,361.71a2.8,2.8,0,0,1,.55-.06,1.47,1.47,0,0,1,.53.09,1,1,0,0,1,.38.24,1,1,0,0,1,.23.36,1.17,1.17,0,0,1,.08.46,1.38,1.38,0,0,1-.1.55,1.25,1.25,0,0,1-.3.42,1.12,1.12,0,0,1-.43.27,1.61,1.61,0,0,1-.54.09,1.66,1.66,0,0,1-.32,0A1.23,1.23,0,0,1,318,364a1.46,1.46,0,0,1-.25-.13l-.21-.15.15-.2a.14.14,0,0,1,.13-.07.24.24,0,0,1,.12,0l.16.09a1.12,1.12,0,0,0,.22.09,1.16,1.16,0,0,0,.67,0,.75.75,0,0,0,.28-.18.92.92,0,0,0,.17-.29,1.06,1.06,0,0,0,.06-.37.83.83,0,0,0-.05-.32.6.6,0,0,0-.16-.25.66.66,0,0,0-.26-.15,1,1,0,0,0-.37-.06l-.3,0a1.73,1.73,0,0,0-.31.07l-.3-.09.3-1.78h1.81v.21a.23.23,0,0,1-.06.16.25.25,0,0,1-.21.07h-1.2Z" transform="translate(-227.06 -318.65)"/><path d="M325.36,363.73v.36h-2.05v-.36h.82v-2.61a1.93,1.93,0,0,1,0-.24l-.68.59a.11.11,0,0,1-.07,0h-.06l-.06,0,0,0-.15-.2,1.14-1h.39v3.47Z" transform="translate(-227.06 -318.65)"/><path d="M328.37,363.64a.16.16,0,0,1,.12,0,.17.17,0,0,1,.05.12v.29H326v-.16a.43.43,0,0,1,0-.11.3.3,0,0,1,.07-.1l1.22-1.22.28-.3a2.64,2.64,0,0,0,.21-.29,1.55,1.55,0,0,0,.14-.29,1.08,1.08,0,0,0,0-.32.65.65,0,0,0-.05-.29.46.46,0,0,0-.14-.21.68.68,0,0,0-.22-.12.75.75,0,0,0-.54,0,.72.72,0,0,0-.38.3.69.69,0,0,0-.09.23.23.23,0,0,1-.08.12.26.26,0,0,1-.16,0l-.24-.05a1.37,1.37,0,0,1,.14-.46,1.13,1.13,0,0,1,.27-.34,1.07,1.07,0,0,1,.38-.2,1.33,1.33,0,0,1,.45-.07,1.35,1.35,0,0,1,.46.07,1.07,1.07,0,0,1,.36.21.78.78,0,0,1,.24.33,1.06,1.06,0,0,1,.09.45,1.34,1.34,0,0,1-.06.4,1.54,1.54,0,0,1-.17.34,3.75,3.75,0,0,1-.26.33c-.09.1-.19.21-.3.31l-1,1,.22,0a.75.75,0,0,1,.21,0Z" transform="translate(-227.06 -318.65)"/><path d="M335.57,360.27v.21a.61.61,0,0,1,0,.15.69.69,0,0,0,0,.1l-1.59,3.19a.27.27,0,0,1-.09.12.28.28,0,0,1-.16,0h-.35l1.61-3.15a.63.63,0,0,1,.07-.12,1,1,0,0,1,.08-.11h-2a.14.14,0,0,1-.12-.12v-.32Z" transform="translate(-227.06 -318.65)"/><path d="M342.26,363.64a.16.16,0,0,1,.12,0,.17.17,0,0,1,.05.12v.29h-2.55v-.16a.43.43,0,0,1,0-.11.61.61,0,0,1,.07-.1l1.22-1.22.28-.3a2.64,2.64,0,0,0,.21-.29,1.11,1.11,0,0,0,.14-.29,1.07,1.07,0,0,0,.05-.32.65.65,0,0,0-.06-.29.46.46,0,0,0-.14-.21.52.52,0,0,0-.22-.12.76.76,0,0,0-.27-.05.81.81,0,0,0-.27.05.72.72,0,0,0-.21.12.55.55,0,0,0-.16.18.43.43,0,0,0-.09.23c0,.06-.05.1-.09.12a.24.24,0,0,1-.15,0l-.25-.05a1.37,1.37,0,0,1,.14-.46,1.34,1.34,0,0,1,.28-.34,1,1,0,0,1,.37-.2,1.35,1.35,0,0,1,.46-.07,1.33,1.33,0,0,1,.45.07,1.07,1.07,0,0,1,.36.21.9.9,0,0,1,.25.33,1.06,1.06,0,0,1,.08.45,1.34,1.34,0,0,1-.06.4,1.54,1.54,0,0,1-.17.34l-.25.33-.31.31-1,1,.21,0a.78.78,0,0,1,.21,0Z" transform="translate(-227.06 -318.65)"/><path d="M345.66,362.71V363a.12.12,0,0,1,0,.07.11.11,0,0,1-.08,0h-.48v1h-.41v-1H343l-.09,0a.18.18,0,0,1-.05-.07l-.05-.25,1.86-2.46h.44v2.44Zm-1,0V361c0-.05,0-.11,0-.16l-1.39,1.89Z" transform="translate(-227.06 -318.65)"/><path d="M350,361.3a1.37,1.37,0,0,1,.14-.46,1.13,1.13,0,0,1,.27-.34,1,1,0,0,1,.38-.2,1.48,1.48,0,0,1,.9,0,1,1,0,0,1,.35.19.87.87,0,0,1,.23.31.91.91,0,0,1,.09.41,1.07,1.07,0,0,1-.05.32,1,1,0,0,1-.13.25.91.91,0,0,1-.21.18,1.18,1.18,0,0,1-.28.12,1.06,1.06,0,0,1,.56.33.88.88,0,0,1,.19.58,1.06,1.06,0,0,1-.1.48,1,1,0,0,1-.27.36,1.41,1.41,0,0,1-.4.22,1.38,1.38,0,0,1-.5.08,1.64,1.64,0,0,1-.52-.07,1.26,1.26,0,0,1-.36-.21,1.11,1.11,0,0,1-.25-.32,2.09,2.09,0,0,1-.16-.4l.2-.08a.31.31,0,0,1,.16,0,.14.14,0,0,1,.11.09,1.5,1.5,0,0,0,.09.18.81.81,0,0,0,.14.2.79.79,0,0,0,.23.16.88.88,0,0,0,.36.07.78.78,0,0,0,.35-.07.74.74,0,0,0,.25-.17,1.14,1.14,0,0,0,.15-.23A.79.79,0,0,0,352,363a1.27,1.27,0,0,0,0-.29.62.62,0,0,0-.15-.22.7.7,0,0,0-.3-.14,1.68,1.68,0,0,0-.49-.06V362a1.73,1.73,0,0,0,.42,0,1,1,0,0,0,.28-.14.51.51,0,0,0,.15-.21.65.65,0,0,0,.05-.27.63.63,0,0,0-.05-.29.6.6,0,0,0-.14-.21.66.66,0,0,0-.22-.12,1.09,1.09,0,0,0-.26,0,.76.76,0,0,0-.27.05.78.78,0,0,0-.22.12.69.69,0,0,0-.25.41.19.19,0,0,1-.09.12.22.22,0,0,1-.15,0Z" transform="translate(-227.06 -318.65)"/><path d="M357,361.3a1.37,1.37,0,0,1,.14-.46,1.13,1.13,0,0,1,.27-.34,1.07,1.07,0,0,1,.38-.2,1.35,1.35,0,0,1,.46-.07,1.33,1.33,0,0,1,.45.07,1.08,1.08,0,0,1,.35.19,1,1,0,0,1,.23.31,1.07,1.07,0,0,1,.08.41.83.83,0,0,1-.05.32.75.75,0,0,1-.13.25.91.91,0,0,1-.21.18.33.33,0,1,0,.29.45.94.94,0,0,1,.19.58,1.21,1.21,0,0,1-.1.48,1.09,1.09,0,0,1-.28.36,1.29,1.29,0,0,1-.4.22,1.35,1.35,0,0,1-.5.08,1.53,1.53,0,0,1-.51-.07,1.19,1.19,0,0,1-.37-.21,1.31,1.31,0,0,1-.25-.32,3,3,0,0,1-.16-.4l.21-.08a.26.26,0,0,1,.15,0,.14.14,0,0,1,.11.09,1.5,1.5,0,0,1,.09.18,1.21,1.21,0,0,0,.14.2.79.79,0,0,0,.23.16,1,1,0,0,0,.36.07.78.78,0,0,0,.35-.07.74.74,0,0,0,.25-.17.65.65,0,0,0,.15-.23.59.59,0,0,0,.05-.25.88.88,0,0,0,0-.29.44.44,0,0,0-.15-.22.7.7,0,0,0-.3-.14,1.63,1.63,0,0,0-.49-.06V362a1.61,1.61,0,0,0,.42,0,.81.81,0,0,0,.28-.14.54.54,0,0,0,.16-.21.86.86,0,0,0,.05-.27.62.62,0,0,0-.2-.5.72.72,0,0,0-.21-.12,1.1,1.1,0,0,0-.27,0,.81.81,0,0,0-.27.05.94.94,0,0,0-.22.12.65.65,0,0,0-.15.18.43.43,0,0,0-.09.23.31.31,0,0,1-.09.12.24.24,0,0,1-.15,0Z" transform="translate(-227.06 -318.65)"/><path d="M361.8,362.1a1.06,1.06,0,0,1,.55.34,1,1,0,0,1,.19.6,1,1,0,0,1-.1.46,1.06,1.06,0,0,1-.26.34,1.45,1.45,0,0,1-.41.22,1.68,1.68,0,0,1-.52.07,1.72,1.72,0,0,1-.52-.07,1.45,1.45,0,0,1-.41-.22,1.06,1.06,0,0,1-.26-.34,1.15,1.15,0,0,1-.1-.46.9.9,0,0,1,.2-.6,1,1,0,0,1,.55-.34.92.92,0,0,1-.46-.34.9.9,0,0,1-.15-.53.85.85,0,0,1,.08-.39.82.82,0,0,1,.23-.32,1.51,1.51,0,0,1,.37-.22,1.61,1.61,0,0,1,.94,0,1.21,1.21,0,0,1,.37.22.82.82,0,0,1,.23.32.86.86,0,0,1,.09.39.9.9,0,0,1-.16.53A.93.93,0,0,1,361.8,362.1Zm-.55,1.65a.9.9,0,0,0,.34-.05.64.64,0,0,0,.25-.15.57.57,0,0,0,.15-.22.72.72,0,0,0,.06-.29.69.69,0,0,0-.07-.34.66.66,0,0,0-.17-.23.79.79,0,0,0-.26-.13,1,1,0,0,0-.3,0,1,1,0,0,0-.3,0,.66.66,0,0,0-.25.13.58.58,0,0,0-.18.23.82.82,0,0,0-.07.34.72.72,0,0,0,.06.29.5.5,0,0,0,.16.22.53.53,0,0,0,.25.15A.88.88,0,0,0,361.25,363.75Zm0-3.16a.73.73,0,0,0-.3.06.5.5,0,0,0-.21.13.6.6,0,0,0-.14.21,1,1,0,0,0,0,.25.69.69,0,0,0,0,.25.48.48,0,0,0,.12.22.57.57,0,0,0,.21.15.79.79,0,0,0,.32.06.76.76,0,0,0,.32-.06.57.57,0,0,0,.21-.15.48.48,0,0,0,.12-.22.8.8,0,0,0,0-.5.74.74,0,0,0-.13-.21.54.54,0,0,0-.22-.13A.73.73,0,0,0,361.25,360.59Z" transform="translate(-227.06 -318.65)"/><path d="M316.87,372.9v.36h-2.05v-.36h.82v-2.6a1.93,1.93,0,0,1,0-.24l-.68.58-.07,0h-.07l-.05,0,0,0-.15-.2,1.14-1h.39v3.46Z" transform="translate(-227.06 -318.65)"/><path d="M320.18,371.36a3.1,3.1,0,0,1-.11.86,1.82,1.82,0,0,1-.29.61,1.28,1.28,0,0,1-.45.36,1.37,1.37,0,0,1-.54.11,1.42,1.42,0,0,1-.55-.11,1.22,1.22,0,0,1-.43-.36,1.66,1.66,0,0,1-.3-.61,3.79,3.79,0,0,1,0-1.73,1.66,1.66,0,0,1,.3-.61,1.22,1.22,0,0,1,.43-.36,1.26,1.26,0,0,1,.55-.12,1.22,1.22,0,0,1,.54.12,1.28,1.28,0,0,1,.45.36,1.82,1.82,0,0,1,.29.61A3.12,3.12,0,0,1,320.18,371.36Zm-.5,0a3.09,3.09,0,0,0-.07-.74,1.33,1.33,0,0,0-.2-.48.69.69,0,0,0-.28-.26.76.76,0,0,0-.68,0,.69.69,0,0,0-.28.26,1.33,1.33,0,0,0-.2.48,3.09,3.09,0,0,0-.07.74,3.06,3.06,0,0,0,.07.73,1.42,1.42,0,0,0,.2.48.77.77,0,0,0,.28.26.86.86,0,0,0,.68,0,.77.77,0,0,0,.28-.26,1.42,1.42,0,0,0,.2-.48A3.06,3.06,0,0,0,319.68,371.36Z" transform="translate(-227.06 -318.65)"/><path d="M325.42,372.9v.36h-2v-.36h.81v-2.6c0-.08,0-.16,0-.24l-.68.58-.07,0h-.06l-.06,0,0,0-.14-.2,1.13-1h.39v3.46Z" transform="translate(-227.06 -318.65)"/><path d="M327.89,371.27a1.06,1.06,0,0,1,.55.34.93.93,0,0,1,.19.61,1.06,1.06,0,0,1-.09.45,1,1,0,0,1-.26.34,1.16,1.16,0,0,1-.41.22,1.72,1.72,0,0,1-.52.08,1.78,1.78,0,0,1-.53-.08,1.11,1.11,0,0,1-.4-.22.89.89,0,0,1-.27-.34,1.06,1.06,0,0,1-.09-.45.93.93,0,0,1,.19-.61,1.06,1.06,0,0,1,.55-.34.86.86,0,0,1-.45-.33.88.88,0,0,1-.16-.53,1,1,0,0,1,.32-.72,1.07,1.07,0,0,1,.36-.21,1.42,1.42,0,0,1,.48-.08,1.4,1.4,0,0,1,.47.08,1.07,1.07,0,0,1,.36.21.93.93,0,0,1,.24.32,1.06,1.06,0,0,1,.08.4.94.94,0,0,1-.15.53A.89.89,0,0,1,327.89,371.27Zm-.54,1.66a1.14,1.14,0,0,0,.33-.05.87.87,0,0,0,.25-.15.63.63,0,0,0,.16-.23.84.84,0,0,0,.05-.29.9.9,0,0,0-.06-.34.49.49,0,0,0-.18-.22.6.6,0,0,0-.25-.13,1,1,0,0,0-.3,0,1,1,0,0,0-.3,0,.58.58,0,0,0-.26.13.54.54,0,0,0-.17.22.74.74,0,0,0-.07.34.84.84,0,0,0,.05.29.63.63,0,0,0,.16.23.87.87,0,0,0,.25.15A1.16,1.16,0,0,0,327.35,372.93Zm0-3.16a.85.85,0,0,0-.3.05.55.55,0,0,0-.22.14.63.63,0,0,0-.13.2.73.73,0,0,0,0,.25,1.09,1.09,0,0,0,0,.26.72.72,0,0,0,.12.21.6.6,0,0,0,.22.16.77.77,0,0,0,.32,0,.8.8,0,0,0,.32,0,.56.56,0,0,0,.21-.16.72.72,0,0,0,.12-.21,1.09,1.09,0,0,0,0-.26.74.74,0,0,0-.05-.25.63.63,0,0,0-.13-.2.6.6,0,0,0-.21-.14A.94.94,0,0,0,327.35,369.77Z" transform="translate(-227.06 -318.65)"/><path d="M333.89,372.81a.17.17,0,0,1,.13.05.16.16,0,0,1,0,.12v.28h-2.55v-.16a.36.36,0,0,1,0-.1.36.36,0,0,1,.07-.1l1.22-1.23a2.56,2.56,0,0,0,.28-.3,1.79,1.79,0,0,0,.22-.28,1.94,1.94,0,0,0,.13-.3,1,1,0,0,0,.05-.31.94.94,0,0,0-.05-.3.8.8,0,0,0-.15-.21.66.66,0,0,0-.22-.12.77.77,0,0,0-.27,0,.84.84,0,0,0-.27,0,.72.72,0,0,0-.21.12.55.55,0,0,0-.16.18.92.92,0,0,0-.09.23.19.19,0,0,1-.09.12.23.23,0,0,1-.15,0l-.25,0a1.25,1.25,0,0,1,.15-.46,1,1,0,0,1,.27-.34,1.23,1.23,0,0,1,.37-.21,1.35,1.35,0,0,1,.46-.07,1.63,1.63,0,0,1,.45.07,1.23,1.23,0,0,1,.37.21,1.06,1.06,0,0,1,.33.78,1,1,0,0,1-.07.4,1.62,1.62,0,0,1-.17.35,2.51,2.51,0,0,1-.25.32l-.3.32-1,1,.21-.05.21,0Z" transform="translate(-227.06 -318.65)"/><path d="M335.32,370.89a2.24,2.24,0,0,1,.55-.07,1.47,1.47,0,0,1,.53.09,1.12,1.12,0,0,1,.38.24,1.1,1.1,0,0,1,.23.37,1.34,1.34,0,0,1,.08.46,1.42,1.42,0,0,1-.11.55,1.22,1.22,0,0,1-.29.42,1.34,1.34,0,0,1-.43.26,1.4,1.4,0,0,1-.54.1,1.75,1.75,0,0,1-.33,0,1.4,1.4,0,0,1-.29-.09,1.34,1.34,0,0,1-.24-.12,1.16,1.16,0,0,1-.21-.16l.15-.2a.15.15,0,0,1,.12-.07.28.28,0,0,1,.12,0l.17.1.22.09a1.37,1.37,0,0,0,.31,0,.86.86,0,0,0,.36-.07.75.75,0,0,0,.28-.18.88.88,0,0,0,.17-.28,1.1,1.1,0,0,0,.06-.37,1.14,1.14,0,0,0-.05-.33.63.63,0,0,0-.16-.24.68.68,0,0,0-.26-.16,1.32,1.32,0,0,0-.37,0,1.62,1.62,0,0,0-.3,0,2.14,2.14,0,0,0-.32.08l-.29-.09.3-1.79H337v.21a.24.24,0,0,1-.06.17.3.3,0,0,1-.22.06H335.5Z" transform="translate(-227.06 -318.65)"/><path d="M342.63,370.88l-.1.12-.09.12a1.4,1.4,0,0,1,.3-.15,1.29,1.29,0,0,1,.35-.05,1.27,1.27,0,0,1,.44.08,1,1,0,0,1,.36.22,1.13,1.13,0,0,1,.24.36,1.21,1.21,0,0,1,.09.48,1.3,1.3,0,0,1-.09.49,1.56,1.56,0,0,1-.27.4,1.25,1.25,0,0,1-.41.26,1.57,1.57,0,0,1-.54.1,1.27,1.27,0,0,1-.52-.1,1,1,0,0,1-.4-.26,1.13,1.13,0,0,1-.25-.41,1.53,1.53,0,0,1-.09-.54,1.57,1.57,0,0,1,.11-.53,2.61,2.61,0,0,1,.35-.61l1-1.3a.31.31,0,0,1,.11-.08.33.33,0,0,1,.15,0h.42Zm.27,2a.87.87,0,0,0,.62-.23.78.78,0,0,0,.17-.26.87.87,0,0,0,.06-.32.9.9,0,0,0-.06-.34.78.78,0,0,0-.17-.26.72.72,0,0,0-.25-.16.88.88,0,0,0-.33,0,1,1,0,0,0-.35.06.68.68,0,0,0-.26.18.85.85,0,0,0-.17.25.81.81,0,0,0-.05.31.88.88,0,0,0,.05.33.63.63,0,0,0,.16.26.56.56,0,0,0,.25.17A.84.84,0,0,0,342.9,372.91Z" transform="translate(-227.06 -318.65)"/><path d="M348.72,370.48a1.24,1.24,0,0,1,.14-.46,1,1,0,0,1,.27-.34,1.28,1.28,0,0,1,.38-.21,1.35,1.35,0,0,1,.46-.07,1.23,1.23,0,0,1,.44.07,1,1,0,0,1,.36.2.9.9,0,0,1,.23.31,1,1,0,0,1,0,.72.66.66,0,0,1-.13.25.91.91,0,0,1-.21.18,1.69,1.69,0,0,1-.27.13,1,1,0,0,1,.56.33.92.92,0,0,1,.19.58,1.2,1.2,0,0,1-.1.47,1.09,1.09,0,0,1-.28.36,1.13,1.13,0,0,1-.4.23,1.67,1.67,0,0,1-1,0A1.07,1.07,0,0,1,349,373a1.26,1.26,0,0,1-.25-.31c-.06-.13-.11-.26-.16-.4l.21-.09a.26.26,0,0,1,.15,0,.15.15,0,0,1,.11.08s.05.11.09.18a.66.66,0,0,0,.14.2.63.63,0,0,0,.23.16.8.8,0,0,0,.36.07,1,1,0,0,0,.35-.06.92.92,0,0,0,.25-.17.61.61,0,0,0,.15-.24.74.74,0,0,0,.05-.25.82.82,0,0,0,0-.28.48.48,0,0,0-.15-.22.84.84,0,0,0-.3-.15,2.11,2.11,0,0,0-.49,0v-.35a1.61,1.61,0,0,0,.42-.05.74.74,0,0,0,.28-.14.65.65,0,0,0,.16-.21.76.76,0,0,0,.05-.27.65.65,0,0,0-.06-.29.48.48,0,0,0-.14-.2.72.72,0,0,0-.21-.12.8.8,0,0,0-.27,0,.77.77,0,0,0-.27,0,.72.72,0,0,0-.38.3.92.92,0,0,0-.09.23.23.23,0,0,1-.08.12.24.24,0,0,1-.15,0Z" transform="translate(-227.06 -318.65)"/><path d="M354.4,371.36a3.1,3.1,0,0,1-.11.86,1.66,1.66,0,0,1-.3.61,1.17,1.17,0,0,1-.44.36,1.41,1.41,0,0,1-1.09,0,1.25,1.25,0,0,1-.44-.36,1.82,1.82,0,0,1-.29-.61,3.46,3.46,0,0,1,0-1.73,1.82,1.82,0,0,1,.29-.61,1.25,1.25,0,0,1,.44-.36,1.3,1.3,0,0,1,1.09,0,1.17,1.17,0,0,1,.44.36,1.66,1.66,0,0,1,.3.61A3.12,3.12,0,0,1,354.4,371.36Zm-.5,0a3.09,3.09,0,0,0-.07-.74,1.54,1.54,0,0,0-.2-.48.76.76,0,0,0-.28-.26.84.84,0,0,0-.34-.08.81.81,0,0,0-.34.08.71.71,0,0,0-.29.26,1.55,1.55,0,0,0-.19.48,3.42,3.42,0,0,0,0,1.47,1.66,1.66,0,0,0,.19.48.71.71,0,0,0,.63.33.83.83,0,0,0,.34-.07.85.85,0,0,0,.28-.26,1.65,1.65,0,0,0,.2-.48A3.06,3.06,0,0,0,353.9,371.36Z" transform="translate(-227.06 -318.65)"/><path d="M361.19,372.9v.36h-2.05v-.36H360v-2.84l-.68.58-.06,0h-.07l0,0,0,0-.15-.2,1.14-1h.38v3.46Z" transform="translate(-227.06 -318.65)"/><path d="M314.5,379.65a1.55,1.55,0,0,1,.14-.46,1.34,1.34,0,0,1,.28-.34,1,1,0,0,1,.37-.2,1.35,1.35,0,0,1,.46-.07,1.63,1.63,0,0,1,.45.06,1.33,1.33,0,0,1,.35.2,1,1,0,0,1,.23.31,1.06,1.06,0,0,1,.08.4,1.15,1.15,0,0,1,0,.33,1,1,0,0,1-.14.25.91.91,0,0,1-.21.18,1.11,1.11,0,0,1-.27.12,1,1,0,0,1,.56.33.94.94,0,0,1,.19.58,1.21,1.21,0,0,1-.1.48,1,1,0,0,1-.28.35,1.13,1.13,0,0,1-.4.23,1.57,1.57,0,0,1-.49.08,1.32,1.32,0,0,1-.52-.08,1.18,1.18,0,0,1-.37-.2,1.08,1.08,0,0,1-.24-.32,2.4,2.4,0,0,1-.17-.4l.21-.08a.29.29,0,0,1,.16,0,.19.19,0,0,1,.11.09l.08.18a1.86,1.86,0,0,0,.14.2.91.91,0,0,0,.24.16.87.87,0,0,0,.35.07A1,1,0,0,0,316,382a.73.73,0,0,0,.4-.4.59.59,0,0,0,.05-.25.88.88,0,0,0,0-.29.4.4,0,0,0-.15-.22.7.7,0,0,0-.3-.14,1.61,1.61,0,0,0-.48-.06v-.34a1.22,1.22,0,0,0,.41-.06.81.81,0,0,0,.28-.13.54.54,0,0,0,.16-.21.87.87,0,0,0,0-.28.78.78,0,0,0,0-.28.66.66,0,0,0-.15-.21A.72.72,0,0,0,316,379a1.1,1.1,0,0,0-.27,0,.86.86,0,0,0-.27,0,.53.53,0,0,0-.21.11.67.67,0,0,0-.16.18.5.5,0,0,0-.09.23.29.29,0,0,1-.09.13.24.24,0,0,1-.15,0Z" transform="translate(-227.06 -318.65)"/><path d="M318.51,380.05l-.1.12-.09.12a1,1,0,0,1,.3-.14,1,1,0,0,1,.36,0,1.21,1.21,0,0,1,.43.07,1.09,1.09,0,0,1,.36.22,1.16,1.16,0,0,1,.25.36,1.22,1.22,0,0,1,.09.49,1.34,1.34,0,0,1-.1.49,1.05,1.05,0,0,1-.27.39,1.15,1.15,0,0,1-.41.26,1.32,1.32,0,0,1-.53.1,1.42,1.42,0,0,1-.52-.09,1.11,1.11,0,0,1-.4-.26,1.25,1.25,0,0,1-.26-.41,1.53,1.53,0,0,1-.09-.54,1.58,1.58,0,0,1,.11-.54,2.8,2.8,0,0,1,.36-.6l1-1.31a.27.27,0,0,1,.1-.08.33.33,0,0,1,.15,0h.42Zm.28,2a.74.74,0,0,0,.34-.07.62.62,0,0,0,.27-.17.85.85,0,0,0,.17-.25.88.88,0,0,0,.06-.33.93.93,0,0,0-.06-.34.72.72,0,0,0-.16-.25.71.71,0,0,0-.26-.16.88.88,0,0,0-.33-.06.81.81,0,0,0-.35.07.78.78,0,0,0-.26.17.63.63,0,0,0-.16.26.73.73,0,0,0-.06.3,1.27,1.27,0,0,0,.05.34.87.87,0,0,0,.16.26.74.74,0,0,0,.25.17A.9.9,0,0,0,318.79,382.09Z" transform="translate(-227.06 -318.65)"/><path d="M326.89,382a.14.14,0,0,1,.16.16v.29h-2.54v-.16a.22.22,0,0,1,0-.11.27.27,0,0,1,.06-.1l1.23-1.23.27-.29a1.85,1.85,0,0,0,.22-.29,1.23,1.23,0,0,0,.13-.29.86.86,0,0,0,.05-.32.84.84,0,0,0-.05-.29.64.64,0,0,0-.36-.34,1.26,1.26,0,0,0-.27,0,.76.76,0,0,0-.27,0,.57.57,0,0,0-.22.11.9.9,0,0,0-.16.18.92.92,0,0,0-.09.23.19.19,0,0,1-.09.13.23.23,0,0,1-.15,0l-.25,0a1.55,1.55,0,0,1,.15-.46,1.13,1.13,0,0,1,.27-.34,1,1,0,0,1,.37-.2,1.39,1.39,0,0,1,.46-.07,1.33,1.33,0,0,1,.45.07,1,1,0,0,1,.37.21,1,1,0,0,1,.24.33,1.06,1.06,0,0,1,.09.45,1.23,1.23,0,0,1-.06.39,1.92,1.92,0,0,1-.18.35,3.59,3.59,0,0,1-.25.33l-.3.31-1,1,.22-.05h1.49Z" transform="translate(-227.06 -318.65)"/><path d="M334.9,380.45a1,1,0,0,1,.55.34.9.9,0,0,1,.19.6,1.06,1.06,0,0,1-.09.45.92.92,0,0,1-.27.35,1.17,1.17,0,0,1-.4.21,1.46,1.46,0,0,1-.52.08,1.51,1.51,0,0,1-.53-.08,1.32,1.32,0,0,1-.41-.21,1,1,0,0,1-.26-.35,1.06,1.06,0,0,1-.09-.45.9.9,0,0,1,.19-.6,1,1,0,0,1,.55-.34,1,1,0,0,1-.46-.34.92.92,0,0,1-.15-.53,1,1,0,0,1,.08-.39,1,1,0,0,1,.24-.32,1.09,1.09,0,0,1,.36-.22,1.43,1.43,0,0,1,.48-.07,1.41,1.41,0,0,1,.47.07,1.09,1.09,0,0,1,.36.22,1,1,0,0,1,.24.32,1,1,0,0,1,.08.39.92.92,0,0,1-.15.53A1,1,0,0,1,334.9,380.45Zm-.54,1.65a1.14,1.14,0,0,0,.33-.05.71.71,0,0,0,.41-.37.94.94,0,0,0,0-.3.81.81,0,0,0-.06-.33.6.6,0,0,0-.18-.23.75.75,0,0,0-.25-.13,1,1,0,0,0-.3,0,1.06,1.06,0,0,0-.31,0,.75.75,0,0,0-.25.13.71.71,0,0,0-.18.23.81.81,0,0,0-.06.33.94.94,0,0,0,.05.3.71.71,0,0,0,.41.37A1.16,1.16,0,0,0,334.36,382.1Zm0-3.16a.85.85,0,0,0-.3.05.69.69,0,0,0-.22.14.57.57,0,0,0-.13.21.69.69,0,0,0,0,.25,1.07,1.07,0,0,0,0,.25.78.78,0,0,0,.12.22.71.71,0,0,0,.22.15.73.73,0,0,0,.32.06.72.72,0,0,0,.53-.21.78.78,0,0,0,.12-.22,1.09,1.09,0,0,0,0-.25.7.7,0,0,0-.05-.25.57.57,0,0,0-.13-.21.77.77,0,0,0-.21-.14A.94.94,0,0,0,334.36,378.94Z" transform="translate(-227.06 -318.65)"/><path d="M340.16,379.65a1.55,1.55,0,0,1,.15-.46,1.13,1.13,0,0,1,.27-.34,1,1,0,0,1,.37-.2,1.43,1.43,0,0,1,.46-.07,1.63,1.63,0,0,1,.45.06,1.19,1.19,0,0,1,.35.2.87.87,0,0,1,.23.31.9.9,0,0,1,.09.4,1.14,1.14,0,0,1,0,.33,1,1,0,0,1-.13.25.91.91,0,0,1-.21.18,1.39,1.39,0,0,1-.28.12,1,1,0,0,1,.56.33.88.88,0,0,1,.19.58,1,1,0,0,1-.37.83,1.18,1.18,0,0,1-.41.23,1.53,1.53,0,0,1-.49.08,1.35,1.35,0,0,1-.52-.08,1.31,1.31,0,0,1-.37-.2,1.08,1.08,0,0,1-.24-.32,2.38,2.38,0,0,1-.16-.4l.2-.08a.3.3,0,0,1,.16,0,.14.14,0,0,1,.11.09l.09.18a1.05,1.05,0,0,0,.14.2.84.84,0,0,0,.23.16.87.87,0,0,0,.35.07.91.91,0,0,0,.35-.07.69.69,0,0,0,.26-.17,1.14,1.14,0,0,0,.15-.23.79.79,0,0,0,.05-.25,1.27,1.27,0,0,0,0-.29.54.54,0,0,0-.15-.22.83.83,0,0,0-.3-.14,1.68,1.68,0,0,0-.49-.06v-.34a1.33,1.33,0,0,0,.42-.06,1,1,0,0,0,.28-.13.51.51,0,0,0,.15-.21.87.87,0,0,0,.05-.28.78.78,0,0,0-.05-.28.64.64,0,0,0-.14-.21.66.66,0,0,0-.22-.12,1.1,1.1,0,0,0-.27,0,.75.75,0,0,0-.26,0,.51.51,0,0,0-.22.11.67.67,0,0,0-.16.18.92.92,0,0,0-.09.23.19.19,0,0,1-.09.13.23.23,0,0,1-.15,0Z" transform="translate(-227.06 -318.65)"/><path d="M344.17,380.05l-.09.12a.47.47,0,0,0-.09.12,1.11,1.11,0,0,1,.29-.14,1,1,0,0,1,.36,0,1.31,1.31,0,0,1,.44.07,1.15,1.15,0,0,1,.35.22,1,1,0,0,1,.25.36,1.22,1.22,0,0,1,.09.49,1.26,1.26,0,0,1-.36.88,1.29,1.29,0,0,1-.42.26,1.32,1.32,0,0,1-.53.1,1.42,1.42,0,0,1-.52-.09,1.11,1.11,0,0,1-.4-.26,1.22,1.22,0,0,1-.25-.41,1.53,1.53,0,0,1-.09-.54,1.37,1.37,0,0,1,.11-.54,2.38,2.38,0,0,1,.35-.6l1-1.31a.39.39,0,0,1,.1-.08l.15,0h.43Zm.28,2a.81.81,0,0,0,.35-.07.65.65,0,0,0,.26-.17.7.7,0,0,0,.17-.25.88.88,0,0,0,.06-.33.93.93,0,0,0-.05-.34.74.74,0,0,0-.17-.25.63.63,0,0,0-.26-.16.88.88,0,0,0-.33-.06.77.77,0,0,0-.34.07.78.78,0,0,0-.26.17.65.65,0,0,0-.17.26.73.73,0,0,0-.06.3,1,1,0,0,0,.06.34.68.68,0,0,0,.15.26.74.74,0,0,0,.25.17A.9.9,0,0,0,344.45,382.09Z" transform="translate(-227.06 -318.65)"/><path d="M351.09,382.08v.36h-2v-.36h.82v-2.85l-.68.59-.06,0h-.07l-.05,0,0,0-.15-.21,1.14-1h.38v3.47Z" transform="translate(-227.06 -318.65)"/><path d="M354.4,381.06v.27a.08.08,0,0,1,0,.07.11.11,0,0,1-.08,0h-.47v1h-.42v-1h-1.7a.16.16,0,0,1-.09,0,.18.18,0,0,1-.05-.07l0-.25,1.85-2.46h.45v2.44Zm-1,0v-1.58a.86.86,0,0,1,0-.15,1,1,0,0,1,0-.17l-1.39,1.9Z" transform="translate(-227.06 -318.65)"/><path d="M360.33,380.92l.11-.15.1-.14a1.06,1.06,0,0,1-.33.18,1.23,1.23,0,0,1-.39.06,1.14,1.14,0,0,1-.41-.07,1.08,1.08,0,0,1-.34-.21,1.07,1.07,0,0,1-.23-.35,1.13,1.13,0,0,1-.09-.47,1.15,1.15,0,0,1,.36-.85,1.24,1.24,0,0,1,.4-.25,1.35,1.35,0,0,1,.5-.09,1.31,1.31,0,0,1,.5.09,1.14,1.14,0,0,1,.39.25,1.11,1.11,0,0,1,.24.39,1.35,1.35,0,0,1,.09.5,1.55,1.55,0,0,1,0,.31,1.4,1.4,0,0,1-.09.29,1.92,1.92,0,0,1-.14.29c-.05.09-.12.18-.18.28l-.93,1.35a.39.39,0,0,1-.1.08.37.37,0,0,1-.15,0h-.44Zm-1.1-1.18a.8.8,0,0,0,0,.32.49.49,0,0,0,.15.24.51.51,0,0,0,.23.15.83.83,0,0,0,.32.05.82.82,0,0,0,.59-.22.75.75,0,0,0,.15-.24.71.71,0,0,0,0-.29.83.83,0,0,0,0-.32.72.72,0,0,0-.16-.25.75.75,0,0,0-.24-.15A.81.81,0,0,0,360,379a.83.83,0,0,0-.32.06.72.72,0,0,0-.25.16.78.78,0,0,0-.16.24A1.06,1.06,0,0,0,359.23,379.74Z" transform="translate(-227.06 -318.65)"/><path d="M318.39,390.23v.28a.11.11,0,0,1,0,.07.1.1,0,0,1-.08,0h-.47v1h-.42v-1H315.7a.12.12,0,0,1-.09,0,.1.1,0,0,1-.05-.08l-.05-.24,1.86-2.47h.44v2.44Zm-1,0v-1.57a.76.76,0,0,1,0-.15c0-.06,0-.11,0-.17L316,390.23Z" transform="translate(-227.06 -318.65)"/><path d="M325.16,391.25v.36h-2.05v-.36h.82v-2.6a1.93,1.93,0,0,1,0-.24l-.68.58-.07,0h-.07l-.05,0,0,0-.15-.2,1.14-1h.39v3.46Z" transform="translate(-227.06 -318.65)"/><path d="M327.4,390.09l.11-.15.1-.14a1.06,1.06,0,0,1-.33.18,1.32,1.32,0,0,1-.39.06,1.1,1.1,0,0,1-.41-.07,1,1,0,0,1-.34-.21,1,1,0,0,1-.24-.34,1.4,1.4,0,0,1-.08-.47,1.23,1.23,0,0,1,.09-.47,1.12,1.12,0,0,1,.26-.38,1.38,1.38,0,0,1,.4-.26,1.44,1.44,0,0,1,.51-.09,1.35,1.35,0,0,1,.5.09,1.1,1.1,0,0,1,.63.64,1.35,1.35,0,0,1,.09.5,1.66,1.66,0,0,1,0,.32,1.61,1.61,0,0,1-.09.29l-.14.28-.19.29-.93,1.34a.27.27,0,0,1-.1.08.33.33,0,0,1-.15,0h-.43Zm-1.11-1.17a1.07,1.07,0,0,0,0,.32,1,1,0,0,0,.15.24.61.61,0,0,0,.24.15,1,1,0,0,0,.31.05.9.9,0,0,0,.34-.06.74.74,0,0,0,.25-.17.78.78,0,0,0,.16-.24.87.87,0,0,0,0-.28.88.88,0,0,0-.06-.33.78.78,0,0,0-.16-.24.6.6,0,0,0-.24-.16.94.94,0,0,0-.3-.05,1.14,1.14,0,0,0-.33.05,1,1,0,0,0-.24.16.6.6,0,0,0-.16.25A.75.75,0,0,0,326.29,388.92Z" transform="translate(-227.06 -318.65)"/><path d="M333.62,391.16a.17.17,0,0,1,.12,0,.16.16,0,0,1,.05.11v.29h-2.55v-.16a.36.36,0,0,1,0-.1.23.23,0,0,1,.07-.1l1.22-1.23.28-.3a1.94,1.94,0,0,0,.21-.29,1.55,1.55,0,0,0,.14-.29,1.06,1.06,0,0,0,0-.31.7.7,0,0,0-.05-.3.77.77,0,0,0-.14-.21.94.94,0,0,0-.22-.12.84.84,0,0,0-.27,0,.77.77,0,0,0-.27,0,.72.72,0,0,0-.38.3.79.79,0,0,0-.09.23.23.23,0,0,1-.08.12.26.26,0,0,1-.16,0l-.24,0a1.36,1.36,0,0,1,.14-.47,1.09,1.09,0,0,1,.27-.33,1.28,1.28,0,0,1,.38-.21,1.33,1.33,0,0,1,.45-.07,1.39,1.39,0,0,1,.46.07,1.07,1.07,0,0,1,.36.21,1,1,0,0,1,.24.34,1,1,0,0,1,.09.44,1.25,1.25,0,0,1-.06.4,1.66,1.66,0,0,1-.18.35,1.85,1.85,0,0,1-.25.32l-.3.32-1,1,.22-.05.21,0Z" transform="translate(-227.06 -318.65)"/><path d="M337,389.7a3.12,3.12,0,0,1-.11.87,1.82,1.82,0,0,1-.29.61,1.25,1.25,0,0,1-.44.36,1.41,1.41,0,0,1-1.09,0,1.17,1.17,0,0,1-.44-.36,1.65,1.65,0,0,1-.29-.61,2.79,2.79,0,0,1-.11-.87,2.87,2.87,0,0,1,.11-.87,1.68,1.68,0,0,1,.29-.6,1.17,1.17,0,0,1,.44-.36,1.24,1.24,0,0,1,1.53.36,1.86,1.86,0,0,1,.29.6A3.23,3.23,0,0,1,337,389.7Zm-.49,0a3,3,0,0,0-.08-.73,1.34,1.34,0,0,0-.19-.48.71.71,0,0,0-.29-.26.76.76,0,0,0-.68,0,.76.76,0,0,0-.28.26,1.54,1.54,0,0,0-.2.48,3.06,3.06,0,0,0-.07.73,3.09,3.09,0,0,0,.07.74,1.58,1.58,0,0,0,.2.47.74.74,0,0,0,1,.26.65.65,0,0,0,.29-.26,1.36,1.36,0,0,0,.19-.47A3,3,0,0,0,336.52,389.7Z" transform="translate(-227.06 -318.65)"/><path d="M341.42,388.83a1.37,1.37,0,0,1,.15-.47,1.09,1.09,0,0,1,.27-.33,1.23,1.23,0,0,1,.37-.21,1.39,1.39,0,0,1,.46-.07,1.33,1.33,0,0,1,.45.07,1.1,1.1,0,0,1,.35.2.79.79,0,0,1,.23.31.87.87,0,0,1,.08.4,1,1,0,0,1,0,.32.68.68,0,0,1-.14.25.63.63,0,0,1-.21.18,1.69,1.69,0,0,1-.27.13,1,1,0,0,1,.56.32.89.89,0,0,1,.19.59,1.2,1.2,0,0,1-.1.47,1.22,1.22,0,0,1-.27.36,1.36,1.36,0,0,1-.41.23,1.57,1.57,0,0,1-.49.08,1.54,1.54,0,0,1-.52-.08,1,1,0,0,1-.37-.21,1,1,0,0,1-.24-.32,2.3,2.3,0,0,1-.17-.39l.21-.09a.3.3,0,0,1,.16,0,.16.16,0,0,1,.11.09l.08.18a1,1,0,0,0,.15.2.67.67,0,0,0,.23.16.73.73,0,0,0,.35.07.75.75,0,0,0,.35-.07.77.77,0,0,0,.25-.16.61.61,0,0,0,.15-.24.56.56,0,0,0,.05-.25.82.82,0,0,0,0-.28.4.4,0,0,0-.14-.22.84.84,0,0,0-.3-.15,1.72,1.72,0,0,0-.49-.05v-.35a1.58,1.58,0,0,0,.41-.05.67.67,0,0,0,.28-.14.54.54,0,0,0,.16-.21.76.76,0,0,0,.05-.27.84.84,0,0,0-.05-.29.5.5,0,0,0-.15-.2.45.45,0,0,0-.21-.12.77.77,0,0,0-.27,0,.75.75,0,0,0-.26,0,.66.66,0,0,0-.22.12.55.55,0,0,0-.16.18.58.58,0,0,0-.09.23.31.31,0,0,1-.09.12.22.22,0,0,1-.15,0Z" transform="translate(-227.06 -318.65)"/><path d="M350.58,389.23a2.8,2.8,0,0,1,.55-.06,1.47,1.47,0,0,1,.53.09,1.12,1.12,0,0,1,.38.24,1,1,0,0,1,.23.37,1.14,1.14,0,0,1,.08.46,1.33,1.33,0,0,1-.1.54,1.17,1.17,0,0,1-.29.42,1.25,1.25,0,0,1-.44.27,1.62,1.62,0,0,1-.54.1,1.65,1.65,0,0,1-.32,0,1.23,1.23,0,0,1-.29-.09,1,1,0,0,1-.25-.13.62.62,0,0,1-.2-.15l.14-.2a.14.14,0,0,1,.13-.07.24.24,0,0,1,.12,0l.16.09a1.12,1.12,0,0,0,.22.1,1.37,1.37,0,0,0,.31,0,.8.8,0,0,0,.36-.07.75.75,0,0,0,.28-.18.88.88,0,0,0,.17-.28,1.1,1.1,0,0,0,.06-.37.88.88,0,0,0-.05-.33.75.75,0,0,0-.15-.24.81.81,0,0,0-.27-.16,1,1,0,0,0-.37-.05,1.62,1.62,0,0,0-.3,0,1.77,1.77,0,0,0-.31.08l-.3-.09.3-1.79h1.81V388a.25.25,0,0,1-.06.17.29.29,0,0,1-.21.06h-1.2Z" transform="translate(-227.06 -318.65)"/><path d="M359.33,391.25v.36h-2.05v-.36h.82v-2.6a1.93,1.93,0,0,1,0-.24l-.68.58-.07,0h-.07l-.05,0,0,0-.15-.2,1.14-1h.39v3.46Z" transform="translate(-227.06 -318.65)"/><path d="M362.42,391.25v.36h-2.05v-.36h.82v-2.6a1.93,1.93,0,0,1,0-.24l-.68.58-.07,0h-.07l-.05,0,0,0-.15-.2,1.14-1h.39v3.46Z" transform="translate(-227.06 -318.65)"/><path class="cls-20" d="M320.13,384.43a13.85,13.85,0,0,1-5.56-5.55.49.49,0,0,1,.23-.65h0a.48.48,0,0,1,.63.23,13.08,13.08,0,0,0,5.16,5.12.49.49,0,0,1,.2.63h0A.48.48,0,0,1,320.13,384.43Z" transform="translate(-227.06 -318.65)"/><path class="cls-20" d="M315,384.06h0a.49.49,0,0,1,0-.69l3.82-4.26a.48.48,0,0,1,.68,0h0a.48.48,0,0,1,0,.68l-3.81,4.27A.49.49,0,0,1,315,384.06Z" transform="translate(-227.06 -318.65)"/><path class="cls-20" d="M337.2,374.71a13.84,13.84,0,0,1-5.55-5.55.47.47,0,0,1,.23-.65h0a.49.49,0,0,1,.64.22,13.12,13.12,0,0,0,5.16,5.13.5.5,0,0,1,.2.63h0A.48.48,0,0,1,337.2,374.71Z" transform="translate(-227.06 -318.65)"/><path class="cls-20" d="M332.07,374.34h0a.49.49,0,0,1,0-.69l3.82-4.27a.48.48,0,0,1,.68,0h0a.49.49,0,0,1,0,.69l-3.82,4.27A.48.48,0,0,1,332.07,374.34Z" transform="translate(-227.06 -318.65)"/><path class="cls-20" d="M354,392.45a14,14,0,0,1-5.56-5.56.48.48,0,0,1,.24-.65h0a.47.47,0,0,1,.63.23,13.19,13.19,0,0,0,5.16,5.13.47.47,0,0,1,.2.62h0A.48.48,0,0,1,354,392.45Z" transform="translate(-227.06 -318.65)"/><path class="cls-20" d="M348.84,392.07h0a.51.51,0,0,1,0-.69l3.82-4.26a.49.49,0,0,1,.69,0h0a.48.48,0,0,1,0,.68l-3.82,4.27A.49.49,0,0,1,348.84,392.07Z" transform="translate(-227.06 -318.65)"/><path class="cls-20" d="M328.69,373.93a13.84,13.84,0,0,1-5.55-5.55.47.47,0,0,1,.23-.65h0a.49.49,0,0,1,.64.22,13.12,13.12,0,0,0,5.16,5.13.5.5,0,0,1,.2.63h0A.48.48,0,0,1,328.69,373.93Z" transform="translate(-227.06 -318.65)"/><path class="cls-20" d="M323.56,373.56h0a.49.49,0,0,1,0-.69l3.82-4.27a.5.5,0,0,1,.68,0h0a.49.49,0,0,1,0,.69l-3.81,4.27A.49.49,0,0,1,323.56,373.56Z" transform="translate(-227.06 -318.65)"/><path class="cls-15" d="M318.31,339.43v1.28h-6.39V329.45h1.52v10Z" transform="translate(-227.06 -318.65)"/><path class="cls-15" d="M331.13,335.08a6.7,6.7,0,0,1-.4,2.33,5.26,5.26,0,0,1-1.14,1.81,5,5,0,0,1-1.75,1.19,6,6,0,0,1-2.27.42,5.87,5.87,0,0,1-2.26-.42,5,5,0,0,1-1.75-1.19,5.1,5.1,0,0,1-1.13-1.81,6.8,6.8,0,0,1,0-4.65,5.23,5.23,0,0,1,1.13-1.82,5,5,0,0,1,1.75-1.19,5.87,5.87,0,0,1,2.26-.43,6,6,0,0,1,2.27.43,5,5,0,0,1,1.75,1.19,5.4,5.4,0,0,1,1.14,1.82A6.69,6.69,0,0,1,331.13,335.08Zm-1.57,0a5.68,5.68,0,0,0-.28-1.86,4,4,0,0,0-.8-1.39,3.63,3.63,0,0,0-1.26-.88,4.52,4.52,0,0,0-3.29,0,3.63,3.63,0,0,0-1.26.88,3.89,3.89,0,0,0-.81,1.39,6.32,6.32,0,0,0,0,3.72,3.89,3.89,0,0,0,.81,1.39,3.48,3.48,0,0,0,1.26.87,4.52,4.52,0,0,0,3.29,0,3.48,3.48,0,0,0,1.26-.87,4,4,0,0,0,.8-1.39A5.68,5.68,0,0,0,329.56,335.08Z" transform="translate(-227.06 -318.65)"/><path class="cls-15" d="M341.67,330.73H338v10h-1.51v-10h-3.66v-1.28h8.82Z" transform="translate(-227.06 -318.65)"/><path class="cls-15" d="M352.21,330.73h-3.65v10H347v-10h-3.65v-1.28h8.82Z" transform="translate(-227.06 -318.65)"/><path class="cls-15" d="M365,335.08a6.7,6.7,0,0,1-.4,2.33,5.39,5.39,0,0,1-1.13,1.81,5.12,5.12,0,0,1-1.76,1.19,6.32,6.32,0,0,1-4.53,0,5.15,5.15,0,0,1-2.88-3,7,7,0,0,1,0-4.65,5.23,5.23,0,0,1,1.13-1.82,5.08,5.08,0,0,1,1.75-1.19,6.18,6.18,0,0,1,4.53,0,5.12,5.12,0,0,1,1.76,1.19,5.54,5.54,0,0,1,1.13,1.82A6.69,6.69,0,0,1,365,335.08Zm-1.57,0a5.68,5.68,0,0,0-.28-1.86,3.87,3.87,0,0,0-.8-1.39,3.45,3.45,0,0,0-1.26-.88,4.52,4.52,0,0,0-3.29,0,3.63,3.63,0,0,0-1.26.88,3.73,3.73,0,0,0-.8,1.39,6.11,6.11,0,0,0,0,3.72,3.73,3.73,0,0,0,.8,1.39,3.48,3.48,0,0,0,1.26.87,4.52,4.52,0,0,0,3.29,0,3.31,3.31,0,0,0,1.26-.87,3.87,3.87,0,0,0,.8-1.39A5.68,5.68,0,0,0,363.46,335.08Z" transform="translate(-227.06 -318.65)"/><rect class="cls-15" x="89.56" y="79.39" width="2.31" height="0.29"/><rect class="cls-15" x="85.42" y="79.39" width="2.3" height="0.29"/><rect class="cls-15" x="81.3" y="79.39" width="2.31" height="0.29"/><rect class="cls-15" x="101.97" y="79.39" width="2.3" height="0.29"/><rect class="cls-15" x="97.84" y="79.39" width="2.3" height="0.29"/><rect class="cls-15" x="93.72" y="79.39" width="2.3" height="0.29"/><rect class="cls-15" x="114.39" y="79.39" width="2.3" height="0.29"/><rect class="cls-15" x="110.26" y="79.39" width="2.31" height="0.29"/><rect class="cls-15" x="106.14" y="79.39" width="2.3" height="0.29"/><rect class="cls-15" x="126.81" y="79.39" width="2.31" height="0.29"/><rect class="cls-15" x="122.68" y="79.39" width="2.3" height="0.29"/><rect class="cls-15" x="118.56" y="79.39" width="2.31" height="0.29"/><rect class="cls-15" x="139.23" y="79.39" width="2.31" height="0.29"/><rect class="cls-15" x="135.09" y="79.39" width="2.31" height="0.29"/><rect class="cls-15" x="130.97" y="79.39" width="2.3" height="0.29"/><rect x="88.59" y="83.59" width="0.58" height="7.46"/><rect x="88.05" y="83.59" width="0.29" height="7.46"/><rect x="89.68" y="83.59" width="0.29" height="7.46"/><rect x="90.27" y="83.59" width="0.29" height="7.46"/><rect x="91.16" y="83.59" width="0.58" height="7.46"/><rect x="92.44" y="83.59" width="0.6" height="7.46"/><rect x="93.54" y="83.59" width="0.32" height="7.46"/><rect x="94.13" y="83.59" width="0.32" height="7.46"/><rect x="94.94" y="83.59" width="0.73" height="7.46"/><rect x="96.42" y="83.59" width="0.35" height="7.46"/><rect x="97.46" y="83.59" width="0.85" height="7.46"/><rect x="98.65" y="83.59" width="0.27" height="7.46"/><rect x="99.15" y="83.59" width="0.27" height="7.46"/><rect x="99.65" y="83.59" width="0.27" height="7.46"/><rect x="117.81" y="83.59" width="0.75" height="7.46"/><rect x="119.1" y="83.59" width="0.58" height="7.46"/><rect x="120.19" y="83.59" width="0.29" height="7.46"/><rect x="120.78" y="83.59" width="0.29" height="7.46"/><rect x="121.86" y="83.59" width="0.58" height="7.46"/><rect x="122.8" y="83.59" width="0.46" height="7.46"/><rect x="124.05" y="83.59" width="0.32" height="7.46"/><rect x="124.64" y="83.59" width="0.32" height="7.46"/><rect x="125.51" y="83.59" width="0.62" height="7.46"/><rect x="126.48" y="83.59" width="0.35" height="7.46"/><rect x="127.33" y="83.59" width="0.67" height="7.46"/><rect x="128.44" y="83.59" width="0.27" height="7.46"/><rect x="128.93" y="83.59" width="0.27" height="7.46"/><rect x="129.43" y="83.59" width="0.27" height="7.46"/><rect x="100.34" y="83.59" width="0.58" height="7.46"/><rect x="342.73" y="402.24" width="0.75" height="7.46" transform="translate(459.15 493.29) rotate(180)"/><rect x="114.56" y="83.59" width="0.58" height="7.46"/><rect x="113.75" y="83.59" width="0.29" height="7.46"/><rect x="113.16" y="83.59" width="0.29" height="7.46"/><rect x="111.98" y="83.59" width="0.58" height="7.46"/><rect x="110.52" y="83.59" width="0.94" height="7.46"/><rect x="109.86" y="83.59" width="0.32" height="7.46"/><rect x="109.27" y="83.59" width="0.32" height="7.46"/><rect x="107.96" y="83.59" width="0.91" height="7.46"/><rect x="106.81" y="83.59" width="0.35" height="7.46"/><rect x="105.63" y="83.59" width="0.6" height="7.46"/><rect x="104.8" y="83.59" width="0.27" height="7.46"/><rect x="104.3" y="83.59" width="0.27" height="7.46"/><rect x="103.81" y="83.59" width="0.27" height="7.46"/><rect x="102.81" y="83.59" width="0.58" height="7.46"/><rect x="101.43" y="83.59" width="0.63" height="7.46"/><rect x="130.14" y="83.59" width="0.66" height="7.46"/><rect x="131.24" y="83.59" width="0.27" height="7.46"/><rect x="131.74" y="83.59" width="0.27" height="7.46"/><rect x="132.24" y="83.59" width="0.27" height="7.46"/><rect x="132.92" y="83.59" width="0.58" height="7.46"/><rect x="133.87" y="83.59" width="0.92" height="7.46"/><rect x="116.76" y="83.59" width="0.25" height="7.46"/><rect x="117.27" y="83.59" width="0.25" height="7.46"/><g class="cls-25"><path class="cls-26" d="M370.25,328v-.32a3.83,3.83,0,0,0-3.82-3.83H310.59a3.83,3.83,0,0,0-3.82,3.83v63.8Z" transform="translate(-227.06 -318.65)"/></g><path class="cls-27" d="M340.1,402a23.36,23.36,0,1,1-14.23-29.82A23.35,23.35,0,0,1,340.1,402Z" transform="translate(-227.06 -318.65)"/><path class="cls-12" d="M328.53,397.85a11.15,11.15,0,1,1-6.79-14.24A11.16,11.16,0,0,1,328.53,397.85Z" transform="translate(-227.06 -318.65)"/><path class="cls-12" d="M341.4,392.59a13.52,13.52,0,0,0-6.18,17.46,23.4,23.4,0,0,0,6.18-17.46Z" transform="translate(-227.06 -318.65)"/><g class="cls-28"><path d="M341.75,398.32a2.67,2.67,0,0,1,1.17.81,2.78,2.78,0,0,1,.58,1.21,4.21,4.21,0,0,1,0,1.51,7.63,7.63,0,0,1-.46,1.69,7.79,7.79,0,0,1-.81,1.55,4.06,4.06,0,0,1-1,1.07,2.78,2.78,0,0,1-1.24.5,2.84,2.84,0,0,1-1.41-.2,3,3,0,0,1-1.18-.81,2.8,2.8,0,0,1-.58-1.2,4.16,4.16,0,0,1,0-1.5,7.56,7.56,0,0,1,.46-1.68,7.64,7.64,0,0,1,.81-1.56,4.32,4.32,0,0,1,1-1.09,2.94,2.94,0,0,1,1.25-.5A2.76,2.76,0,0,1,341.75,398.32Zm-.94,2.41a2.93,2.93,0,0,0-1-.23,1.53,1.53,0,0,0-.74.14,1.43,1.43,0,0,0-.51.43,2.52,2.52,0,0,0-.32.58,2.3,2.3,0,0,0-.15.64,1.29,1.29,0,0,0,.08.64,1.75,1.75,0,0,0,.45.6,3.73,3.73,0,0,0,1.94.76,1.84,1.84,0,0,0,.74-.14,1.43,1.43,0,0,0,.5-.41,2.52,2.52,0,0,0,.32-.58,2.38,2.38,0,0,0,.15-.64,1.37,1.37,0,0,0-.08-.66,1.66,1.66,0,0,0-.45-.61A2.83,2.83,0,0,0,340.81,400.73Z" transform="translate(-227.06 -318.65)"/></g><path class="cls-12" d="M294.76,395.72a13.55,13.55,0,0,0,6.18-17.46,23.4,23.4,0,0,0-6.18,17.46Z" transform="translate(-227.06 -318.65)"/><g class="cls-29"><path d="M299.13,382.48a2.91,2.91,0,0,1,.64,1.17,4.37,4.37,0,0,1,.1,1.51,7.52,7.52,0,0,1-.37,1.71,7.24,7.24,0,0,1-.72,1.59,4.34,4.34,0,0,1-1,1.13,2.85,2.85,0,0,1-1.21.56,2.93,2.93,0,0,1-1.42-.12,2.69,2.69,0,0,1-1.86-1.92,4.25,4.25,0,0,1-.11-1.49,6.88,6.88,0,0,1,.36-1.71,8.08,8.08,0,0,1,.72-1.6,4.29,4.29,0,0,1,1-1.14,2.69,2.69,0,0,1,2.63-.44A2.64,2.64,0,0,1,299.13,382.48ZM296.07,384a1.79,1.79,0,0,0-.74.19,1.48,1.48,0,0,0-.48.45,2.77,2.77,0,0,0-.29.6,2.34,2.34,0,0,0-.12.64,1.29,1.29,0,0,0,.13.64,1.57,1.57,0,0,0,.47.58,3.23,3.23,0,0,0,.95.47,3.06,3.06,0,0,0,1,.18,1.6,1.6,0,0,0,.73-.18,1.27,1.27,0,0,0,.48-.44,2.46,2.46,0,0,0,.28-.59,2.78,2.78,0,0,0,.13-.65,1.47,1.47,0,0,0-.12-.65,1.71,1.71,0,0,0-.48-.58,2.93,2.93,0,0,0-.94-.48A3.1,3.1,0,0,0,296.07,384Z" transform="translate(-227.06 -318.65)"/></g><path class="cls-12" d="M316.51,370.83A13.51,13.51,0,0,0,334,377a23.4,23.4,0,0,0-17.45-6.18Z" transform="translate(-227.06 -318.65)"/><g class="cls-30"><path d="M323,370.15a2.48,2.48,0,0,1,1.08-.59,4,4,0,0,1,1.37-.1,7.19,7.19,0,0,1,1.56.34,7,7,0,0,1,1.46.66,3.94,3.94,0,0,1,1,.89,2.67,2.67,0,0,1,.51,1.11,2.61,2.61,0,0,1-1.86,3,4,4,0,0,1-1.37.1,7.23,7.23,0,0,1-3-1,4.17,4.17,0,0,1-1-.89,2.69,2.69,0,0,1-.52-1.11,2.79,2.79,0,0,1,.8-2.41Zm1.4,2.8a1.34,1.34,0,0,0,.17.66,1.19,1.19,0,0,0,.41.45,2.24,2.24,0,0,0,.54.26,2.36,2.36,0,0,0,.59.11,1.35,1.35,0,0,0,.59-.11,1.61,1.61,0,0,0,.52-.44,2.65,2.65,0,0,0,.43-.86,2.81,2.81,0,0,0,.17-.95,1.6,1.6,0,0,0-.16-.66,1.24,1.24,0,0,0-.41-.44,1.93,1.93,0,0,0-.54-.26,2.36,2.36,0,0,0-.59-.11,1.11,1.11,0,0,0-.59.11,1.41,1.41,0,0,0-.54.43,3.25,3.25,0,0,0-.59,1.81Z" transform="translate(-227.06 -318.65)"/></g><path class="cls-12" d="M319.65,417.47a13.52,13.52,0,0,0-17.46-6.18,23.4,23.4,0,0,0,17.46,6.18Z" transform="translate(-227.06 -318.65)"/><g class="cls-31"><path d="M306.42,413.79a2.89,2.89,0,0,1,1.18-.64,4.29,4.29,0,0,1,1.5-.11,8.18,8.18,0,0,1,1.72.37,8.31,8.31,0,0,1,1.59.72,4.37,4.37,0,0,1,1.13,1,2.83,2.83,0,0,1,.55,1.21,2.71,2.71,0,0,1-.12,1.42,2.69,2.69,0,0,1-1.92,1.86,4.23,4.23,0,0,1-1.49.11,7.4,7.4,0,0,1-1.7-.36,7.61,7.61,0,0,1-1.6-.73,4.09,4.09,0,0,1-1.14-1,2.87,2.87,0,0,1-.57-1.21,2.71,2.71,0,0,1,.12-1.42A2.82,2.82,0,0,1,306.42,413.79Zm1.53,3.06a1.6,1.6,0,0,0,.19.73,1.25,1.25,0,0,0,.45.49,2.69,2.69,0,0,0,.59.29,2.41,2.41,0,0,0,.65.12,1.32,1.32,0,0,0,.64-.13,1.56,1.56,0,0,0,.57-.48,3.62,3.62,0,0,0,.65-2,1.49,1.49,0,0,0-.17-.73,1.36,1.36,0,0,0-.44-.48,2.28,2.28,0,0,0-.59-.28,2.88,2.88,0,0,0-.65-.13,1.47,1.47,0,0,0-.65.12,1.63,1.63,0,0,0-.59.48,2.94,2.94,0,0,0-.47.94A3.1,3.1,0,0,0,308,416.85Z" transform="translate(-227.06 -318.65)"/></g><path d="M321.91,396.16a9.69,9.69,0,0,1-1.28,2.37,5.48,5.48,0,0,1-1.54,1.42,3.66,3.66,0,0,1-1.7.52,4.29,4.29,0,0,1-3.23-1.26,3.64,3.64,0,0,1-.88-1.53,5.53,5.53,0,0,1-.17-2.08,9.85,9.85,0,0,1,.67-2.61,9.37,9.37,0,0,1,1.28-2.37,5.44,5.44,0,0,1,1.52-1.42,3.66,3.66,0,0,1,1.69-.52A4.09,4.09,0,0,1,320,389a4.23,4.23,0,0,1,1.49,1,3.68,3.68,0,0,1,.9,1.53,5.53,5.53,0,0,1,.17,2.08A9.79,9.79,0,0,1,321.91,396.16Zm-2.41-.94a10.64,10.64,0,0,0,.58-1.92,3.9,3.9,0,0,0,.07-1.28,1.48,1.48,0,0,0-.32-.78,1.42,1.42,0,0,0-.55-.4,1.32,1.32,0,0,0-1.41.29,4,4,0,0,0-.82,1,10.7,10.7,0,0,0-.86,1.81,10.23,10.23,0,0,0-.59,1.92,4.3,4.3,0,0,0-.08,1.29,1.47,1.47,0,0,0,.31.77,1.36,1.36,0,0,0,.54.39,1.5,1.5,0,0,0,.67.09,1.55,1.55,0,0,0,.76-.36,4.25,4.25,0,0,0,.83-1A10.64,10.64,0,0,0,319.5,395.22Z" transform="translate(-227.06 -318.65)"/><g class="cls-32"><path class="cls-33" d="M355.31,348.71c9.56,17.49-.46,41.34-22.36,53.28s-47.42,7.42-57-10.07.46-41.35,22.37-53.28S345.75,331.22,355.31,348.71Z" transform="translate(-227.06 -318.65)"/><path class="cls-34" d="M312,338.46c8.52-5.09,26.75,9.77,40.71,33.2s18.38,46.55,9.86,51.64-26.75-9.78-40.71-33.2S303.5,343.55,312,338.46Z" transform="translate(-227.06 -318.65)"/><g class="cls-35"><path class="cls-36" d="M338.15,385.44a21.41,21.41,0,0,0-19.66-13.12c-.46,0-.92,0-1.37,0a21.43,21.43,0,0,1,18.26,13.08,22.06,22.06,0,0,1,0,17.22,21.43,21.43,0,0,1-18.26,13.08c.45,0,.91.05,1.37.05a21.42,21.42,0,0,0,19.66-13.13,22.06,22.06,0,0,0,0-17.22Z" transform="translate(-227.06 -318.65)"/></g><path class="cls-37" d="M332.59,369.74c3.83,7.07-.71,16.94-10.16,22.05s-20.21,3.52-24.05-3.55.71-16.94,10.16-22.05S328.75,362.67,332.59,369.74Z" transform="translate(-227.06 -318.65)"/><path class="cls-38" d="M325,376c1.28,3.11-1.47,7.19-6.15,9.12s-9.51,1-10.8-2.12,1.47-7.19,6.15-9.12S323.7,372.9,325,376Z" transform="translate(-227.06 -318.65)"/><path class="cls-39" d="M338.76,436.05c-30.28,9.46-57.28,9.34-60.3-.26s19.09-25.06,49.37-34.52,57.29-9.34,60.31.27S369.05,426.59,338.76,436.05Z" transform="translate(-227.06 -318.65)"/><path class="cls-40" d="M296.26,432.71c-19.59-9-32.24-23.35-28.24-32.11s23.11-8.59,42.7.38S343,424.33,339,433.09,315.85,441.68,296.26,432.71Z" transform="translate(-227.06 -318.65)"/><path class="cls-41" d="M281.32,398.5c-7.14-20.33-5.56-39.41,3.53-42.61s22.22,10.68,29.36,31,5.55,39.41-3.53,42.62S288.45,418.83,281.32,398.5Z" transform="translate(-227.06 -318.65)"/><path class="cls-42" d="M256.87,410.58c-9.08-20.89-9.45-40.88-.81-44.66s23,10.1,32.1,31,9.45,40.88.81,44.66S266,431.46,256.87,410.58Z" transform="translate(-227.06 -318.65)"/><g class="cls-43"><path class="cls-44" d="M319.86,391.23a1.35,1.35,0,0,0-1.21-.49,1.47,1.47,0,0,0-.75.36,4.09,4.09,0,0,0-.82,1,10.75,10.75,0,0,0-.89,1.8,10.51,10.51,0,0,0-.61,1.92,4.27,4.27,0,0,0-.09,1.28,1.32,1.32,0,0,0,.83,1.18,1.38,1.38,0,0,0,1.44-.26,4.14,4.14,0,0,0,.83-1,10.67,10.67,0,0,0,.9-1.8,10.87,10.87,0,0,0,.6-1.91,4,4,0,0,0,.08-1.29A1.47,1.47,0,0,0,319.86,391.23Z" transform="translate(-227.06 -318.65)"/><path class="cls-45" d="M321.86,383.63A11.16,11.16,0,1,0,328.49,398,11.17,11.17,0,0,0,321.86,383.63Zm0,12.55a9.81,9.81,0,0,1-1.3,2.36,5.55,5.55,0,0,1-1.56,1.39,3.65,3.65,0,0,1-1.7.51,4.14,4.14,0,0,1-1.75-.32,4.08,4.08,0,0,1-1.47-1,3.71,3.71,0,0,1-.86-1.54,5.57,5.57,0,0,1-.15-2.08,9.85,9.85,0,0,1,.7-2.6,9.62,9.62,0,0,1,1.31-2.36,5.26,5.26,0,0,1,1.54-1.4,3.64,3.64,0,0,1,1.69-.51,4.13,4.13,0,0,1,1.74.32,4.21,4.21,0,0,1,1.48,1,3.68,3.68,0,0,1,.88,1.54,5.83,5.83,0,0,1,.15,2.09A9.48,9.48,0,0,1,321.88,396.18Z" transform="translate(-227.06 -318.65)"/></g></g><path class="cls-46" d="M306.58,388.23a25.12,25.12,0,1,1-30.67-17.92A25.11,25.11,0,0,1,306.58,388.23Z" transform="translate(-227.06 -318.65)"/><path class="cls-12" d="M293.88,391.57A12,12,0,1,1,279.24,383,12,12,0,0,1,293.88,391.57Z" transform="translate(-227.06 -318.65)"/><path class="cls-12" d="M302.06,379.13a14.54,14.54,0,0,0,5.06,19.25,25.09,25.09,0,0,0-5.06-19.25Z" transform="translate(-227.06 -318.65)"/><g class="cls-47"><path d="M302.93,385.32l.67-.08a1.09,1.09,0,0,1,.49,0,1.93,1.93,0,0,1,.32.13l4.83,2.16a.87.87,0,0,1,.29.26,1.11,1.11,0,0,1,.23.5l.32,1.17-4.44-1.82a4.11,4.11,0,0,1-.42-.21,3.08,3.08,0,0,1-.38-.28l1.11,4.15a1.1,1.1,0,0,1,0,.18.47.47,0,0,1,0,.17.69.69,0,0,1-.07.15.19.19,0,0,1-.1.08l-1,.43Z" transform="translate(-227.06 -318.65)"/></g><path class="cls-12" d="M262.5,410.09a14.52,14.52,0,0,0-5.05-19.25,25.14,25.14,0,0,0,5.05,19.25Z" transform="translate(-227.06 -318.65)"/><g class="cls-48"><path d="M261.81,403.69l-.8.08a1.37,1.37,0,0,1-.59,0,3.89,3.89,0,0,1-.39-.16l-5.81-2.68a1.19,1.19,0,0,1-.36-.3,2,2,0,0,1-.28-.62l-.38-1.43,5.34,2.24.5.27a3.72,3.72,0,0,1,.47.34l-1.36-5.08a.53.53,0,0,1,0-.22.76.76,0,0,1,0-.21.89.89,0,0,1,.08-.17.33.33,0,0,1,.13-.11l1.14-.51Z" transform="translate(-227.06 -318.65)"/></g><path class="cls-12" d="M266.8,374.83a14.55,14.55,0,0,0,19.26-5.06,25.13,25.13,0,0,0-19.26,5.06Z" transform="translate(-227.06 -318.65)"/><g class="cls-49"><path d="M272.72,374.27l-.09-.81a1.33,1.33,0,0,1,.05-.58,2.42,2.42,0,0,1,.16-.39l2.67-5.81a1,1,0,0,1,.31-.36,1.71,1.71,0,0,1,.62-.28l1.43-.38L275.62,371a3.9,3.9,0,0,1-.6,1l5.07-1.36.22,0a.65.65,0,0,1,.21,0,.49.49,0,0,1,.18.08.35.35,0,0,1,.1.12l.51,1.15Z" transform="translate(-227.06 -318.65)"/></g><path class="cls-12" d="M297.77,414.39a14.52,14.52,0,0,0-19.25,5.05,25.14,25.14,0,0,0,19.25-5.05Z" transform="translate(-227.06 -318.65)"/><g class="cls-50"><path d="M292.3,414.83l.09.8a1.36,1.36,0,0,1-.05.59,2.42,2.42,0,0,1-.16.39l-2.67,5.81a1.42,1.42,0,0,1-.31.36,1.9,1.9,0,0,1-.62.28l-1.43.38,2.24-5.34c.09-.18.18-.35.27-.5a4.62,4.62,0,0,1,.34-.47l-5.07,1.36a.91.91,0,0,1-.23,0l-.2,0a.75.75,0,0,1-.18-.08.4.4,0,0,1-.11-.12l-.5-1.15Z" transform="translate(-227.06 -318.65)"/></g><g class="cls-51"><path class="cls-52" d="M297.5,354.73c12.13,13,7.72,36.83-9.84,53.1S246,426.71,233.9,413.66s-7.71-36.82,9.85-53.09S285.38,341.68,297.5,354.73Z" transform="translate(-227.06 -318.65)"/><path class="cls-53" d="M295.28,371.83c3.71,6.65-1.95,16.86-12.63,22.78s-22.34,5.34-26-1.31,1.95-16.86,12.64-22.79S291.58,365.17,295.28,371.83Z" transform="translate(-227.06 -318.65)"/><path class="cls-54" d="M279.68,377.1c2.28,2.79.42,8.09-4.16,11.83s-10.15,4.5-12.43,1.71-.43-8.1,4.15-11.84S277.39,374.3,279.68,377.1Z" transform="translate(-227.06 -318.65)"/><path class="cls-55" d="M287.3,350.5c10.12-5,24.81,4.22,32.82,20.55s6.3,33.59-3.83,38.57-24.81-4.22-32.82-20.54S277.17,355.48,287.3,350.5Z" transform="translate(-227.06 -318.65)"/><g class="cls-56"><path class="cls-57" d="M261.49,382.86a23,23,0,0,1,22.6-11.53c.49.05,1,.13,1.45.22a23,23,0,0,0-21.1,11.66,23.65,23.65,0,0,0-2.16,18.37,23,23,0,0,0,17.84,16.22c-.49,0-1-.06-1.46-.12a23,23,0,0,1-19.32-16.45,23.72,23.72,0,0,1,2.15-18.37Z" transform="translate(-227.06 -318.65)"/></g><g class="cls-58"><path class="cls-59" d="M305.22,388a23,23,0,0,0-19.32-16.45c-.49-.06-1-.09-1.47-.12a23,23,0,0,1,17.84,16.22A23.72,23.72,0,0,1,300.12,406,23,23,0,0,1,279,417.67c.48.08,1,.16,1.45.22a23,23,0,0,0,22.6-11.53A23.66,23.66,0,0,0,305.22,388Z" transform="translate(-227.06 -318.65)"/></g><path class="cls-60" d="M303.18,441c-22.44,6.51-43.12,3.3-46.18-7.19s12.65-24.26,35.1-30.77,43.13-3.3,46.19,7.18S325.63,434.44,303.18,441Z" transform="translate(-227.06 -318.65)"/><path class="cls-61" d="M261,438.51c-20-12.14-31.78-29.23-26.37-38.17s26-6.34,46,5.8,31.78,29.23,26.37,38.17S281,450.65,261,438.51Z" transform="translate(-227.06 -318.65)"/></g><text class="cls-62" transform="translate(52.46 83.35) rotate(-24.12) scale(1.06 1)">6</text></g></g></svg>