<svg xmlns="http://www.w3.org/2000/svg" xmlns:xlink="http://www.w3.org/1999/xlink" viewBox="0 0 245.16 99.32"><defs><style>.cls-1{fill:none;}.cls-2{isolation:isolate;}.cls-3{fill:url(#linear-gradient);}.cls-4{fill:url(#linear-gradient-2);}.cls-5{fill:url(#linear-gradient-3);}.cls-6{fill:url(#linear-gradient-4);}.cls-7{fill:url(#linear-gradient-5);}.cls-8{fill:url(#linear-gradient-6);}.cls-9{fill:url(#linear-gradient-7);}.cls-10{fill:url(#linear-gradient-8);}.cls-11{fill:url(#linear-gradient-9);}.cls-12{fill:url(#linear-gradient-10);}.cls-13{fill:url(#linear-gradient-11);}.cls-14{fill:url(#linear-gradient-12);}.cls-15{fill:url(#linear-gradient-13);}.cls-16{fill:url(#linear-gradient-14);}.cls-17{fill:url(#linear-gradient-15);}.cls-18{fill:url(#linear-gradient-16);}.cls-19{fill:url(#linear-gradient-17);}.cls-20{fill:url(#linear-gradient-18);}.cls-21{fill:url(#linear-gradient-19);}.cls-22{fill:url(#linear-gradient-20);}.cls-23{fill:url(#linear-gradient-21);}.cls-24{fill:url(#linear-gradient-22);}.cls-25{fill:url(#linear-gradient-23);}.cls-26{fill:url(#linear-gradient-24);}.cls-27{fill:url(#linear-gradient-25);}.cls-28{clip-path:url(#clip-path);}.cls-29,.cls-30,.cls-31,.cls-32,.cls-33{mix-blend-mode:screen;}.cls-29{fill:url(#radial-gradient);}.cls-30{fill:url(#radial-gradient-2);}.cls-31{fill:url(#radial-gradient-3);}.cls-32{fill:url(#radial-gradient-4);}.cls-33{fill:url(#radial-gradient-5);}.cls-34{clip-path:url(#clip-path-2);}.cls-35{fill:url(#linear-gradient-26);}.cls-36{fill:url(#linear-gradient-27);}.cls-37{fill:url(#linear-gradient-28);}.cls-38{fill:url(#linear-gradient-29);}.cls-39{fill:url(#linear-gradient-30);}.cls-40{fill:url(#linear-gradient-31);}.cls-41{fill:url(#linear-gradient-32);}.cls-42{fill:url(#linear-gradient-33);}.cls-43{fill:url(#linear-gradient-34);}.cls-44{fill:url(#linear-gradient-35);}.cls-45{fill:url(#linear-gradient-36);}.cls-46{fill:url(#linear-gradient-37);}.cls-47{fill:url(#linear-gradient-38);}.cls-48{fill:url(#linear-gradient-39);}.cls-49{fill:url(#linear-gradient-40);}.cls-50{fill:url(#linear-gradient-41);}.cls-51{fill:url(#linear-gradient-42);}.cls-52{fill:url(#linear-gradient-43);}.cls-53{fill:url(#linear-gradient-44);}.cls-54{fill:url(#linear-gradient-45);}.cls-55{fill:url(#linear-gradient-46);}.cls-56{fill:url(#linear-gradient-47);}.cls-57{fill:url(#linear-gradient-48);}.cls-58{fill:url(#linear-gradient-49);}.cls-59{fill:url(#linear-gradient-50);}.cls-60{fill:url(#linear-gradient-51);}.cls-61{fill:url(#linear-gradient-52);}.cls-62{fill:url(#linear-gradient-53);}.cls-63{fill:url(#linear-gradient-54);}.cls-64{fill:url(#linear-gradient-55);}.cls-65{fill:url(#linear-gradient-56);}.cls-66{fill:url(#linear-gradient-57);}.cls-67{fill:url(#linear-gradient-58);}.cls-68{fill:url(#linear-gradient-59);}.cls-69{fill:url(#linear-gradient-60);}.cls-70{fill:url(#linear-gradient-61);}.cls-71{fill:url(#linear-gradient-62);}.cls-72{fill:url(#linear-gradient-63);}.cls-73{fill:url(#linear-gradient-64);}.cls-74{fill:url(#linear-gradient-65);}.cls-75{fill:url(#linear-gradient-66);}.cls-76{fill:url(#linear-gradient-67);}.cls-77{fill:url(#linear-gradient-68);}.cls-78{fill:url(#linear-gradient-69);}.cls-79{fill:url(#linear-gradient-70);}.cls-80{fill:url(#linear-gradient-71);}.cls-81{fill:url(#linear-gradient-72);}.cls-82{fill:url(#linear-gradient-73);}.cls-83{fill:url(#linear-gradient-74);}.cls-84{fill:url(#linear-gradient-75);}.cls-85{fill:url(#linear-gradient-76);}.cls-86{fill:url(#linear-gradient-77);}.cls-87{fill:url(#linear-gradient-78);}.cls-88{fill:url(#linear-gradient-79);}.cls-89{fill:url(#linear-gradient-80);}.cls-90{fill:url(#linear-gradient-81);}.cls-91{fill:url(#linear-gradient-82);}.cls-92{fill:url(#linear-gradient-83);}.cls-93{fill:url(#linear-gradient-84);}.cls-94{fill:url(#linear-gradient-85);}.cls-95{fill:url(#linear-gradient-86);}</style><linearGradient id="linear-gradient" x1="97.64" y1="343.94" x2="112.2" y2="343.94" gradientTransform="translate(-61.3 29.25) rotate(-4.88)" gradientUnits="userSpaceOnUse"><stop offset="0" stop-color="#bf6811"/><stop offset="0.01" stop-color="#c37015"/><stop offset="0.09" stop-color="#dfa131"/><stop offset="0.14" stop-color="#f0c042"/><stop offset="0.18" stop-color="#f7cc48"/><stop offset="0.47" stop-color="#f7d678"/><stop offset="0.58" stop-color="#f5d788"/><stop offset="0.86" stop-color="#f7f3c4"/><stop offset="1" stop-color="#bf6811"/></linearGradient><linearGradient id="linear-gradient-2" x1="106.55" y1="351.18" x2="102.19" y2="334.17" gradientTransform="translate(-61.3 29.25) rotate(-4.88)" gradientUnits="userSpaceOnUse"><stop offset="0.05" stop-color="#c36600"/><stop offset="0.35" stop-color="#c46802"/><stop offset="0.53" stop-color="#c97109"/><stop offset="0.68" stop-color="#d07f15"/><stop offset="0.81" stop-color="#db9326"/><stop offset="0.93" stop-color="#e9ad3c"/><stop offset="1" stop-color="#f3c04c"/></linearGradient><linearGradient id="linear-gradient-3" x1="94.27" y1="332.92" x2="160.47" y2="401.18" gradientTransform="translate(-61.3 29.25) rotate(-4.88)" gradientUnits="userSpaceOnUse"><stop offset="0.1" stop-color="#bf6811"/><stop offset="0.3" stop-color="#f7cc48"/><stop offset="0.34" stop-color="#f7f5d0"/><stop offset="0.45" stop-color="#f2ae41"/><stop offset="0.58" stop-color="#f5c33f"/><stop offset="0.68" stop-color="#f7eaaa"/><stop offset="0.7" stop-color="#f7f3c4"/><stop offset="0.79" stop-color="#d08722"/><stop offset="0.88" stop-color="#f7cd52"/><stop offset="0.92" stop-color="#f5dea1"/><stop offset="1" stop-color="#bf6811"/></linearGradient><linearGradient id="linear-gradient-4" x1="74.69" y1="360.05" x2="100.24" y2="360.05" gradientTransform="translate(2.57 -1.16) rotate(0.19)" xlink:href="#linear-gradient"/><linearGradient id="linear-gradient-5" x1="89.27" y1="370.84" x2="80.57" y2="354.81" gradientTransform="translate(2.57 -1.16) rotate(0.19)" xlink:href="#linear-gradient-2"/><linearGradient id="linear-gradient-6" x1="67.19" y1="343.21" x2="133.39" y2="411.47" gradientTransform="translate(2.57 -1.16) rotate(0.19)" xlink:href="#linear-gradient-3"/><linearGradient id="linear-gradient-7" x1="59.11" y1="389.62" x2="80.88" y2="389.62" gradientTransform="translate(75.79 -32.11) rotate(5.79)" xlink:href="#linear-gradient"/><linearGradient id="linear-gradient-8" x1="76.1" y1="398.74" x2="65.38" y2="380.79" gradientTransform="translate(75.79 -32.11) rotate(5.79)" xlink:href="#linear-gradient-2"/><linearGradient id="linear-gradient-9" x1="43.43" y1="361.3" x2="109.63" y2="429.55" gradientTransform="translate(75.79 -32.11) rotate(5.79)" xlink:href="#linear-gradient-3"/><linearGradient id="linear-gradient-10" x1="143.66" y1="342.59" x2="167.56" y2="342.59" gradientTransform="translate(-54.87 31.51) rotate(-4.33)" gradientUnits="userSpaceOnUse"><stop offset="0.04" stop-color="#bf6811"/><stop offset="0.06" stop-color="#c37015"/><stop offset="0.16" stop-color="#dfa131"/><stop offset="0.24" stop-color="#f0c042"/><stop offset="0.28" stop-color="#f7cc48"/><stop offset="0.47" stop-color="#f7d678"/><stop offset="0.58" stop-color="#f5d788"/><stop offset="0.86" stop-color="#f7f3c4"/><stop offset="1" stop-color="#bf6811"/></linearGradient><linearGradient id="linear-gradient-11" x1="155.22" y1="352.45" x2="155.46" y2="332.8" gradientTransform="translate(-54.87 31.51) rotate(-4.33)" gradientUnits="userSpaceOnUse"><stop offset="0.05" stop-color="#c36600"/><stop offset="0.23" stop-color="#c56a04"/><stop offset="0.41" stop-color="#cb7710"/><stop offset="0.61" stop-color="#d48c25"/><stop offset="0.8" stop-color="#e2a941"/><stop offset="1" stop-color="#f3cf65"/></linearGradient><linearGradient id="linear-gradient-12" x1="119.33" y1="305.54" x2="185.53" y2="373.8" gradientTransform="translate(-54.87 31.51) rotate(-4.33)" xlink:href="#linear-gradient-3"/><linearGradient id="linear-gradient-13" x1="97.27" y1="393.12" x2="117.1" y2="393.12" gradientTransform="translate(77.92 -38.75) rotate(5.94)" gradientUnits="userSpaceOnUse"><stop offset="0" stop-color="#bf6811"/><stop offset="0.01" stop-color="#c37015"/><stop offset="0.08" stop-color="#dfa131"/><stop offset="0.13" stop-color="#f0c042"/><stop offset="0.16" stop-color="#f7cc48"/><stop offset="0.4" stop-color="#f6ebb4"/><stop offset="0.6" stop-color="#f5d788"/><stop offset="0.86" stop-color="#f7f3c4"/><stop offset="1" stop-color="#bf6811"/></linearGradient><linearGradient id="linear-gradient-14" x1="134.52" y1="383.26" x2="121.64" y2="363.51" gradientTransform="matrix(1, 0.04, -0.04, 1, 28.37, -14.91)" xlink:href="#linear-gradient-11"/><linearGradient id="linear-gradient-15" x1="84.12" y1="328.35" x2="150.32" y2="396.61" gradientTransform="matrix(1, 0.04, -0.04, 1, 28.37, -14.91)" xlink:href="#linear-gradient-3"/><linearGradient id="linear-gradient-16" x1="146.2" y1="362.24" x2="171.21" y2="362.24" gradientTransform="matrix(1, 0, 0, 1, 0, 0)" xlink:href="#linear-gradient"/><linearGradient id="linear-gradient-17" x1="163.44" y1="371.99" x2="153.73" y2="353.13" gradientTransform="matrix(1, 0, 0, 1, 0, 0)" xlink:href="#linear-gradient-2"/><linearGradient id="linear-gradient-18" x1="104.98" y1="307.02" x2="171.18" y2="375.28" gradientTransform="matrix(1, 0, 0, 1, 0, 0)" xlink:href="#linear-gradient-3"/><linearGradient id="linear-gradient-19" x1="177.29" y1="413.67" x2="187.16" y2="413.67" gradientTransform="matrix(0.99, 0.12, -0.12, 0.99, 56.87, -70.38)" xlink:href="#linear-gradient"/><linearGradient id="linear-gradient-20" x1="188.35" y1="423.97" x2="182.47" y2="410.33" gradientTransform="matrix(0.99, 0.12, -0.12, 0.99, 56.87, -70.38)" gradientUnits="userSpaceOnUse"><stop offset="0.05" stop-color="#df872c"/><stop offset="0.23" stop-color="#e08b30"/><stop offset="0.4" stop-color="#e2953b"/><stop offset="0.56" stop-color="#e6a74e"/><stop offset="0.72" stop-color="#ecc068"/><stop offset="0.88" stop-color="#f3e08a"/><stop offset="0.88" stop-color="#f3e18b"/></linearGradient><linearGradient id="linear-gradient-21" x1="183.8" y1="425.93" x2="177.93" y2="412.29" xlink:href="#linear-gradient-20"/><linearGradient id="linear-gradient-22" x1="212.54" y1="327.59" x2="227.72" y2="351.82" gradientTransform="translate(-58.3 41.77) rotate(-4.64)" gradientUnits="userSpaceOnUse"><stop offset="0.04" stop-color="#bf6811"/><stop offset="0.25" stop-color="#f7cc48"/><stop offset="0.34" stop-color="#f7f5d0"/><stop offset="0.44" stop-color="#f2ae41"/><stop offset="0.67" stop-color="#f7c741"/><stop offset="0.77" stop-color="#f7f3c4"/><stop offset="0.86" stop-color="#f7cd52"/><stop offset="1" stop-color="#bf6811"/></linearGradient><linearGradient id="linear-gradient-23" x1="182.03" y1="350.76" x2="202.29" y2="350.76" gradientTransform="translate(-31.5 21.12) rotate(-2.47)" xlink:href="#linear-gradient"/><linearGradient id="linear-gradient-24" x1="197.63" y1="359.15" x2="190.75" y2="340.14" gradientTransform="translate(-31.5 21.12) rotate(-2.47)" xlink:href="#linear-gradient-2"/><linearGradient id="linear-gradient-25" x1="130.87" y1="284.91" x2="197.07" y2="353.17" gradientTransform="translate(-31.5 21.12) rotate(-2.47)" xlink:href="#linear-gradient-3"/><clipPath id="clip-path" transform="translate(-29.96 -304.13)"><path class="cls-1" d="M192.67,350l-6.34-.77a1.31,1.31,0,0,0-1.46,1.15l-.08.65a1.26,1.26,0,0,0-.82-.28l-17.77.77a1.23,1.23,0,0,0-.65.22,11.6,11.6,0,0,0-1.79-.92,13.91,13.91,0,0,0-10.08,0,12.21,12.21,0,0,0-3.29,2,10,10,0,0,0-2.16-1.12,13.72,13.72,0,0,0-4.26-.77l-7.22-.27.19-.3a1.24,1.24,0,0,0-1.14-1.89l-6.21.47a5.07,5.07,0,0,0-2,.55,4.43,4.43,0,0,0-1.68,1.58l-2,3.37-.29-3.81a1.24,1.24,0,0,0-1.33-1.14l-6.82.52a1.24,1.24,0,0,0-1.14,1.33l.09,1.18a10.45,10.45,0,0,0-1.15-.71,12.4,12.4,0,0,0-4.66-1.38,12.48,12.48,0,0,0-4.91.42,11.42,11.42,0,0,0-4.13,2.2,11.77,11.77,0,0,0-2.89,3.67l-.07.18-3.47-9a1.23,1.23,0,0,0-1.15-.8H85.78a1.25,1.25,0,0,0-1.16.79l-5,12.79-.79-9.18a1.22,1.22,0,0,0-1.33-1.12l-6.83.58a1.23,1.23,0,0,0-1.12,1.34l1.16,13.6a5,5,0,0,1,0,1.14v0h-.08a1.59,1.59,0,0,1-.29,0,3.63,3.63,0,0,0-3.28,1,3.25,3.25,0,0,0-.89,2.23l0,3.65a1.22,1.22,0,0,0,1,1.23l1,.15a14.92,14.92,0,0,0,1.85.16,17.35,17.35,0,0,0,1.76-.06,9.86,9.86,0,0,0,3.79-1A8,8,0,0,0,78.36,372a6.9,6.9,0,0,0,.43-.67h3.7a3.92,3.92,0,0,0,2.44-.81,4,4,0,0,0,1.28-1.68l.64-1.86h3.94l.59,1.76.07.19a4.07,4.07,0,0,0,1.29,1.66,3.9,3.9,0,0,0,2.4.77h3.17a11.48,11.48,0,0,0,2.79,2.17,12.31,12.31,0,0,0,4.8,1.44,12.67,12.67,0,0,0,5.23-.46,9.82,9.82,0,0,0,4.17-2.64l.54-.58.13,1.78a1.24,1.24,0,0,0,1.33,1.14l6.83-.52a1.23,1.23,0,0,0,1.14-1.32l-.37-4.79,3,3.92a5.26,5.26,0,0,0,.59.64,4,4,0,0,0,1,.65,4.28,4.28,0,0,0,1.17.31,5.92,5.92,0,0,0,1.12,0l2.08-.16,0,.65a1.23,1.23,0,0,0,1.19,1.28l6.84.26a1.24,1.24,0,0,0,1.28-1.19l.2-5.26a13.19,13.19,0,0,0,4.21-.45l.07,0a11.31,11.31,0,0,0,2,2.8,11.87,11.87,0,0,0,4,2.64,13.34,13.34,0,0,0,5,.93,13.15,13.15,0,0,0,5-.94,11.64,11.64,0,0,0,4-2.64,11.79,11.79,0,0,0,2.57-3.94,12.42,12.42,0,0,0,.69-2.44l.42,9.75a1.23,1.23,0,0,0,1.29,1.18l6.84-.29a1.25,1.25,0,0,0,1.18-1.29l-.63-14.62,3.69-.16,0,.26a24.42,24.42,0,0,0-.17,2.83q0,1.35.09,2.76l.09,1.24a4.52,4.52,0,0,0-1.07,1.27,4.57,4.57,0,0,0-.63,1.85h0a4.75,4.75,0,0,0,.16,2,4.77,4.77,0,0,0,2.3,2.88,5.23,5.23,0,0,0,1.85.6,5,5,0,0,0,1.93-.14,4.8,4.8,0,0,0,1.67-.81,4.67,4.67,0,0,0,1.27-1.42,4.87,4.87,0,0,0,.62-1.86,4.78,4.78,0,0,0-.16-2,4.64,4.64,0,0,0-.67-1.4l.4-1.26c.3-.92.56-1.84.78-2.75a22.31,22.31,0,0,0,.49-2.69l1.1-9A1.32,1.32,0,0,0,192.67,350Zm-48.13,9.69a1.3,1.3,0,0,1-.14.67,2,2,0,0,1-.73.08l.05-1.36a2.2,2.2,0,0,1,.63.11c.11,0,.14.07.15.11A.9.9,0,0,1,144.54,359.72Zm17.24,2.51a6.18,6.18,0,0,1-.25,1.87,3.26,3.26,0,0,1-.6,1.11,2.18,2.18,0,0,1-.83.58,3.52,3.52,0,0,1-1.38.24,3.77,3.77,0,0,1-1.42-.24,2.22,2.22,0,0,1-.82-.58,3.26,3.26,0,0,1-.6-1.11,6.18,6.18,0,0,1-.25-1.87,6,6,0,0,1,.25-1.85,3.22,3.22,0,0,1,.6-1.12,2.24,2.24,0,0,1,.84-.59,3.62,3.62,0,0,1,1.4-.24,3.5,3.5,0,0,1,1.37.24,2.24,2.24,0,0,1,.84.59,3.22,3.22,0,0,1,.6,1.12A6,6,0,0,1,161.78,362.23Zm-27.59,2.31L131,360.35a1.43,1.43,0,0,0-.15-.18l3.75-6Zm-20.37,2.09a3.29,3.29,0,0,0-3.66-1,4.06,4.06,0,0,0-.91.45l-.07.06a3.12,3.12,0,0,1-.45.28,2.13,2.13,0,0,1-.33.11,2.59,2.59,0,0,1-.51.05,3.8,3.8,0,0,1-1.84-.35,2.39,2.39,0,0,1-.74-.68,3.51,3.51,0,0,1-.52-1.22,5.38,5.38,0,0,1-.08-1.87,6.34,6.34,0,0,1,.44-1.88,3.36,3.36,0,0,1,.69-1.05,2.09,2.09,0,0,1,.8-.49,2.57,2.57,0,0,1,1.09-.1,3.83,3.83,0,0,1,.74.14,2.78,2.78,0,0,1,.51.2,1.23,1.23,0,0,1,.26.15l.48.38.4.3a3.74,3.74,0,0,0,2,.68,3.25,3.25,0,0,0,1.75-.46,4.92,4.92,0,0,0,.89-.73l.14-.15.73,9.6Z"/></clipPath><radialGradient id="radial-gradient" cx="-243.33" cy="589.37" r="19.14" gradientTransform="matrix(-2.23, 1.72, -0.12, -0.16, -370.66, 873.23)" gradientUnits="userSpaceOnUse"><stop offset="0" stop-color="#ffdb75"/><stop offset="0.09" stop-color="#f3d16f"/><stop offset="0.25" stop-color="#d3b561"/><stop offset="0.46" stop-color="#9f8849"/><stop offset="0.72" stop-color="#574b28"/><stop offset="1"/></radialGradient><radialGradient id="radial-gradient-2" cx="-251.89" cy="436.97" r="19.14" xlink:href="#radial-gradient"/><radialGradient id="radial-gradient-3" cx="-249.64" cy="33.05" r="19.13" gradientTransform="matrix(-2.23, 1.72, -0.15, -0.19, -431.78, 793.71)" xlink:href="#radial-gradient"/><radialGradient id="radial-gradient-4" cx="-266.86" cy="333.86" r="19.14" xlink:href="#radial-gradient"/><radialGradient id="radial-gradient-5" cx="-238.78" cy="366.86" r="19.14" gradientTransform="matrix(-2.23, 1.72, -0.14, -0.18, -402.66, 831.2)" xlink:href="#radial-gradient"/><clipPath id="clip-path-2" transform="translate(-29.96 -304.13)"><rect class="cls-1" x="31.97" y="308.35" width="386.06" height="66.13"/></clipPath><linearGradient id="linear-gradient-26" x1="988.59" y1="941.02" x2="987.53" y2="935.04" gradientTransform="matrix(-0.41, 0.58, -0.82, -0.58, 1318.92, 283.71)" gradientUnits="userSpaceOnUse"><stop offset="0" stop-color="#f9a000"/><stop offset="0.17" stop-color="#f9a503"/><stop offset="0.37" stop-color="#fbb20b"/><stop offset="0.57" stop-color="#fdc819"/><stop offset="0.72" stop-color="#ffde26"/><stop offset="0.98" stop-color="#ffe42d"/></linearGradient><linearGradient id="linear-gradient-27" x1="1182.78" y1="721.98" x2="1181.76" y2="716.24" gradientTransform="matrix(-0.9, 0.44, -0.58, -1.17, 1540.83, 637.49)" xlink:href="#linear-gradient-26"/><linearGradient id="linear-gradient-28" x1="488.27" y1="-89.89" x2="487.4" y2="-94.78" gradientTransform="matrix(0.33, -0.94, 1.18, 0.41, 22.7, 807.37)" xlink:href="#linear-gradient-26"/><linearGradient id="linear-gradient-29" x1="459.43" y1="-85.89" x2="458.56" y2="-90.78" gradientTransform="matrix(0.33, -0.94, 1.18, 0.41, 22.7, 807.37)" xlink:href="#linear-gradient-26"/><linearGradient id="linear-gradient-30" x1="1371.47" y1="290.89" x2="1370.34" y2="284.51" gradientTransform="matrix(-0.89, -0.45, 0.45, -0.89, 1134.82, 1187.23)" xlink:href="#linear-gradient-26"/><linearGradient id="linear-gradient-31" x1="1262.53" y1="140.99" x2="1261.52" y2="135.29" gradientTransform="translate(1019.56 1136.69) rotate(-146.44)" xlink:href="#linear-gradient-26"/><linearGradient id="linear-gradient-32" x1="106.66" y1="620.74" x2="105.69" y2="615.27" gradientTransform="translate(461 -258.92) rotate(32.73)" xlink:href="#linear-gradient-26"/><linearGradient id="linear-gradient-33" x1="311" y1="-221.49" x2="309.94" y2="-227.47" gradientTransform="matrix(0.41, -0.58, 0.82, 0.58, 137.69, 618.57)" xlink:href="#linear-gradient-26"/><linearGradient id="linear-gradient-34" x1="114.65" y1="85.54" x2="113.64" y2="79.8" gradientTransform="matrix(0.9, -0.44, 0.58, 1.17, -84.22, 264.78)" gradientUnits="userSpaceOnUse"><stop offset="0" stop-color="#0091e5"/><stop offset="0.28" stop-color="#008ce2"/><stop offset="0.6" stop-color="#007fd8"/><stop offset="0.93" stop-color="#0069c8"/><stop offset="1" stop-color="#0063c4"/></linearGradient><linearGradient id="linear-gradient-35" x1="-303.91" y1="620.07" x2="-304.99" y2="613.99" gradientTransform="matrix(0.62, 0.43, -0.57, 0.82, 598.69, -63.49)" xlink:href="#linear-gradient-26"/><linearGradient id="linear-gradient-36" x1="190.17" y1="776.98" x2="189.31" y2="772.09" gradientTransform="matrix(0.52, 0.86, -1.07, 0.65, 931.28, -349.66)" xlink:href="#linear-gradient-26"/><linearGradient id="linear-gradient-37" x1="227.06" y1="770.66" x2="226.19" y2="765.77" gradientTransform="matrix(0.52, 0.86, -1.07, 0.65, 931.28, -349.66)" xlink:href="#linear-gradient-26"/><linearGradient id="linear-gradient-38" x1="597.34" y1="-208.37" x2="596.43" y2="-213.52" gradientTransform="matrix(0.26, -0.74, 0.86, 0.3, 193.14, 815.21)" xlink:href="#linear-gradient-26"/><linearGradient id="linear-gradient-39" x1="312.68" y1="1098.91" x2="311.55" y2="1092.52" gradientTransform="matrix(-0.36, 0.66, -0.88, -0.48, 1268.12, 647.15)" xlink:href="#linear-gradient-26"/><linearGradient id="linear-gradient-40" x1="153.3" y1="189.5" x2="152.28" y2="183.77" gradientTransform="matrix(1, 0, 0, 1.28, 11.62, 81.09)" xlink:href="#linear-gradient-26"/><linearGradient id="linear-gradient-41" x1="634.33" y1="852.94" x2="632.99" y2="845.34" gradientTransform="translate(1227.77 428.08) rotate(132.91)" xlink:href="#linear-gradient-26"/><linearGradient id="linear-gradient-42" x1="1253.22" y1="606.35" x2="1252.19" y2="600.5" gradientTransform="translate(1394.71 791.4) rotate(174.7)" xlink:href="#linear-gradient-26"/><linearGradient id="linear-gradient-43" x1="1078.33" y1="848.67" x2="1077.43" y2="843.58" gradientTransform="matrix(-0.86, 0.51, -0.51, -0.86, 1498.18, 484.55)" xlink:href="#linear-gradient-26"/><linearGradient id="linear-gradient-44" x1="1137.73" y1="707.39" x2="1136.71" y2="701.65" gradientTransform="matrix(-0.9, 0.44, -0.58, -1.17, 1540.83, 637.49)" xlink:href="#linear-gradient-26"/><linearGradient id="linear-gradient-45" x1="523.68" y1="-5.08" x2="522.81" y2="-9.97" gradientTransform="matrix(0.33, -0.94, 1.18, 0.41, 22.7, 807.37)" xlink:href="#linear-gradient-26"/><linearGradient id="linear-gradient-46" x1="766.68" y1="1101.77" x2="765.77" y2="1096.62" gradientTransform="matrix(-0.26, 0.74, -0.86, -0.3, 1263.47, 87.07)" xlink:href="#linear-gradient-34"/><linearGradient id="linear-gradient-47" x1="65.59" y1="472.76" x2="64.46" y2="466.37" gradientTransform="matrix(0.66, 0.35, -0.47, 0.88, 264.7, -112.23)" xlink:href="#linear-gradient-26"/><linearGradient id="linear-gradient-48" x1="35.45" y1="664.99" x2="34.49" y2="659.52" gradientTransform="translate(461 -258.92) rotate(32.73)" gradientUnits="userSpaceOnUse"><stop offset="0" stop-color="#c1272d"/><stop offset="0.49" stop-color="#c1272d"/><stop offset="0.69" stop-color="#e22915"/><stop offset="0.87" stop-color="#f72a06"/><stop offset="0.98" stop-color="#ff2a00"/></linearGradient><linearGradient id="linear-gradient-49" x1="196.47" y1="115.72" x2="195.45" y2="109.98" gradientTransform="matrix(0.9, -0.44, 0.58, 1.17, -84.22, 264.78)" xlink:href="#linear-gradient-26"/><linearGradient id="linear-gradient-50" x1="-169.44" y1="240.64" x2="-170.51" y2="234.55" gradientTransform="matrix(0.75, -0.02, 0.03, 1, 245.72, 67.56)" xlink:href="#linear-gradient-26"/><linearGradient id="linear-gradient-51" x1="1103.01" y1="842.71" x2="1102.11" y2="837.62" gradientTransform="matrix(-0.86, 0.51, -0.51, -0.86, 1498.18, 484.55)" xlink:href="#linear-gradient-26"/><linearGradient id="linear-gradient-52" x1="1353.73" y1="589.98" x2="1352.51" y2="583.08" gradientTransform="matrix(-0.74, 0.19, -0.36, -1.37, 1258.58, 864.8)" xlink:href="#linear-gradient-48"/><linearGradient id="linear-gradient-53" x1="1051.6" y1="843.33" x2="1050.47" y2="836.98" gradientTransform="matrix(-0.6, 0.53, -0.66, -0.75, 1369.6, 400.51)" xlink:href="#linear-gradient-48"/><linearGradient id="linear-gradient-54" x1="1119.35" y1="721.21" x2="1118.29" y2="715.2" gradientTransform="matrix(-0.7, 0.29, -0.38, -0.92, 1219.63, 671.83)" xlink:href="#linear-gradient-48"/><linearGradient id="linear-gradient-55" x1="1244.13" y1="602.98" x2="1243.1" y2="597.13" gradientTransform="translate(1394.71 791.4) rotate(174.7)" xlink:href="#linear-gradient-48"/><linearGradient id="linear-gradient-56" x1="1140.59" y1="559.73" x2="1139.55" y2="553.88" gradientTransform="matrix(-1, -0.09, 0.09, -1, 1158.87, 974.52)" xlink:href="#linear-gradient-48"/><linearGradient id="linear-gradient-57" x1="1114.37" y1="628.19" x2="1113.24" y2="621.8" gradientTransform="translate(1423.57 730.11) rotate(169.43)" xlink:href="#linear-gradient-34"/><linearGradient id="linear-gradient-58" x1="302.02" y1="776.06" x2="300.9" y2="769.67" gradientTransform="translate(322.68 -461.58) rotate(41.78)" xlink:href="#linear-gradient-34"/><linearGradient id="linear-gradient-59" x1="-10.26" y1="693.38" x2="-11.22" y2="687.92" gradientTransform="translate(461 -258.92) rotate(32.73)" xlink:href="#linear-gradient-34"/><linearGradient id="linear-gradient-60" x1="-83.4" y1="96.26" x2="-84.47" y2="90.17" gradientTransform="matrix(0.71, -0.25, 0.34, 0.94, 164.19, 218.61)" xlink:href="#linear-gradient-34"/><linearGradient id="linear-gradient-61" x1="1010.81" y1="791.02" x2="1009.91" y2="785.94" gradientTransform="matrix(-0.86, 0.51, -0.51, -0.86, 1498.18, 484.55)" xlink:href="#linear-gradient-26"/><linearGradient id="linear-gradient-62" x1="-144.33" y1="467.17" x2="-145.4" y2="461.08" gradientTransform="matrix(0.73, 0.19, -0.25, 0.97, 461.19, -92.51)" xlink:href="#linear-gradient-48"/><linearGradient id="linear-gradient-63" x1="1098.17" y1="3.16" x2="1097.07" y2="-3.05" gradientTransform="matrix(-0.66, -0.75, 0.75, -0.66, 830.84, 1135.43)" xlink:href="#linear-gradient-26"/><linearGradient id="linear-gradient-64" x1="1230.94" y1="656.19" x2="1229.81" y2="649.81" gradientTransform="translate(1423.57 730.11) rotate(169.43)" xlink:href="#linear-gradient-26"/><linearGradient id="linear-gradient-65" x1="1244.91" y1="108.72" x2="1243.91" y2="103.02" gradientTransform="translate(1019.56 1136.69) rotate(-146.44)" xlink:href="#linear-gradient-34"/><linearGradient id="linear-gradient-66" x1="1155.03" y1="706.49" x2="1154.01" y2="700.76" gradientTransform="matrix(-0.9, 0.44, -0.58, -1.17, 1540.83, 637.49)" xlink:href="#linear-gradient-34"/><linearGradient id="linear-gradient-67" x1="-191.85" y1="376.74" x2="-192.93" y2="370.66" gradientTransform="matrix(0.74, 0.16, -0.21, 0.98, 341.04, -23.46)" xlink:href="#linear-gradient-34"/><linearGradient id="linear-gradient-68" x1="96.24" y1="123.07" x2="95.23" y2="117.37" gradientTransform="translate(22.15 249.34) rotate(-19.85)" xlink:href="#linear-gradient-26"/><linearGradient id="linear-gradient-69" x1="1368.31" y1="-97.98" x2="1372.72" y2="-96.05" gradientTransform="matrix(-0.99, -0.13, -0.13, 0.99, 1553.81, 627.42)" xlink:href="#linear-gradient-26"/><linearGradient id="linear-gradient-70" x1="1374.21" y1="-118.42" x2="1364.06" y2="-114.35" gradientTransform="matrix(-0.99, -0.13, -0.13, 0.99, 1553.81, 627.42)" xlink:href="#linear-gradient-26"/><linearGradient id="linear-gradient-71" x1="1375.03" y1="-105.18" x2="1367.61" y2="-98.67" gradientTransform="matrix(-0.99, -0.13, -0.13, 0.99, 1553.81, 627.42)" xlink:href="#linear-gradient-26"/><linearGradient id="linear-gradient-72" x1="1364.29" y1="-109.93" x2="1374.91" y2="-109.93" gradientTransform="matrix(-0.99, -0.13, -0.13, 0.99, 1553.81, 627.42)" xlink:href="#linear-gradient-26"/><linearGradient id="linear-gradient-73" x1="1360.68" y1="-120.95" x2="1373.98" y2="-120.95" gradientTransform="matrix(-0.99, -0.13, -0.13, 0.99, 1553.81, 627.42)" xlink:href="#linear-gradient-26"/><linearGradient id="linear-gradient-74" x1="355.52" y1="1423.39" x2="360.28" y2="1425.47" gradientTransform="matrix(0.85, -0.52, -0.52, -0.85, 469.83, 1726.23)" xlink:href="#linear-gradient-26"/><linearGradient id="linear-gradient-75" x1="360.97" y1="1402.6" x2="350.51" y2="1406.81" gradientTransform="matrix(0.85, -0.52, -0.52, -0.85, 469.83, 1726.23)" xlink:href="#linear-gradient-26"/><linearGradient id="linear-gradient-76" x1="729.17" y1="1439.21" x2="724.23" y2="1448.43" gradientTransform="matrix(0.61, -0.79, -0.79, -0.61, 735.65, 1785.62)" xlink:href="#linear-gradient-26"/><linearGradient id="linear-gradient-77" x1="714.32" y1="1436.52" x2="726.14" y2="1438.29" gradientTransform="matrix(0.61, -0.79, -0.79, -0.61, 735.65, 1785.62)" xlink:href="#linear-gradient-26"/><linearGradient id="linear-gradient-78" x1="346.45" y1="1400.24" x2="361.62" y2="1400.24" gradientTransform="matrix(0.85, -0.52, -0.52, -0.85, 469.83, 1726.23)" xlink:href="#linear-gradient-26"/><linearGradient id="linear-gradient-79" x1="838.06" y1="1187.08" x2="837.15" y2="1181.92" gradientTransform="matrix(-0.26, 0.74, -0.86, -0.3, 1263.47, 87.07)" xlink:href="#linear-gradient-26"/><linearGradient id="linear-gradient-80" x1="201.47" y1="182.35" x2="200.61" y2="177.47" gradientTransform="matrix(0.95, -0.32, 0.4, 1.19, -27.89, 160.92)" xlink:href="#linear-gradient-48"/><linearGradient id="linear-gradient-81" x1="-141.09" y1="662.73" x2="-142.31" y2="655.83" gradientTransform="matrix(0.72, -0.24, -0.45, -1.35, 583.26, 1162.14)" xlink:href="#linear-gradient-48"/><linearGradient id="linear-gradient-82" x1="-57.24" y1="402.81" x2="-58.37" y2="396.43" gradientTransform="matrix(0.98, 0.18, 0.18, -0.98, 138.88, 730.11)" xlink:href="#linear-gradient-48"/><linearGradient id="linear-gradient-83" x1="-11.45" y1="400.97" x2="-12.58" y2="394.59" gradientTransform="matrix(0.98, 0.18, 0.18, -0.98, 138.88, 730.11)" xlink:href="#linear-gradient-48"/><linearGradient id="linear-gradient-84" x1="1006.72" y1="36.01" x2="1005.75" y2="30.55" gradientTransform="matrix(-0.84, 0.54, 0.54, 0.84, 1101.46, -258.92)" xlink:href="#linear-gradient-26"/><linearGradient id="linear-gradient-85" x1="1538.93" y1="514.76" x2="1537.85" y2="508.67" gradientTransform="matrix(-0.71, -0.25, -0.34, 0.94, 1398.27, 218.61)" xlink:href="#linear-gradient-48"/><linearGradient id="linear-gradient-86" x1="1636.99" y1="569.37" x2="1635.91" y2="563.28" gradientTransform="matrix(-0.71, -0.25, -0.34, 0.94, 1398.27, 218.61)" xlink:href="#linear-gradient-48"/></defs><g class="cls-2"><g id="Layer_1" data-name="Layer 1"><path class="cls-3" d="M70.67,350.91a1.23,1.23,0,0,0-1.12,1.34l1.16,13.6a5,5,0,0,1,0,1.14v0h-.08a1.59,1.59,0,0,1-.29,0,3.63,3.63,0,0,0-3.28,1,3.25,3.25,0,0,0-.89,2.23l0,3.65a1.22,1.22,0,0,0,1,1.23l1,.15a14.92,14.92,0,0,0,1.85.16,17.35,17.35,0,0,0,1.76-.06,9.86,9.86,0,0,0,3.79-1A8,8,0,0,0,78.36,372a8.72,8.72,0,0,0,1.43-3.29A12.75,12.75,0,0,0,80,365l-1.16-13.52a1.22,1.22,0,0,0-1.33-1.12Z" transform="translate(-29.96 -304.13)"/><path class="cls-4" d="M77.24,365.09a10.41,10.41,0,0,1-.15,3,6.33,6.33,0,0,1-1,2.38,5.55,5.55,0,0,1-1.93,1.65,7.51,7.51,0,0,1-2.87.78c-.5,0-1,.05-1.5,0a12.61,12.61,0,0,1-1.56-.13l0-2.64a.84.84,0,0,1,.23-.58,1,1,0,0,1,.66-.27,2.28,2.28,0,0,1,.57,0,4.15,4.15,0,0,0,.8,0,3.29,3.29,0,0,0,1.12-.28,1.79,1.79,0,0,0,.75-.67,2.84,2.84,0,0,0,.39-1.13,7.23,7.23,0,0,0,0-1.69l-1.06-12.44,4.5-.39Z" transform="translate(-29.96 -304.13)"/><path class="cls-5" d="M77.61,365.35a10,10,0,0,1-.16,3,6,6,0,0,1-1,2.38,5.51,5.51,0,0,1-1.92,1.65,7.56,7.56,0,0,1-2.87.78,12.58,12.58,0,0,1-1.5,0,12.3,12.3,0,0,1-1.56-.13l0-2.64a.8.8,0,0,1,.23-.58.94.94,0,0,1,.66-.27,2.19,2.19,0,0,1,.56,0,4.28,4.28,0,0,0,.81,0,3.35,3.35,0,0,0,1.12-.28,1.79,1.79,0,0,0,.75-.67,2.84,2.84,0,0,0,.39-1.13,7.82,7.82,0,0,0,0-1.69l-1.06-12.44,4.49-.39Z" transform="translate(-29.96 -304.13)"/><path class="cls-6" d="M93.14,347.87a1.23,1.23,0,0,0-1.15-.8H85.78a1.25,1.25,0,0,0-1.16.79l-8.5,21.74a1.24,1.24,0,0,0,1.15,1.69l5.22,0a3.92,3.92,0,0,0,2.44-.81,4,4,0,0,0,1.28-1.68l.64-1.86h3.94l.59,1.76.07.19a4.07,4.07,0,0,0,1.29,1.66,3.9,3.9,0,0,0,2.4.77l5.2,0a1.24,1.24,0,0,0,1.16-1.68Z" transform="translate(-29.96 -304.13)"/><path class="cls-7" d="M98.3,368.83l-3.49,0a1.53,1.53,0,0,1-1-.27,1.73,1.73,0,0,1-.54-.71l-1.14-3.39-7.39,0-1.16,3.38a1.6,1.6,0,0,1-.53.67,1.47,1.47,0,0,1-.94.3H78.64l7.59-19.41h4.61Zm-7.14-7.46L89.38,356c-.13-.34-.27-.74-.42-1.19s-.3-1-.45-1.49c-.14.54-.28,1-.44,1.5s-.29.86-.43,1.2l-1.8,5.29Z" transform="translate(-29.96 -304.13)"/><path class="cls-8" d="M98.64,369.12H95.15a1.62,1.62,0,0,1-1-.28,1.7,1.7,0,0,1-.54-.7l-1.14-3.4-7.39,0L84,368.09a1.6,1.6,0,0,1-.53.68,1.45,1.45,0,0,1-.94.29H79l7.59-19.41h4.61Zm-7.14-7.46-1.78-5.33c-.13-.33-.27-.73-.42-1.19s-.3-1-.45-1.49c-.14.54-.28,1-.43,1.51s-.3.86-.43,1.19l-1.81,5.29Z" transform="translate(-29.96 -304.13)"/><path class="cls-9" d="M113.82,366.63a3.29,3.29,0,0,0-3.66-1,4.06,4.06,0,0,0-.91.45l-.07.06a3.12,3.12,0,0,1-.45.28,2.13,2.13,0,0,1-.33.11,2.59,2.59,0,0,1-.51.05,3.8,3.8,0,0,1-1.84-.35,2.39,2.39,0,0,1-.74-.68,3.51,3.51,0,0,1-.52-1.22,5.38,5.38,0,0,1-.08-1.87,6.34,6.34,0,0,1,.44-1.88,3.36,3.36,0,0,1,.69-1.05,2.09,2.09,0,0,1,.8-.49,2.57,2.57,0,0,1,1.09-.1,3.83,3.83,0,0,1,.74.14,2.78,2.78,0,0,1,.51.2,1.23,1.23,0,0,1,.26.15l.48.38.4.3a3.74,3.74,0,0,0,2,.68,3.25,3.25,0,0,0,1.75-.46,4.92,4.92,0,0,0,.89-.73l2.39-2.62a1.23,1.23,0,0,0,.06-1.6l-.62-.78a10.5,10.5,0,0,0-3.36-2.76,12.4,12.4,0,0,0-4.66-1.38,12.48,12.48,0,0,0-4.91.42,11.42,11.42,0,0,0-4.13,2.2,11.77,11.77,0,0,0-2.89,3.67,13.35,13.35,0,0,0-1.35,4.76,14,14,0,0,0,.31,4.82,11.58,11.58,0,0,0,2,4.18,11,11,0,0,0,3.5,3,12.31,12.31,0,0,0,4.8,1.44,12.67,12.67,0,0,0,5.23-.46,9.82,9.82,0,0,0,4.17-2.64l.68-.73a1.22,1.22,0,0,0,.07-1.6Z" transform="translate(-29.96 -304.13)"/><path class="cls-10" d="M111,367.67a1.24,1.24,0,0,1,.31.1.86.86,0,0,1,.28.23l1.59,2.05a7.39,7.39,0,0,1-3.16,2,10.3,10.3,0,0,1-4.24.36,10.08,10.08,0,0,1-3.87-1.15,8.67,8.67,0,0,1-2.75-2.37,9.22,9.22,0,0,1-1.55-3.32,11.8,11.8,0,0,1-.25-4,11.05,11.05,0,0,1,1.11-3.9,9.25,9.25,0,0,1,2.29-2.93,9,9,0,0,1,3.26-1.73,10.12,10.12,0,0,1,4-.33,9.74,9.74,0,0,1,2,.4,10.16,10.16,0,0,1,1.75.71,8.45,8.45,0,0,1,2.6,2.13l-1.72,1.88a1.57,1.57,0,0,1-.38.3,1,1,0,0,1-.58.1,1.21,1.21,0,0,1-.44-.15l-.42-.31-.49-.38a4.16,4.16,0,0,0-.64-.4,5.33,5.33,0,0,0-.89-.35,5.64,5.64,0,0,0-1.22-.23,4.93,4.93,0,0,0-2.08.2,4.46,4.46,0,0,0-1.71,1,5.42,5.42,0,0,0-1.24,1.83A8.86,8.86,0,0,0,102,362a8.05,8.05,0,0,0,.14,2.68,5.86,5.86,0,0,0,.9,2.06,4.77,4.77,0,0,0,1.51,1.36,5,5,0,0,0,2,.62c.41,0,.78.05,1.12.05a5.77,5.77,0,0,0,1-.1,4.14,4.14,0,0,0,.86-.29,5.62,5.62,0,0,0,.85-.51,1.55,1.55,0,0,1,.36-.19A1.07,1.07,0,0,1,111,367.67Z" transform="translate(-29.96 -304.13)"/><path class="cls-11" d="M111.34,368a.86.86,0,0,1,.6.33l1.58,2.05a7.41,7.41,0,0,1-3.15,2,10.54,10.54,0,0,1-4.25.35,10,10,0,0,1-3.87-1.15,8.67,8.67,0,0,1-2.75-2.37A9.31,9.31,0,0,1,98,365.9a11.74,11.74,0,0,1-.25-4A11.1,11.1,0,0,1,98.81,358a9.2,9.2,0,0,1,2.29-2.92,9.07,9.07,0,0,1,3.26-1.74,10.5,10.5,0,0,1,4-.33,10.28,10.28,0,0,1,2,.4,10.16,10.16,0,0,1,1.75.71,8.82,8.82,0,0,1,1.46,1,9,9,0,0,1,1.14,1.17L113,358.12a1.91,1.91,0,0,1-.38.31.84.84,0,0,1-.57.09.86.86,0,0,1-.44-.15,3.38,3.38,0,0,1-.43-.3l-.49-.39a4.16,4.16,0,0,0-.64-.4,5.9,5.9,0,0,0-.89-.35,6.17,6.17,0,0,0-1.22-.23,4.78,4.78,0,0,0-2.08.21,4.34,4.34,0,0,0-1.71,1,5.55,5.55,0,0,0-1.23,1.83,8.42,8.42,0,0,0-.63,2.58,7.8,7.8,0,0,0,.13,2.68,5.79,5.79,0,0,0,.91,2.06,4.78,4.78,0,0,0,1.5,1.37,5,5,0,0,0,2,.61,8.93,8.93,0,0,0,1.12.05,4.87,4.87,0,0,0,1-.1,3.71,3.71,0,0,0,.87-.29,5.55,5.55,0,0,0,.84-.51,1.35,1.35,0,0,1,.36-.18A.92.92,0,0,1,111.34,368Z" transform="translate(-29.96 -304.13)"/><path class="cls-12" d="M131,360.35a1.43,1.43,0,0,0-.15-.18l6.11-9.81a1.24,1.24,0,0,0-1.14-1.89l-6.21.47a5.07,5.07,0,0,0-2,.55,4.43,4.43,0,0,0-1.68,1.58l-2,3.37-.29-3.81a1.24,1.24,0,0,0-1.33-1.14l-6.82.52a1.24,1.24,0,0,0-1.14,1.33L116,373.05a1.24,1.24,0,0,0,1.33,1.14l6.83-.52a1.23,1.23,0,0,0,1.14-1.32l-.37-4.79,3,3.92a5.26,5.26,0,0,0,.59.64,4,4,0,0,0,1,.65,4.28,4.28,0,0,0,1.17.31,5.92,5.92,0,0,0,1.12,0l6.17-.47a1.23,1.23,0,0,0,.89-2Z" transform="translate(-29.96 -304.13)"/><path class="cls-13" d="M121.55,359.74l.72-.05a1.65,1.65,0,0,0,1.39-.73l3.89-6.67a2.22,2.22,0,0,1,.77-.76,3,3,0,0,1,1.1-.28l3.91-.29-5.15,8.27A4.05,4.05,0,0,1,127,360.5a3.25,3.25,0,0,1,1,.45,3.89,3.89,0,0,1,.83.8l6.54,8.55-4,.31a2.82,2.82,0,0,1-.66,0,1.68,1.68,0,0,1-.49-.12,1.48,1.48,0,0,1-.36-.23,3.26,3.26,0,0,1-.31-.33l-4.9-6.42a1.32,1.32,0,0,0-.64-.47,2.56,2.56,0,0,0-1-.08l-1.09.08.63,8.25-4.5.34-1.47-19.38,4.5-.34Z" transform="translate(-29.96 -304.13)"/><path class="cls-14" d="M121.92,360l.72-.06a1.64,1.64,0,0,0,1.39-.73l3.88-6.66a2.2,2.2,0,0,1,.78-.77,2.77,2.77,0,0,1,1.1-.27l3.91-.3-5.16,8.27a3.75,3.75,0,0,1-1.23,1.27,3.25,3.25,0,0,1,1,.45,4,4,0,0,1,.84.81l6.53,8.55-4,.3a3.73,3.73,0,0,1-.67,0,1.69,1.69,0,0,1-.48-.12,1.57,1.57,0,0,1-.37-.24,2.46,2.46,0,0,1-.3-.33l-4.9-6.41a1.31,1.31,0,0,0-.65-.48,2.71,2.71,0,0,0-1-.08l-1.09.08.62,8.25-4.49.34-1.47-19.38,4.49-.34Z" transform="translate(-29.96 -304.13)"/><path class="cls-15" d="M153.37,356.66a7.58,7.58,0,0,0-1.94-3,9.15,9.15,0,0,0-3.2-2,13.72,13.72,0,0,0-4.26-.77l-8-.3a1.23,1.23,0,0,0-1.28,1.19l-.82,21.76a1.23,1.23,0,0,0,1.19,1.28l6.84.26a1.24,1.24,0,0,0,1.28-1.19l.2-5.26a13.19,13.19,0,0,0,4.21-.45,9.16,9.16,0,0,0,3.35-1.72,7.7,7.7,0,0,0,2.18-2.93,9.94,9.94,0,0,0,.76-3.5A9.4,9.4,0,0,0,153.37,356.66Zm-9.7,3.81.05-1.36a2.2,2.2,0,0,1,.63.11c.11,0,.14.07.15.11a.9.9,0,0,1,0,.39,1.3,1.3,0,0,1-.14.67A2,2,0,0,1,143.67,360.47Z" transform="translate(-29.96 -304.13)"/><path class="cls-16" d="M143.54,353.21a11.31,11.31,0,0,1,3.51.62,6.72,6.72,0,0,1,2.37,1.43,5.15,5.15,0,0,1,1.33,2.07,6.53,6.53,0,0,1,.36,2.52,7.28,7.28,0,0,1-.56,2.65,5.41,5.41,0,0,1-1.51,2,6.82,6.82,0,0,1-2.48,1.26,11.14,11.14,0,0,1-3.51.35l-2.34-.08-.25,6.49-4.5-.17.73-19.43Zm-.36,9.53a3.31,3.31,0,0,0,2.57-.74,3.37,3.37,0,0,0,.86-2.32,3.68,3.68,0,0,0-.16-1.22,2.46,2.46,0,0,0-.57-1,2.75,2.75,0,0,0-1-.65,5.07,5.07,0,0,0-1.47-.27l-2.34-.08-.23,6.16Z" transform="translate(-29.96 -304.13)"/><path class="cls-17" d="M143.87,353.52a11,11,0,0,1,3.51.62,6.72,6.72,0,0,1,2.38,1.43,5.34,5.34,0,0,1,1.33,2.06,7,7,0,0,1,.36,2.53,7.44,7.44,0,0,1-.57,2.64,5.23,5.23,0,0,1-1.51,2,6.82,6.82,0,0,1-2.48,1.26,11.05,11.05,0,0,1-3.5.36l-2.35-.09-.24,6.49-4.51-.17.73-19.42Zm-.36,9.53a2.87,2.87,0,0,0,3.43-3.06,3.38,3.38,0,0,0-.15-1.22,2.47,2.47,0,0,0-.58-1,2.74,2.74,0,0,0-1-.64,4.47,4.47,0,0,0-1.46-.27l-2.35-.09-.23,6.16Z" transform="translate(-29.96 -304.13)"/><path class="cls-18" d="M170.31,357.43a11.73,11.73,0,0,0-2.57-3.95,12,12,0,0,0-4-2.63,13.91,13.91,0,0,0-10.08,0,11.93,11.93,0,0,0-4,2.62,11.81,11.81,0,0,0-2.58,4,13.33,13.33,0,0,0,0,9.63,11.75,11.75,0,0,0,2.58,4,11.87,11.87,0,0,0,4,2.64,13.34,13.34,0,0,0,5,.93,13.15,13.15,0,0,0,5-.94,11.64,11.64,0,0,0,4-2.64,11.79,11.79,0,0,0,2.57-3.94,13.3,13.3,0,0,0,0-9.62Zm-14.68,4.8a6,6,0,0,1,.25-1.85,3.22,3.22,0,0,1,.6-1.12,2.24,2.24,0,0,1,.84-.59,3.62,3.62,0,0,1,1.4-.24,3.5,3.5,0,0,1,1.37.24,2.24,2.24,0,0,1,.84.59,3.22,3.22,0,0,1,.6,1.12,6,6,0,0,1,.25,1.85,6.18,6.18,0,0,1-.25,1.87,3.26,3.26,0,0,1-.6,1.11,2.18,2.18,0,0,1-.83.58,3.52,3.52,0,0,1-1.38.24,3.77,3.77,0,0,1-1.42-.24,2.22,2.22,0,0,1-.82-.58,3.26,3.26,0,0,1-.6-1.11A6.18,6.18,0,0,1,155.63,362.23Z" transform="translate(-29.96 -304.13)"/><path class="cls-19" d="M168.46,362.12a10.35,10.35,0,0,1-.73,3.92,9.32,9.32,0,0,1-2,3.16,9.48,9.48,0,0,1-3.18,2.1,11.6,11.6,0,0,1-8.26,0,9.57,9.57,0,0,1-3.2-2.1,9.47,9.47,0,0,1-2-3.16,10.89,10.89,0,0,1,0-7.84,9.33,9.33,0,0,1,2-3.15,9.57,9.57,0,0,1,3.2-2.1,11,11,0,0,1,4.13-.76,10.74,10.74,0,0,1,4.13.77,9.48,9.48,0,0,1,3.18,2.1,9.18,9.18,0,0,1,2,3.15A10.3,10.3,0,0,1,168.46,362.12Zm-4.62,0a8.42,8.42,0,0,0-.37-2.6,5.55,5.55,0,0,0-1.07-1.95,4.76,4.76,0,0,0-1.72-1.23,6,6,0,0,0-2.31-.42,6,6,0,0,0-2.32.42,4.67,4.67,0,0,0-1.72,1.23,5.42,5.42,0,0,0-1.08,1.95,9.36,9.36,0,0,0,0,5.21,5.42,5.42,0,0,0,1.08,1.95,4.54,4.54,0,0,0,1.72,1.22,6,6,0,0,0,2.32.42,6,6,0,0,0,2.31-.42,4.62,4.62,0,0,0,1.72-1.22,5.55,5.55,0,0,0,1.07-1.95A8.44,8.44,0,0,0,163.84,362.12Z" transform="translate(-29.96 -304.13)"/><path class="cls-20" d="M168.8,362.41a10.51,10.51,0,0,1-.72,3.92,9.63,9.63,0,0,1-2.05,3.16,9.48,9.48,0,0,1-3.18,2.1,11.63,11.63,0,0,1-8.27,0,9.3,9.3,0,0,1-5.25-5.26,11,11,0,0,1,0-7.84,9.36,9.36,0,0,1,2.06-3.15,9.53,9.53,0,0,1,3.19-2.1,11.05,11.05,0,0,1,4.14-.76,10.77,10.77,0,0,1,4.13.77,9.29,9.29,0,0,1,5.23,5.25A10.49,10.49,0,0,1,168.8,362.41Zm-4.61,0a8.41,8.41,0,0,0-.38-2.6,5.48,5.48,0,0,0-1.07-1.95,4.8,4.8,0,0,0-1.71-1.23,6,6,0,0,0-2.31-.42,6.09,6.09,0,0,0-2.33.42,4.76,4.76,0,0,0-1.72,1.23,5.5,5.5,0,0,0-1.08,1.95,9.36,9.36,0,0,0,0,5.21,5.42,5.42,0,0,0,1.08,2,4.62,4.62,0,0,0,1.72,1.22,6.09,6.09,0,0,0,2.33.42,6,6,0,0,0,2.31-.42,4.66,4.66,0,0,0,1.71-1.22,5.4,5.4,0,0,0,1.07-2A8.43,8.43,0,0,0,164.19,362.41Z" transform="translate(-29.96 -304.13)"/><path class="cls-21" d="M191.71,368.64a4.64,4.64,0,0,0-.67-1.4l.4-1.26c.3-.92.56-1.84.78-2.75a22.31,22.31,0,0,0,.49-2.69l1.1-9a1.32,1.32,0,0,0-1.14-1.47l-6.34-.77a1.31,1.31,0,0,0-1.46,1.15l-1.11,9a24.42,24.42,0,0,0-.17,2.83q0,1.35.09,2.76l.09,1.24a4.52,4.52,0,0,0-1.07,1.27,4.57,4.57,0,0,0-.63,1.85h0a4.75,4.75,0,0,0,.16,2,4.77,4.77,0,0,0,2.3,2.88,5.23,5.23,0,0,0,1.85.6,5,5,0,0,0,1.93-.14,4.8,4.8,0,0,0,1.67-.81,4.67,4.67,0,0,0,1.27-1.42,4.87,4.87,0,0,0,.62-1.86A4.78,4.78,0,0,0,191.71,368.64Z" transform="translate(-29.96 -304.13)"/><path class="cls-22" d="M185.92,364.71l.3,0c-.05-.78-.07-1.55-.07-2.31a21.3,21.3,0,0,1,.15-2.52l1-7.87,3.64.45,0-.28-4-.49-1,7.87a21.47,21.47,0,0,0-.15,2.53Q185.83,363.39,185.92,364.71Z" transform="translate(-29.96 -304.13)"/><path class="cls-23" d="M185.1,371.63a2.32,2.32,0,0,1-.49-1.76,2.28,2.28,0,0,1,.3-.9,2.45,2.45,0,0,1,.6-.68,2.48,2.48,0,0,1,2.73-.17,2,2,0,0,1,.38.26,2.57,2.57,0,0,0-2.6-.82,2.58,2.58,0,0,0-.83.41,2.45,2.45,0,0,0-.6.68,2.28,2.28,0,0,0-.3.9,2.32,2.32,0,0,0,.08.95,2.07,2.07,0,0,0,.41.81,1.82,1.82,0,0,0,.34.34Z" transform="translate(-29.96 -304.13)"/><path class="cls-24" d="M184.55,369.7a2.28,2.28,0,0,1,.3-.9,2.45,2.45,0,0,1,.6-.68,2.48,2.48,0,0,1,2.73-.17,2.41,2.41,0,0,1,.71.59,2.26,2.26,0,0,1,.5,1.75,2.39,2.39,0,0,1-.3.91,2.36,2.36,0,0,1-1.44,1.08,2.4,2.4,0,0,1-1,.07,2.6,2.6,0,0,1-.94-.3,2.23,2.23,0,0,1-.7-.59,2.41,2.41,0,0,1-.42-.81A2.32,2.32,0,0,1,184.55,369.7Zm6.64-17.33-1,7.86a20.26,20.26,0,0,1-.46,2.49c-.2.82-.44,1.65-.71,2.49l-2.89-.35c-.06-.88-.08-1.74-.08-2.59a21.3,21.3,0,0,1,.15-2.52l1-7.87Z" transform="translate(-29.96 -304.13)"/><path class="cls-25" d="M165,352.84l.26,5.91a1.24,1.24,0,0,0,1.29,1.18l4.23-.18.63,14.61a1.23,1.23,0,0,0,1.29,1.18l6.84-.29a1.25,1.25,0,0,0,1.18-1.29l-.63-14.62,4.23-.18a1.24,1.24,0,0,0,1.18-1.29l-.26-5.91a1.23,1.23,0,0,0-1.28-1.18l-17.77.77A1.24,1.24,0,0,0,165,352.84Z" transform="translate(-29.96 -304.13)"/><path class="cls-26" d="M182.71,356.71l-5.47.24.69,15.85-4.51.19-.68-15.85-5.47.24-.15-3.57,15.43-.67Z" transform="translate(-29.96 -304.13)"/><path class="cls-27" d="M183.06,357l-5.46.23.68,15.85-4.5.2-.69-15.85-5.46.24-.16-3.58,15.44-.66Z" transform="translate(-29.96 -304.13)"/><g class="cls-28"><path class="cls-29" d="M56,393.63c-1.31-1.69,16.73-17.79,40.27-35.95s43.71-31.51,45-29.82S124.56,345.65,101,363.81,57.31,395.32,56,393.63Z" transform="translate(-29.96 -304.13)"/><path class="cls-30" d="M94,403.3c-1.31-1.69,16.72-17.79,40.27-35.95s43.7-31.51,45-29.82-16.72,17.79-40.27,36S95.26,405,94,403.3Z" transform="translate(-29.96 -304.13)"/><path class="cls-31" d="M76.94,391.13c-1.56-2,16.25-18.39,39.8-36.55s43.9-31.26,45.47-29.23-16.26,18.39-39.8,36.56S78.5,393.16,76.94,391.13Z" transform="translate(-29.96 -304.13)"/><path class="cls-32" d="M140.07,394.07c-1.31-1.69,16.72-17.78,40.27-35.94s43.7-31.51,45-29.82-16.72,17.78-40.27,35.94S141.38,395.76,140.07,394.07Z" transform="translate(-29.96 -304.13)"/><path class="cls-33" d="M36.34,388.44c-1.45-1.88,16.46-18.13,40-36.29s43.81-31.37,45.27-29.49-16.46,18.13-40,36.29S37.8,390.32,36.34,388.44Z" transform="translate(-29.96 -304.13)"/></g><g class="cls-34"><path class="cls-35" d="M148.57,317.86a18.29,18.29,0,0,1-4.1-2.64,6.81,6.81,0,0,0,1-1.89,14.11,14.11,0,0,0,2,1.58c1.05.7,1.92,1.19,1.92,1.19Z" transform="translate(-29.96 -304.13)"/><path class="cls-36" d="M66,325.07a21.34,21.34,0,0,1-3-5.34,9.74,9.74,0,0,0,2.42-1.58,15.3,15.3,0,0,0,1.28,3c.74,1.39,1.42,2.44,1.42,2.44Z" transform="translate(-29.96 -304.13)"/><path class="cls-37" d="M71.8,306.69a16.84,16.84,0,0,1,4.79,1.42,8.72,8.72,0,0,0-.53,2.39,12.74,12.74,0,0,0-2.45-1c-1.23-.39-2.22-.6-2.22-.6Z" transform="translate(-29.96 -304.13)"/><path class="cls-38" d="M67,335.57A16.93,16.93,0,0,1,71.81,337a8.48,8.48,0,0,0-.54,2.39,12,12,0,0,0-2.44-1c-1.23-.39-2.23-.6-2.23-.6Z" transform="translate(-29.96 -304.13)"/><path class="cls-39" d="M40.69,311.66a14.16,14.16,0,0,1,2.07-4.79,13.83,13.83,0,0,0,3,1.19,9.79,9.79,0,0,0-1.41,2.37,21.06,21.06,0,0,0-.9,2.23Z" transform="translate(-29.96 -304.13)"/><path class="cls-40" d="M41.64,325.8a12.54,12.54,0,0,1,2.33-4,12.41,12.41,0,0,0,2.51,1.36A9.24,9.24,0,0,0,45,325.08c-.62,1-1,1.89-1,1.89Z" transform="translate(-29.96 -304.13)"/><path class="cls-41" d="M218.66,316.53a12.22,12.22,0,0,1-2.18,3.9,11.4,11.4,0,0,0-2.43-1.27,8.13,8.13,0,0,0,1.4-1.89,18.8,18.8,0,0,0,1-1.83Z" transform="translate(-29.96 -304.13)"/><path class="cls-42" d="M80.53,305.67a18.29,18.29,0,0,1,4.1,2.64,6.65,6.65,0,0,0-1,1.89,13.35,13.35,0,0,0-2-1.58c-1-.7-1.91-1.19-1.91-1.19Z" transform="translate(-29.96 -304.13)"/><path class="cls-43" d="M65.19,306.76a21.34,21.34,0,0,1,3,5.34,9.74,9.74,0,0,0-2.42,1.58,15,15,0,0,0-1.28-3c-.74-1.4-1.42-2.44-1.42-2.44Z" transform="translate(-29.96 -304.13)"/><path class="cls-44" d="M62.11,311.87a17.6,17.6,0,0,1-2.63,4.21,7.69,7.69,0,0,0-2-1.07,12.46,12.46,0,0,0,1.6-2.08c.7-1.07,1.17-2,1.17-2Z" transform="translate(-29.96 -304.13)"/><path class="cls-45" d="M202,313.68a16.94,16.94,0,0,1-4.15,2.79,8.59,8.59,0,0,0-1.5-1.94,12.27,12.27,0,0,0,2.33-1.25c1.08-.69,1.88-1.33,1.88-1.33Z" transform="translate(-29.96 -304.13)"/><path class="cls-46" d="M227.82,341.16a16.72,16.72,0,0,1-4.14,2.79,8.59,8.59,0,0,0-1.5-1.94,12.08,12.08,0,0,0,2.32-1.25c1.09-.7,1.89-1.33,1.89-1.33Z" transform="translate(-29.96 -304.13)"/><path class="cls-47" d="M162.67,309.74a12,12,0,0,1,3.67,1.06,7.59,7.59,0,0,0-.45,2A8.2,8.2,0,0,0,164,312a16.91,16.91,0,0,0-1.71-.45Z" transform="translate(-29.96 -304.13)"/><path class="cls-48" d="M197.33,328.54a18.7,18.7,0,0,1-4.68-2.28,8,8,0,0,0,.88-2.23,13.45,13.45,0,0,0,2.35,1.43c1.2.62,2.18,1,2.18,1Z" transform="translate(-29.96 -304.13)"/><path class="cls-49" d="M166.13,316a20.8,20.8,0,0,1,.3,6,10,10,0,0,0-2.86.35,15.21,15.21,0,0,0,.15-3.17c-.05-1.54-.2-2.76-.2-2.76Z" transform="translate(-29.96 -304.13)"/><path class="cls-50" d="M176.29,317.86a16.78,16.78,0,0,1-4.8-3.93,16.41,16.41,0,0,0,2.33-3,11.93,11.93,0,0,0,2.25,2.39,27.6,27.6,0,0,0,2.26,1.75Z" transform="translate(-29.96 -304.13)"/><path class="cls-51" d="M90.8,309.39a12.92,12.92,0,0,1-.74-4.73,12.69,12.69,0,0,0,2.88-.53,9.67,9.67,0,0,0,.07,2.52,21,21,0,0,0,.4,2.17Z" transform="translate(-29.96 -304.13)"/><path class="cls-52" d="M139.85,310.07a11.3,11.3,0,0,1-2.34-3.44,11,11,0,0,0,2.06-1.5,8.31,8.31,0,0,0,1,2,18.9,18.9,0,0,0,1.12,1.56Z" transform="translate(-29.96 -304.13)"/><path class="cls-53" d="M114.82,322.15a21.54,21.54,0,0,1-3-5.34,9.62,9.62,0,0,0,2.41-1.58,14.77,14.77,0,0,0,1.29,3c.73,1.4,1.41,2.44,1.41,2.44Z" transform="translate(-29.96 -304.13)"/><path class="cls-54" d="M183.8,308.35a16.93,16.93,0,0,1,4.79,1.42,8.52,8.52,0,0,0-.54,2.4,12,12,0,0,0-2.44-1c-1.23-.4-2.23-.61-2.23-.61Z" transform="translate(-29.96 -304.13)"/><path class="cls-55" d="M125.18,327.78a12.14,12.14,0,0,1-3.68-1.06,7.7,7.7,0,0,0,.46-2,8.29,8.29,0,0,0,1.87.76,17.17,17.17,0,0,0,1.7.45Z" transform="translate(-29.96 -304.13)"/><path class="cls-56" d="M90.59,323a18.61,18.61,0,0,1-2.22,4.71,8.06,8.06,0,0,0-2.24-.85,13.7,13.7,0,0,0,1.4-2.37c.6-1.2,1-2.2,1-2.2Z" transform="translate(-29.96 -304.13)"/><path class="cls-57" d="M134.83,315.25a12,12,0,0,1-2.17,3.9,12.18,12.18,0,0,0-2.43-1.27,8.51,8.51,0,0,0,1.4-1.89,20,20,0,0,0,1-1.83Z" transform="translate(-29.96 -304.13)"/><path class="cls-58" d="M156,305.76a21.34,21.34,0,0,1,3,5.34,9.54,9.54,0,0,0-2.42,1.58,15.3,15.3,0,0,0-1.28-3c-.74-1.39-1.42-2.44-1.42-2.44Z" transform="translate(-29.96 -304.13)"/><path class="cls-59" d="M126,305.7a17.72,17.72,0,0,1,.38,4.95,7.57,7.57,0,0,0-2.28.35,12.64,12.64,0,0,0,0-2.62c-.07-1.28-.22-2.29-.22-2.29Z" transform="translate(-29.96 -304.13)"/><path class="cls-60" d="M121.68,327.79a11.15,11.15,0,0,1-2.34-3.43,11,11,0,0,0,2.06-1.5,8.17,8.17,0,0,0,1,1.95,18.9,18.9,0,0,0,1.12,1.56Z" transform="translate(-29.96 -304.13)"/><path class="cls-61" d="M52.12,322.39a16.12,16.12,0,0,1-2.1-7.8,21,21,0,0,1,2.67-1.2,10.1,10.1,0,0,0,0,4.5,8.54,8.54,0,0,0,1.35,3.5Z" transform="translate(-29.96 -304.13)"/><path class="cls-62" d="M186.88,324.26a17.59,17.59,0,0,1-3.6-3.73,8.91,8.91,0,0,0,1.71-1.88,12.66,12.66,0,0,0,1.69,2.15c.91,1,1.7,1.68,1.7,1.68Z" transform="translate(-29.96 -304.13)"/><path class="cls-63" d="M167.63,332.43a17.32,17.32,0,0,1-2.08-4.45,7.5,7.5,0,0,0,2-1.11,12.62,12.62,0,0,0,.87,2.44c.51,1.16,1,2,1,2Z" transform="translate(-29.96 -304.13)"/><path class="cls-64" d="M100.16,311.9a12.92,12.92,0,0,1-.74-4.73,12.69,12.69,0,0,0,2.89-.53,9.12,9.12,0,0,0,.07,2.52,19.64,19.64,0,0,0,.39,2.17Z" transform="translate(-29.96 -304.13)"/><path class="cls-65" d="M71.9,320.54a13,13,0,0,1,.14-4.77,12.69,12.69,0,0,0,2.93,0,9.41,9.41,0,0,0-.39,2.49,19.22,19.22,0,0,0,0,2.21Z" transform="translate(-29.96 -304.13)"/><path class="cls-66" d="M213.43,323.56a14,14,0,0,1-1.28-5.05,14,14,0,0,0,3.08-.88,10.11,10.11,0,0,0,.33,2.74,21.57,21.57,0,0,0,.65,2.32Z" transform="translate(-29.96 -304.13)"/><path class="cls-67" d="M35.82,313.93A14.06,14.06,0,0,1,32.59,318a14,14,0,0,0-2.57-1.9,10.16,10.16,0,0,0,2-1.93,21.78,21.78,0,0,0,1.44-1.93Z" transform="translate(-29.96 -304.13)"/><path class="cls-68" d="M81,314.42a12.11,12.11,0,0,1-2.18,3.9,12,12,0,0,0-2.43-1.26,8.81,8.81,0,0,0,1.4-1.9,18.8,18.8,0,0,0,1-1.83Z" transform="translate(-29.96 -304.13)"/><path class="cls-69" d="M135.93,324.33a17.43,17.43,0,0,1,1.9,4.59,7.66,7.66,0,0,0-2.06,1,13.19,13.19,0,0,0-.77-2.51c-.46-1.19-.91-2.1-.91-2.1Z" transform="translate(-29.96 -304.13)"/><path class="cls-70" d="M227.34,325.17a11.3,11.3,0,0,1-2.34-3.44,11,11,0,0,0,2.06-1.5,8.31,8.31,0,0,0,1,2,18.9,18.9,0,0,0,1.12,1.56Z" transform="translate(-29.96 -304.13)"/><path class="cls-71" d="M240.6,326.36a17.68,17.68,0,0,1-1,4.86,7.48,7.48,0,0,0-2.28-.31,13,13,0,0,0,.78-2.5c.29-1.25.43-2.25.43-2.25Z" transform="translate(-29.96 -304.13)"/><path class="cls-72" d="M106,309.43a13.71,13.71,0,0,1,3.61-3.57,13.38,13.38,0,0,0,2.25,2.15,10.32,10.32,0,0,0-2.13,1.63c-1,.9-1.62,1.69-1.62,1.69Z" transform="translate(-29.96 -304.13)"/><path class="cls-73" d="M93.7,317.42a14.3,14.3,0,0,1-1.27-5.06,14.18,14.18,0,0,0,3.08-.87,10.05,10.05,0,0,0,.33,2.73,23.18,23.18,0,0,0,.64,2.32Z" transform="translate(-29.96 -304.13)"/><path class="cls-74" d="M38.48,362.44a12.54,12.54,0,0,1,2.33-4,12.74,12.74,0,0,0,2.51,1.35,9.19,9.19,0,0,0-1.49,2,20.79,20.79,0,0,0-1,1.89Z" transform="translate(-29.96 -304.13)"/><path class="cls-75" d="M99.83,330.87a21.54,21.54,0,0,1-3-5.34A9.92,9.92,0,0,0,99.28,324a15.94,15.94,0,0,0,1.29,3c.73,1.39,1.42,2.43,1.42,2.43Z" transform="translate(-29.96 -304.13)"/><path class="cls-76" d="M121.85,308.05A17.66,17.66,0,0,1,121,313a7.53,7.53,0,0,0-2.3-.21,12.28,12.28,0,0,0,.68-2.54c.24-1.26.34-2.26.34-2.26Z" transform="translate(-29.96 -304.13)"/><path class="cls-77" d="M153.08,326.69a12.58,12.58,0,0,1,1.85,4.27,12.37,12.37,0,0,0-2.59,1.21,8.72,8.72,0,0,0-.68-2.36,20.71,20.71,0,0,0-.91-1.95Z" transform="translate(-29.96 -304.13)"/><path class="cls-78" d="M205.66,351.61c2,.77,4.41-.68,4.59-2.06a2.86,2.86,0,0,1,.33.95c.06.56-.8,1.65-.8,1.65a4.28,4.28,0,0,1-4.36,1.25Z" transform="translate(-29.96 -304.13)"/><path class="cls-79" d="M216.07,336.62l.16-1.43a1.75,1.75,0,0,0-.16-1.3c-1.81-2.3-6.83-1.09-8.51-4.54a.16.16,0,0,0-.3,0L207,331c0,.25.18.52.42.81C209.82,334.63,216,332.69,216.07,336.62Z" transform="translate(-29.96 -304.13)"/><path class="cls-80" d="M209.78,352.15a3.22,3.22,0,0,0,1-2.19c.64-4.84-4.84-3.85-5.72-8.88a3.25,3.25,0,0,0-.34.8,3.43,3.43,0,0,0,.19,2.4,1.31,1.31,0,0,0,.09.17c1.67,2.52,4.94,2.22,5.28,5.57A4.83,4.83,0,0,1,209.78,352.15Z" transform="translate(-29.96 -304.13)"/><path class="cls-81" d="M204.77,344a2.6,2.6,0,0,1-.19-1.24,3.52,3.52,0,0,1,1.2-2.63c3.15-3.63,8.59-1.83,10.48-5.71a1.68,1.68,0,0,1,0,.49c0,.44-.22,1.93-.22,1.93-.05.39-.35.58-.63.8-1.86,1.51-4.91,1.33-7.48,2.85a7.37,7.37,0,0,0-2.86,2.26A2.07,2.07,0,0,0,204.77,344Z" transform="translate(-29.96 -304.13)"/><path class="cls-82" d="M220.9,327.61l-.28,1.85c-2.56-2.24-7.12-3.15-10.08-1.67-2.1,1-3.31,1.76-3.5,3.21l.22-1.63a3.49,3.49,0,0,1,.51-1.39C210.7,324.09,216.16,324.41,220.9,327.61Z" transform="translate(-29.96 -304.13)"/><path class="cls-83" d="M34.41,323.11c-2.12.77-3.39,3.45-2.69,4.66a2.67,2.67,0,0,1-.85-.51c-.4-.4-.35-1.86-.35-1.86a4.93,4.93,0,0,1,2.83-4Z" transform="translate(-29.96 -304.13)"/><path class="cls-84" d="M34.81,342l.75,1.23c.22.39.55,1.38,1,1.46,2.89.55,6.29-3.87,9.78-2.31.14.06.23-.66.15-.8l-.8-1.41c-.13-.22-.47-.29-.84-.35C41.18,339.21,37.25,345,34.81,342Z" transform="translate(-29.96 -304.13)"/><path class="cls-85" d="M30.52,325.4a5,5,0,0,0,.63,2.85c2.43,4.25,6.22-.75,10,2.6A4.41,4.41,0,0,0,41,330a4.08,4.08,0,0,0-1.81-2l-.18-.06c-2.92-.83-5.24,1.93-7.56-.46A4.54,4.54,0,0,1,30.52,325.4Z" transform="translate(-29.96 -304.13)"/><path class="cls-86" d="M39.64,328.38a2.4,2.4,0,0,1,.91.84,5.23,5.23,0,0,1,.89,3.44c-.38,5-6.19,7.19-5.38,11.55,0,0-.16-.28-.34-.54s-1-1.85-1-1.85a1.39,1.39,0,0,1,0-1.06c.61-2.48,3.23-4.45,4.43-7.42a8.45,8.45,0,0,0,1-3.76A1.9,1.9,0,0,0,39.64,328.38Z" transform="translate(-29.96 -304.13)"/><path class="cls-87" d="M36.38,352.8l-1.19-2.4c3.48,0,8.2-1.82,9.75-5,1.09-2.28,1.47-3.94.74-5.21l.82,1.43a5.49,5.49,0,0,1,.47,1.84C46.94,348.51,42.25,352,36.38,352.8Z" transform="translate(-29.96 -304.13)"/><path class="cls-88" d="M33.63,355.14A12,12,0,0,1,30,354.08a7.55,7.55,0,0,0,.45-2,8.84,8.84,0,0,0,1.87.77c.94.29,1.71.44,1.71.44Z" transform="translate(-29.96 -304.13)"/><path class="cls-89" d="M234.61,306.79a17.07,17.07,0,0,1,1.83,4.65,8.49,8.49,0,0,0-2.22,1.05,12.05,12.05,0,0,0-.72-2.54c-.44-1.21-.89-2.13-.89-2.13Z" transform="translate(-29.96 -304.13)"/><path class="cls-90" d="M187.8,313.37a16.13,16.13,0,0,0-2.47-7.68,20.76,20.76,0,0,0-2.9.44,10,10,0,0,1,2.43,3.78,8.47,8.47,0,0,1,.77,3.68Z" transform="translate(-29.96 -304.13)"/><path class="cls-91" d="M156,330.24a14.21,14.21,0,0,0,1.27-5.06,13.61,13.61,0,0,1-3.08-.87,10.05,10.05,0,0,1-.33,2.73,20.75,20.75,0,0,1-.65,2.32Z" transform="translate(-29.96 -304.13)"/><path class="cls-92" d="M200.68,340.44a14.07,14.07,0,0,0,1.28-5.06,13.61,13.61,0,0,1-3.08-.87,10.13,10.13,0,0,1-.33,2.74,20.94,20.94,0,0,1-.65,2.31Z" transform="translate(-29.96 -304.13)"/><path class="cls-93" d="M270.51,311.32a12,12,0,0,0,2.17,3.89,12,12,0,0,1,2.43-1.26,8.81,8.81,0,0,1-1.4-1.9,19.17,19.17,0,0,1-.95-1.82Z" transform="translate(-29.96 -304.13)"/><path class="cls-94" d="M136,306.76a17.24,17.24,0,0,0-1.89,4.59,7.72,7.72,0,0,1,2.05,1,13.19,13.19,0,0,1,.77-2.51c.46-1.19.91-2.1.91-2.1Z" transform="translate(-29.96 -304.13)"/><path class="cls-95" d="M48.14,333.29a17.85,17.85,0,0,0-1.89,4.6,7.66,7.66,0,0,1,2.06,1,12.52,12.52,0,0,1,.76-2.51c.46-1.19.92-2.1.92-2.1Z" transform="translate(-29.96 -304.13)"/></g></g></g></svg>